<svg xmlns="http://www.w3.org/2000/svg" xmlns:xlink="http://www.w3.org/1999/xlink" version="1.1" class="marks" width="1064" height="464" viewBox="0 0 1064 464"><rect width="1064" height="464" fill="white"/><g fill="none" stroke-miterlimit="10" transform="translate(58,27)"><g class="mark-group role-frame root" role="graphics-object" aria-roledescription="group mark container"><g transform="translate(0,0)"><path class="background" aria-hidden="true" d="M0.5,0.5h1000v400h-1000Z" stroke="#ddd"/><g><g class="mark-group role-axis" aria-hidden="true"><g transform="translate(0.5,400.5)"><path class="background" aria-hidden="true" d="M0,0h0v0h0Z" pointer-events="none"/><g><g class="mark-rule role-axis-grid" pointer-events="none"><line transform="translate(0,-400)" x2="0" y2="400" stroke="#ddd" stroke-opacity="0.3" stroke-width="1" opacity="1"/><line transform="translate(50,-400)" x2="0" y2="400" stroke="#ddd" stroke-opacity="0.3" stroke-width="1" opacity="1"/><line transform="translate(100,-400)" x2="0" y2="400" stroke="#ddd" stroke-opacity="0.3" stroke-width="1" opacity="1"/><line transform="translate(150,-400)" x2="0" y2="400" stroke="#ddd" stroke-opacity="0.3" stroke-width="1" opacity="1"/><line transform="translate(200,-400)" x2="0" y2="400" stroke="#ddd" stroke-opacity="0.3" stroke-width="1" opacity="1"/><line transform="translate(250,-400)" x2="0" y2="400" stroke="#ddd" stroke-opacity="0.3" stroke-width="1" opacity="1"/><line transform="translate(300,-400)" x2="0" y2="400" stroke="#ddd" stroke-opacity="0.3" stroke-width="1" opacity="1"/><line transform="translate(350,-400)" x2="0" y2="400" stroke="#ddd" stroke-opacity="0.3" stroke-width="1" opacity="1"/><line transform="translate(400,-400)" x2="0" y2="400" stroke="#ddd" stroke-opacity="0.3" stroke-width="1" opacity="1"/><line transform="translate(450,-400)" x2="0" y2="400" stroke="#ddd" stroke-opacity="0.3" stroke-width="1" opacity="1"/><line transform="translate(500,-400)" x2="0" y2="400" stroke="#ddd" stroke-opacity="0.3" stroke-width="1" opacity="1"/><line transform="translate(550,-400)" x2="0" y2="400" stroke="#ddd" stroke-opacity="0.3" stroke-width="1" opacity="1"/><line transform="translate(600,-400)" x2="0" y2="400" stroke="#ddd" stroke-opacity="0.3" stroke-width="1" opacity="1"/><line transform="translate(650,-400)" x2="0" y2="400" stroke="#ddd" stroke-opacity="0.3" stroke-width="1" opacity="1"/><line transform="translate(700,-400)" x2="0" y2="400" stroke="#ddd" stroke-opacity="0.3" stroke-width="1" opacity="1"/><line transform="translate(750,-400)" x2="0" y2="400" stroke="#ddd" stroke-opacity="0.3" stroke-width="1" opacity="1"/><line transform="translate(800,-400)" x2="0" y2="400" stroke="#ddd" stroke-opacity="0.3" stroke-width="1" opacity="1"/><line transform="translate(850,-400)" x2="0" y2="400" stroke="#ddd" stroke-opacity="0.3" stroke-width="1" opacity="1"/><line transform="translate(900,-400)" x2="0" y2="400" stroke="#ddd" stroke-opacity="0.3" stroke-width="1" opacity="1"/><line transform="translate(950,-400)" x2="0" y2="400" stroke="#ddd" stroke-opacity="0.3" stroke-width="1" opacity="1"/><line transform="translate(1000,-400)" x2="0" y2="400" stroke="#ddd" stroke-opacity="0.3" stroke-width="1" opacity="1"/></g></g><path class="foreground" aria-hidden="true" d="" pointer-events="none" display="none"/></g></g><g class="mark-group role-axis" aria-hidden="true"><g transform="translate(0.5,0.5)"><path class="background" aria-hidden="true" d="M0,0h0v0h0Z" pointer-events="none"/><g><g class="mark-rule role-axis-grid" pointer-events="none"><line transform="translate(0,400)" x2="1000" y2="0" stroke="#ddd" stroke-opacity="0.3" stroke-width="1" opacity="1"/><line transform="translate(0,356)" x2="1000" y2="0" stroke="#ddd" stroke-opacity="0.3" stroke-width="1" opacity="1"/><line transform="translate(0,311)" x2="1000" y2="0" stroke="#ddd" stroke-opacity="0.3" stroke-width="1" opacity="1"/><line transform="translate(0,267)" x2="1000" y2="0" stroke="#ddd" stroke-opacity="0.3" stroke-width="1" opacity="1"/><line transform="translate(0,222)" x2="1000" y2="0" stroke="#ddd" stroke-opacity="0.3" stroke-width="1" opacity="1"/><line transform="translate(0,178)" x2="1000" y2="0" stroke="#ddd" stroke-opacity="0.3" stroke-width="1" opacity="1"/><line transform="translate(0,133)" x2="1000" y2="0" stroke="#ddd" stroke-opacity="0.3" stroke-width="1" opacity="1"/><line transform="translate(0,89)" x2="1000" y2="0" stroke="#ddd" stroke-opacity="0.3" stroke-width="1" opacity="1"/><line transform="translate(0,44)" x2="1000" y2="0" stroke="#ddd" stroke-opacity="0.3" stroke-width="1" opacity="1"/><line transform="translate(0,0)" x2="1000" y2="0" stroke="#ddd" stroke-opacity="0.3" stroke-width="1" opacity="1"/></g></g><path class="foreground" aria-hidden="true" d="" pointer-events="none" display="none"/></g></g><g class="mark-group role-axis" role="graphics-symbol" aria-roledescription="axis" aria-label="X-axis titled 'Training Steps (Millions)' for a linear scale with values from 0 to 400"><g transform="translate(0.5,400.5)"><path class="background" aria-hidden="true" d="M0,0h0v0h0Z" pointer-events="none"/><g><g class="mark-rule role-axis-tick" pointer-events="none"><line transform="translate(0,0)" x2="0" y2="5" stroke="#888" stroke-width="1" opacity="1"/><line transform="translate(50,0)" x2="0" y2="5" stroke="#888" stroke-width="1" opacity="1"/><line transform="translate(100,0)" x2="0" y2="5" stroke="#888" stroke-width="1" opacity="1"/><line transform="translate(150,0)" x2="0" y2="5" stroke="#888" stroke-width="1" opacity="1"/><line transform="translate(200,0)" x2="0" y2="5" stroke="#888" stroke-width="1" opacity="1"/><line transform="translate(250,0)" x2="0" y2="5" stroke="#888" stroke-width="1" opacity="1"/><line transform="translate(300,0)" x2="0" y2="5" stroke="#888" stroke-width="1" opacity="1"/><line transform="translate(350,0)" x2="0" y2="5" stroke="#888" stroke-width="1" opacity="1"/><line transform="translate(400,0)" x2="0" y2="5" stroke="#888" stroke-width="1" opacity="1"/><line transform="translate(450,0)" x2="0" y2="5" stroke="#888" stroke-width="1" opacity="1"/><line transform="translate(500,0)" x2="0" y2="5" stroke="#888" stroke-width="1" opacity="1"/><line transform="translate(550,0)" x2="0" y2="5" stroke="#888" stroke-width="1" opacity="1"/><line transform="translate(600,0)" x2="0" y2="5" stroke="#888" stroke-width="1" opacity="1"/><line transform="translate(650,0)" x2="0" y2="5" stroke="#888" stroke-width="1" opacity="1"/><line transform="translate(700,0)" x2="0" y2="5" stroke="#888" stroke-width="1" opacity="1"/><line transform="translate(750,0)" x2="0" y2="5" stroke="#888" stroke-width="1" opacity="1"/><line transform="translate(800,0)" x2="0" y2="5" stroke="#888" stroke-width="1" opacity="1"/><line transform="translate(850,0)" x2="0" y2="5" stroke="#888" stroke-width="1" opacity="1"/><line transform="translate(900,0)" x2="0" y2="5" stroke="#888" stroke-width="1" opacity="1"/><line transform="translate(950,0)" x2="0" y2="5" stroke="#888" stroke-width="1" opacity="1"/><line transform="translate(1000,0)" x2="0" y2="5" stroke="#888" stroke-width="1" opacity="1"/></g><g class="mark-text role-axis-label" pointer-events="none"><text text-anchor="start" transform="translate(0,15)" font-family="sans-serif" font-size="10px" fill="#000" opacity="1">0</text><text text-anchor="middle" transform="translate(50,15)" font-family="sans-serif" font-size="10px" fill="#000" opacity="1">20</text><text text-anchor="middle" transform="translate(100,15)" font-family="sans-serif" font-size="10px" fill="#000" opacity="1">40</text><text text-anchor="middle" transform="translate(150,15)" font-family="sans-serif" font-size="10px" fill="#000" opacity="1">60</text><text text-anchor="middle" transform="translate(200,15)" font-family="sans-serif" font-size="10px" fill="#000" opacity="1">80</text><text text-anchor="middle" transform="translate(250,15)" font-family="sans-serif" font-size="10px" fill="#000" opacity="1">100</text><text text-anchor="middle" transform="translate(300,15)" font-family="sans-serif" font-size="10px" fill="#000" opacity="1">120</text><text text-anchor="middle" transform="translate(350,15)" font-family="sans-serif" font-size="10px" fill="#000" opacity="1">140</text><text text-anchor="middle" transform="translate(400,15)" font-family="sans-serif" font-size="10px" fill="#000" opacity="1">160</text><text text-anchor="middle" transform="translate(450,15)" font-family="sans-serif" font-size="10px" fill="#000" opacity="1">180</text><text text-anchor="middle" transform="translate(500,15)" font-family="sans-serif" font-size="10px" fill="#000" opacity="1">200</text><text text-anchor="middle" transform="translate(550,15)" font-family="sans-serif" font-size="10px" fill="#000" opacity="1">220</text><text text-anchor="middle" transform="translate(600,15)" font-family="sans-serif" font-size="10px" fill="#000" opacity="1">240</text><text text-anchor="middle" transform="translate(650,15)" font-family="sans-serif" font-size="10px" fill="#000" opacity="1">260</text><text text-anchor="middle" transform="translate(700,15)" font-family="sans-serif" font-size="10px" fill="#000" opacity="1">280</text><text text-anchor="middle" transform="translate(750,15)" font-family="sans-serif" font-size="10px" fill="#000" opacity="1">300</text><text text-anchor="middle" transform="translate(800,15)" font-family="sans-serif" font-size="10px" fill="#000" opacity="1">320</text><text text-anchor="middle" transform="translate(850,15)" font-family="sans-serif" font-size="10px" fill="#000" opacity="1">340</text><text text-anchor="middle" transform="translate(900,15)" font-family="sans-serif" font-size="10px" fill="#000" opacity="1">360</text><text text-anchor="middle" transform="translate(950,15)" font-family="sans-serif" font-size="10px" fill="#000" opacity="1">380</text><text text-anchor="end" transform="translate(1000,15)" font-family="sans-serif" font-size="10px" fill="#000" opacity="1">400</text></g><g class="mark-rule role-axis-domain" pointer-events="none"><line transform="translate(0,0)" x2="1000" y2="0" stroke="#888" stroke-width="1" opacity="1"/></g><g class="mark-text role-axis-title" pointer-events="none"><text text-anchor="middle" transform="translate(500,30)" font-family="sans-serif" font-size="11px" font-weight="bold" fill="#000" opacity="1">Training Steps (Millions)</text></g></g><path class="foreground" aria-hidden="true" d="" pointer-events="none" display="none"/></g></g><g class="mark-group role-axis" role="graphics-symbol" aria-roledescription="axis" aria-label="Y-axis titled 'Charts/Mean Episodic Return' for a linear scale with values from −1,000 to 8,000"><g transform="translate(0.5,0.5)"><path class="background" aria-hidden="true" d="M0,0h0v0h0Z" pointer-events="none"/><g><g class="mark-rule role-axis-tick" pointer-events="none"><line transform="translate(0,400)" x2="-5" y2="0" stroke="#888" stroke-width="1" opacity="1"/><line transform="translate(0,356)" x2="-5" y2="0" stroke="#888" stroke-width="1" opacity="1"/><line transform="translate(0,311)" x2="-5" y2="0" stroke="#888" stroke-width="1" opacity="1"/><line transform="translate(0,267)" x2="-5" y2="0" stroke="#888" stroke-width="1" opacity="1"/><line transform="translate(0,222)" x2="-5" y2="0" stroke="#888" stroke-width="1" opacity="1"/><line transform="translate(0,178)" x2="-5" y2="0" stroke="#888" stroke-width="1" opacity="1"/><line transform="translate(0,133)" x2="-5" y2="0" stroke="#888" stroke-width="1" opacity="1"/><line transform="translate(0,89)" x2="-5" y2="0" stroke="#888" stroke-width="1" opacity="1"/><line transform="translate(0,44)" x2="-5" y2="0" stroke="#888" stroke-width="1" opacity="1"/><line transform="translate(0,0)" x2="-5" y2="0" stroke="#888" stroke-width="1" opacity="1"/></g><g class="mark-text role-axis-label" pointer-events="none"><text text-anchor="end" transform="translate(-7,403)" font-family="sans-serif" font-size="10px" fill="#000" opacity="1">−1,000</text><text text-anchor="end" transform="translate(-7,358.55555555555554)" font-family="sans-serif" font-size="10px" fill="#000" opacity="1">0</text><text text-anchor="end" transform="translate(-7,314.11111111111114)" font-family="sans-serif" font-size="10px" fill="#000" opacity="1">1,000</text><text text-anchor="end" transform="translate(-7,269.6666666666667)" font-family="sans-serif" font-size="10px" fill="#000" opacity="1">2,000</text><text text-anchor="end" transform="translate(-7,225.22222222222223)" font-family="sans-serif" font-size="10px" fill="#000" opacity="1">3,000</text><text text-anchor="end" transform="translate(-7,180.77777777777777)" font-family="sans-serif" font-size="10px" fill="#000" opacity="1">4,000</text><text text-anchor="end" transform="translate(-7,136.33333333333334)" font-family="sans-serif" font-size="10px" fill="#000" opacity="1">5,000</text><text text-anchor="end" transform="translate(-7,91.88888888888889)" font-family="sans-serif" font-size="10px" fill="#000" opacity="1">6,000</text><text text-anchor="end" transform="translate(-7,47.444444444444464)" font-family="sans-serif" font-size="10px" fill="#000" opacity="1">7,000</text><text text-anchor="end" transform="translate(-7,3)" font-family="sans-serif" font-size="10px" fill="#000" opacity="1">8,000</text></g><g class="mark-rule role-axis-domain" pointer-events="none"><line transform="translate(0,400)" x2="0" y2="-400" stroke="#888" stroke-width="1" opacity="1"/></g><g class="mark-text role-axis-title" pointer-events="none"><text text-anchor="middle" transform="translate(-41.8642578125,200) rotate(-90) translate(0,-2)" font-family="sans-serif" font-size="11px" font-weight="bold" fill="#000" opacity="1">Charts/Mean Episodic Return</text></g></g><path class="foreground" aria-hidden="true" d="" pointer-events="none" display="none"/></g></g><g class="mark-group role-scope view_1_pathgroup" role="graphics-object" aria-roledescription="group mark container"><g transform="translate(0,0)"><path class="background" aria-hidden="true" d="M0,0h1000v400h-1000Z"/><g><g class="mark-area role-mark view_1_marks" clip-path="url(#clip1)" role="graphics-object" aria-roledescription="area mark container"><path aria-label="Training Steps (Millions): 0.33; Charts/Mean Episodic Return: −50.3971234018; smooth_q75: −36.4764576295; Algorithm: standard" role="graphics-symbol" aria-roledescription="area mark" d="M0.825,357.795L1.65,357.625L2.45,357.461L3.275,357.304L4.1,357.207L4.925,357.081L5.725,356.992L6.55,356.85L7.375,356.731L8.2,356.587L9,356.482L9.825,356.245L10.65,355.939L11.475,355.681L12.3,355.327L13.1,355.009L13.925,354.661L14.75,354.365L15.575,354.003L16.375,353.685L17.2,353.223L18.025,352.748L18.85,352.323L19.65,351.753L20.475,351.158L21.3,350.622L22.125,349.888L22.95,349.004L23.75,348.34L24.575,347.038L25.4,345.786L26.225,344.457L27.025,343.166L27.85,341.436L28.675,339.913L29.5,337.977L30.3,335.755L31.125,332.986L31.95,330.433L32.775,327.763L33.575,325.07L34.4,321.9L35.225,319.021L36.05,315.903L36.875,312.924L37.675,309.331L38.5,305.084L39.325,301.081L40.15,296.963L40.95,293.309L41.775,289.368L42.6,282.784L43.425,283.849L44.225,284.239L45.05,284.381L45.875,283.144L46.7,281.961L47.525,280.093L48.325,277.543L49.15,275.758L49.975,273.57L50.8,269.28L51.6,266.128L52.425,261.873L53.25,254.649L54.075,252.878L54.875,251.376L55.7,250.56L56.525,249.326L57.35,244.948L58.175,241.66L58.975,239.577L59.8,239.799L60.625,232.379L61.45,225.105L62.25,215.814L63.075,211.058L63.9,206.312L65.525,201.836L66.35,197.72L67.175,193.502L68,189.743L68.825,188.029L69.625,184.856L70.45,182.796L71.275,184.685L72.1,180.525L72.9,176.262L73.725,170.241L74.55,166.458L75.375,166.632L76.175,164.885L77,162.378L77.825,160.307L78.65,158.016L79.45,156.916L80.275,157.595L81.1,154.202L81.925,151.848L82.75,150.553L83.55,148.859L84.375,146.914L85.2,146.259L86.025,143.942L86.825,144.656L87.65,144.766L88.475,142.802L89.3,142.267L90.1,141.746L90.925,143.298L91.75,143.156L92.575,140.985L93.4,149.942L94.2,158.501L95.025,165.946L95.85,172.29L96.675,177.354L97.475,182.054L98.3,186.39L99.125,189.542L99.95,191.978L100.75,194.083L101.575,195.123L102.4,194.099L103.225,191.184L104.05,192.988L104.85,195.599L105.675,197.831L106.5,198.381L107.325,199.834L108.125,199.799L108.95,199.789L109.775,200.573L110.6,190.729L111.4,180.951L112.225,172.798L113.05,162.353L113.875,157.099L114.7,152.684L115.5,149.506L116.325,146.421L117.15,144.269L117.975,142.39L118.775,141.058L119.6,141.049L120.425,143.91L121.25,138.751L122.05,133.882L122.875,130.488L123.7,126.598L124.525,124.484L125.35,124.932L126.15,123.45L126.975,122.73L127.8,122.788L128.625,121.941L129.425,121.023L130.25,123.373L131.075,120.353L131.9,119.032L132.7,117.744L133.525,115.307L134.35,115.484L135.175,115.159L135.975,114.647L136.8,113.807L137.625,114.148L138.45,115.196L139.275,115.273L140.075,116.558L140.9,118.249L141.725,117.441L142.55,114.637L143.35,125.598L144.175,135.379L145,143.087L145.825,151.372L146.625,158.085L147.45,163.973L148.275,169.465L149.1,173.375L149.925,176.437L150.725,179.167L151.55,178.918L152.375,178.266L153.2,174.633L154,178.427L154.825,181.735L155.65,184.863L156.475,187.991L157.275,189.996L158.1,191.736L158.925,192.982L159.75,194.734L160.575,183.843L161.375,174.651L162.2,165.919L163.025,154.248L163.85,148.63L164.65,143.746L165.475,140.124L166.3,137.107L167.125,134.414L167.925,133.127L168.75,131.373L169.575,131.831L170.4,133.705L171.225,129.931L172.025,123.789L172.85,118.663L173.675,112.379L174.5,110.627L175.3,109.095L176.125,108.305L176.95,108.083L177.775,108.126L178.575,107.715L179.4,107.489L180.225,110.56L181.05,109.295L181.85,109.256L182.675,108.049L183.5,103.118L184.325,102.501L185.15,101.32L185.95,101.036L186.775,101.429L187.6,101.405L188.425,99.965L189.225,101.435L190.05,103.005L190.875,104.713L191.7,103.007L192.5,100.116L193.325,111.167L194.15,120.584L194.975,129.206L195.8,136.321L196.6,142.728L197.425,148.983L198.25,152.946L199.075,155.097L199.875,157.84L200.7,161.856L201.525,160.255L202.35,157.538L203.15,162.565L203.975,166.296L204.8,171.088L205.625,173.281L207.25,176.463L208.075,178.384L208.9,181.518L209.725,182.431L210.525,185.266L211.35,173.416L212.175,161.487L213,147.771L213.8,141.744L214.625,135.325L215.45,130.277L216.275,127.102L217.1,124.563L217.9,122.454L218.725,122.13L219.55,123.317L220.375,125.471L221.175,119.277L222,114.35L222.825,110.03L223.65,105.356L224.45,102.963L225.275,100.742L226.1,98.674L226.925,98.032L227.75,97.248L228.55,97.502L229.375,98.644L230.2,102.136L231.025,99.691L231.825,98.017L232.65,96.248L233.475,92.84L234.3,92.792L235.1,90.791L235.925,91.144L236.75,89.598L237.575,89.7L238.375,90.17L239.2,91.062L240.025,91.156L240.85,93.044L241.675,92.018L242.475,90.091L243.3,101.791L244.125,112.114L244.95,121.699L245.75,129.64L246.575,136.913L247.4,143.739L248.225,148.333L249.025,152.916L249.85,156.506L250.675,160.195L251.5,160.227L252.325,162.177L253.125,157.652L253.95,161.638L254.775,165.659L255.6,168.673L256.4,170.503L257.225,173.401L258.05,175.019L258.875,176.35L259.675,178.463L260.5,166.471L261.325,156.338L262.15,146.532L262.975,134.56L263.775,129.555L264.6,124.461L265.425,120.792L266.25,118.466L267.05,116.313L267.875,113.481L268.7,112.134L269.525,111.605L270.325,114.132L271.15,110.559L271.975,106.971L272.8,102.881L273.625,97.151L274.425,94.194L275.25,92.961L276.075,92.037L276.9,90.245L277.7,90.038L278.525,89.179L279.35,89.064L280.175,91.79L280.975,87.754L281.8,84.613L282.625,82.013L283.45,77.44L284.25,75.628L285.075,75.627L285.9,74.489L286.725,72.64L287.55,73.125L288.35,72.785L289.175,71.958L290,71.309L290.825,73.492L291.625,71.424L292.45,70.586L293.275,82.385L294.1,94.601L294.9,104.33L295.725,112.718L296.55,119.761L297.375,126.721L298.2,133.492L299,139.318L299.825,143.37L300.65,147.646L301.475,148.604L302.275,148.942L303.1,146.155L303.925,152.316L304.75,155.725L305.55,159.501L306.375,161.767L307.2,164.884L308.025,166.803L308.85,168.536L309.65,171.032L310.475,159.542L311.3,148.694L312.125,137.902L312.925,125.619L313.75,119.368L314.575,114.351L315.4,109.575L316.2,105.581L317.025,104.028L317.85,102.99L318.675,102.397L319.5,102.104L320.3,105.225L321.125,99.406L321.95,94.935L322.775,90.191L323.575,85.07L324.4,83.46L325.225,81.91L326.05,83.447L326.85,81.619L327.675,80.337L328.5,78.899L329.325,78.862L330.15,81.786L330.95,79.967L331.775,77.097L332.6,74.514L333.425,70.162L334.225,68.518L335.05,67.881L335.875,67.234L336.7,66.423L337.5,66.398L338.325,66.359L339.15,65.641L339.975,64.764L340.775,66.97L341.6,65.975L342.425,64.578L343.25,75.785L344.075,87.506L344.875,97.714L345.7,107.413L346.525,115.726L347.35,122.688L348.15,128.609L348.975,133.984L349.8,137.232L350.625,142.411L351.425,143.849L352.25,142.856L353.075,140.012L353.9,146.508L354.725,152.631L355.525,156.046L356.35,159.292L357.175,164.489L358,167.075L358.8,169.135L359.625,171.109L360.45,159.286L361.275,147.96L362.075,137.639L362.9,125.515L363.725,120.798L364.55,116.202L365.375,113.248L366.175,109.781L367,108.938L367.825,107.737L368.65,106.736L369.45,107.857L370.275,111.38L371.1,104.701L371.925,98.296L372.725,94.054L373.55,88.879L374.375,85.786L375.2,84.717L376.025,83.686L376.825,82.601L377.65,81.229L378.475,81.171L379.3,79.369L380.1,80.89L380.925,76.706L381.75,73.487L382.575,70.319L383.375,66.238L384.2,66.577L385.025,65.505L385.85,65.971L386.65,64.958L387.475,64.341L388.3,64.487L389.125,63.605L389.95,64.809L390.75,66.075L391.575,63.787L392.4,62.421L393.225,74.723L394.025,86.519L394.85,97.237L395.675,106.149L396.5,115.519L397.3,123.702L398.125,130.411L398.95,136.186L399.775,140.297L400.6,144.591L401.4,144.313L402.225,145.143L403.05,140.568L403.875,146.618L404.675,152.282L405.5,156.657L406.325,161.022L407.15,163.588L407.95,167.795L408.775,170.908L409.6,171.472L410.425,159.099L411.25,145.834L412.05,131.496L412.875,124.979L414.525,119.348L415.325,114.805L416.15,111.077L416.975,108.083L417.8,104.343L418.6,103.871L419.425,102.269L420.25,102.155L421.075,105.226L421.9,98.727L422.7,91.702L423.525,85.486L424.35,82.823L425.175,80.63L425.975,80.244L426.8,79.89L427.625,80.06L428.45,79.329L429.25,80.76L430.075,85.541L430.9,82.516L431.725,80.846L432.55,77.869L433.35,72.916L434.175,71.539L435,72.876L435.825,72.796L436.625,74.191L437.45,73.943L438.275,74.588L439.1,75.348L439.9,76.455L440.725,78.486L441.55,76.467L442.375,74.183L443.175,85.245L444,96.214L444.825,106.464L445.65,115.907L446.475,123.973L447.275,129.504L448.1,135.247L448.925,138.59L449.75,142.766L450.55,147.746L451.375,148.208L452.2,146.743L453.025,142.38L453.825,146.402L454.65,150.485L455.475,153.622L456.3,156.274L457.125,158.758L457.925,161.586L458.75,164.763L459.575,167.11L460.4,154.894L461.2,142.674L462.025,130.283L462.85,117.772L463.675,110.661L464.475,107.079L465.3,103.532L466.125,100.628L466.95,97.366L467.775,94.864L468.575,94.106L469.4,93.708L470.225,96.419L471.05,91.251L471.85,85.787L472.675,80.685L473.5,74.521L474.325,73.117L475.125,71.642L475.95,70.647L476.775,70.05L477.6,69.443L478.425,69.523L479.225,70.794L480.05,74.324L480.875,73.05L481.7,68.928L482.5,64.543L483.325,59.527L484.15,60.275L484.975,61.925L485.775,61.789L486.6,62.65L487.425,64.394L488.25,64.89L489.05,66.357L489.875,67.841L490.7,69.644L491.525,68.005L492.35,66.073L493.15,78.356L493.975,89.877L494.8,100.307L495.625,109.642L496.425,118.44L497.25,124.459L498.075,130.586L498.9,136.408L499.7,141.414L500.525,147.536L501.35,148.278L502.175,146.656L503,143.018L503.8,147.272L504.625,150.718L505.45,152.897L506.275,155.515L507.075,157.631L507.9,161.312L508.725,163.703L509.55,165.001L510.35,153.25L511.175,142.311L512,131.351L512.825,118.279L513.65,111.947L514.45,107.085L515.275,102.314L516.1,98.57L516.925,96.35L517.725,93.939L518.55,92.174L519.375,91.296L520.2,94.743L521,89.006L521.825,83.074L522.65,77.567L523.475,74.56L525.1,74.513L525.925,72.68L526.75,70.81L527.575,70.585L528.375,69.244L529.2,67.756L530.025,67.093L530.85,71.486L531.65,67.65L532.475,64.166L533.3,59.404L534.125,58.456L534.95,59.597L535.75,58.537L536.575,58.126L537.4,58.182L538.225,57.306L539.025,58.291L539.85,60.193L540.675,62.246L541.5,60.583L542.3,57.034L543.125,70.012L543.95,82.001L544.775,92.292L545.575,101.464L546.4,110.084L547.225,117.878L548.05,122.736L548.875,128.977L549.675,133.102L550.5,138.578L551.325,138.39L552.15,136.05L552.95,133.58L553.775,139.612L554.6,145.388L555.425,150.042L556.225,153.561L557.05,155.546L557.875,158.267L558.7,160.784L559.525,163.366L560.325,150.401L561.15,138.176L561.975,126.702L562.8,113.68L563.6,106.991L564.425,102.104L565.25,98.554L566.075,95.776L566.875,94.863L567.7,93.125L568.525,93.838L569.35,94.533L570.175,97.984L570.975,91.937L571.8,86.061L572.625,80.863L573.45,73.456L574.25,71.869L575.075,70.399L575.9,70.518L576.725,70.104L577.525,70.169L578.35,70.925L579.175,70.901L580,74.002L580.825,71.607L581.625,68.404L582.45,65.29L583.275,59.609L584.1,58.502L584.9,58.72L585.725,58.085L586.55,58.066L587.375,58.23L588.175,58.025L589,58.376L589.825,58.856L590.65,61.919L591.45,60.263L592.275,59.269L593.1,71.614L593.925,83.102L594.75,93.345L595.55,102.228L596.375,111.197L597.2,118.566L598.025,124.937L598.825,130.677L599.65,135.066L600.475,140.942L601.3,141.633L602.1,140.297L602.925,136.439L603.75,141.498L604.575,146.474L605.4,150.362L606.2,153.702L607.025,156.559L607.85,159.021L608.675,161.172L609.475,162.477L610.3,149.333L611.125,136.12L611.95,124.082L612.75,111.142L613.575,106.91L614.4,102.525L615.225,99.494L616.05,96.53L616.85,94.54L617.675,93.363L618.5,92.331L619.325,94.085L620.125,97.976L620.95,92.193L621.775,86.491L622.6,81.494L623.4,74.881L624.225,72.319L625.05,70.749L625.875,69.63L626.7,68.728L627.5,68.781L628.325,69.398L629.15,70.323L629.975,73.202L630.775,68.899L631.6,65.562L632.425,61.623L633.25,56.209L634.05,55.14L634.875,55.857L635.7,56.476L636.525,55.307L637.35,55.113L638.15,55.217L638.975,55.678L639.8,56.242L640.625,58.993L641.425,58.459L642.25,56.675L643.075,69.785L643.9,81.789L644.7,92.312L645.525,102.302L646.35,110.804L647.175,118.099L647.975,124.128L648.8,127.773L649.625,130.87L650.45,139.539L651.275,147.756L652.075,142.424L652.9,146.493L653.725,151.9L654.55,155.693L655.35,160.202L656.175,161.578L657.825,168.523L658.625,170.967L659.45,172.407L660.275,173.838L661.1,159.484L661.925,146.246L662.725,143.119L663.55,135.976L664.375,130.346L665.2,125.675L666,126.978L666.825,125.933L667.65,124.37L668.475,120.668L669.275,112.099L670.1,120.446L670.925,113.122L671.75,106.239L672.575,101.379L673.375,94.557L674.2,93.925L675.025,88.984L675.85,93.329L676.65,91.844L677.475,91.993L678.3,93.304L679.125,92.765L679.925,83.838L680.75,85.525L681.575,81.436L682.4,89.192L683.225,84.539L684.025,82.065L684.85,96.204L685.675,94.842L686.5,104.05L687.3,99.66L688.125,100.809L688.95,101.377L689.775,101.855L690.575,109.051L691.4,107.748L692.225,105.857L693.05,113.458L693.85,126.665L694.675,137.587L695.5,151.814L696.325,164.38L697.15,172.426L697.95,184.51L698.775,189.826L699.6,182.672L700.425,182.536L701.225,184.696L702.05,170.263L702.875,166.76L703.7,163.202L704.5,167L705.325,171.945L706.15,175.867L706.975,179.41L707.8,177.229L708.6,179.56L709.425,199.672L710.25,186.986L711.075,180.311L711.875,168.094L712.7,149.951L713.525,141.335L714.35,137.179L715.15,123.214L715.975,120.978L716.8,132.797L717.625,145.657L718.45,154.231L719.25,154.089L720.075,157.44L720.9,151.082L721.725,144.579L722.525,149.688L723.35,166.455L724.175,165.114L725,168.074L725.8,167.288L726.625,148.912L727.45,148.91L728.275,141.871L729.1,142.38L729.9,164.491L730.725,162.119L731.55,158.449L732.375,160.342L733.175,166.526L734,158.264L734.825,143.882L735.65,152.336L736.45,153.448L737.275,155.097L738.1,156.697L738.925,178.196L739.75,169.558L740.55,148.812L741.375,146.74L742.2,155.438L743.025,168.168L743.825,179.228L744.65,189.46L745.475,200.398L746.3,211.67L747.1,199.887L747.925,205.651L748.75,210.893L749.575,213.221L750.375,207.594L751.2,201.92L752.025,201.661L752.85,179.541L753.675,193.865L754.475,198.651L755.3,203.234L756.125,187.672L756.95,189.887L757.75,196.985L758.575,207.545L759.4,199.426L760.225,184.982L761.025,172.552L761.85,157.774L762.675,149.879L763.5,153.573L764.325,152.286L765.125,155.62L765.95,165.06L766.775,159.174L767.6,158.219L769.225,158.532L770.05,162.58L770.875,184.322L771.675,168.257L772.5,160.576L773.325,151.34L774.15,149.205L774.975,157.354L775.775,152.231L776.6,143.745L777.425,156.086L778.25,170.726L779.05,170.189L779.875,173.066L780.7,189.863L781.525,174.425L782.325,168.189L783.15,155.612L783.975,150.845L784.8,150.487L785.625,148.753L786.425,151.772L787.25,146.974L788.075,147.099L788.9,151.441L789.7,156.503L790.525,159.629L791.35,156.626L792.175,146.337L792.975,158.911L793.8,171.046L794.625,163.388L795.45,159.056L796.25,168.262L797.075,176.291L797.9,163.651L798.725,169.27L799.55,172.58L800.35,185.67L801.175,182.276L802,181.089L802.825,177.983L803.625,184.964L804.45,196.499L805.275,185.676L806.1,187.61L806.9,188.001L807.725,189.272L808.55,191.815L809.375,191.688L810.2,183.326L811,168.816L811.825,157.006L812.65,143.916L813.475,138.648L814.275,145.968L815.1,154.221L815.925,150.523L816.75,149.245L817.55,140.846L818.375,135.603L819.2,145.1L820.025,147.974L820.85,155.087L821.65,142.119L822.475,133.033L823.3,123.83L824.125,129.313L824.925,142.537L825.75,142.802L826.575,143.763L827.4,138.717L828.2,138.379L829.025,142.895L829.85,145.647L830.675,150.823L831.5,149.731L832.3,143.914L833.125,139.377L833.95,137.779L834.775,135.651L835.575,134.368L836.4,130.359L837.225,130.075L838.05,116.192L838.85,121.864L839.675,121.962L840.5,123.619L841.325,126.887L842.15,111.077L842.95,123.309L843.775,134.413L844.6,148.671L845.425,158.867L846.225,163.488L847.05,170.969L847.875,168.159L848.7,158.984L849.5,153.421L850.325,162.928L851.15,163.252L851.975,182.134L852.775,179.241L853.6,190.094L854.425,209.097L855.25,219.962L856.075,221.458L856.875,227.411L857.7,232.478L858.525,220.85L859.35,224.847L860.15,220.545L860.975,226.431L861.8,225.283L862.625,223.098L863.425,218.263L864.25,214.095L865.075,210.643L865.9,207.22L866.725,218.548L867.525,217.065L868.35,217.871L869.175,208.702L870,212.242L870.8,205.223L871.625,185.709L872.45,168.563L873.275,159.365L874.075,164.519L874.9,162.308L875.725,162.092L876.55,165.664L877.375,161.609L878.175,143.304L879,129.033L879.825,131.135L880.65,127.31L881.45,122.721L882.275,129.125L883.1,124.82L883.925,110.8L884.725,105.699L885.55,104.252L886.375,99.2L887.2,104.03L888.025,95.188L888.825,96.103L889.65,106.616L890.475,114.202L891.3,107.918L892.1,110.086L892.925,122.419L893.75,129.017L894.575,134.62L895.375,148.683L896.2,157.733L897.025,155.237L897.85,167.577L898.65,187.71L899.475,182.324L900.3,203.872L901.125,203.701L901.95,204.034L902.75,206.155L903.575,208.112L904.4,208.755L905.225,210.734L906.025,219.992L906.85,214.52L907.675,217.683L908.5,227.885L909.3,234.093L910.125,221.815L910.95,210.452L911.775,203.441L912.6,198.977L913.4,196.882L914.225,195.168L915.05,197.835L915.875,185.68L916.675,184.574L917.5,167.088L918.325,167.137L919.15,166.011L919.95,167.954L920.775,180.2L921.6,192.325L922.425,203.936L923.25,213.563L924.05,228.844L924.875,226.569L925.7,214.173L926.525,210.45L927.325,208.681L928.15,212.396L928.975,226.775L929.8,221.192L930.6,233.54L931.425,246.55L932.25,240.286L933.075,230.53L933.9,246.564L934.7,260.402L935.525,278.64L936.35,299.974L937.175,305.568L937.975,306.588L938.8,293.464L939.625,299.64L940.45,300.858L941.25,280.622L942.075,283.886L942.9,300.074L943.725,313.633L944.55,332.539L945.35,337.396L946.175,334.821L947,349.272L947.825,345.75L948.625,346.384L949.45,341.193L950.275,346.421L951.1,342.077L951.9,347.616L952.725,349.405L953.55,348.721L954.375,352.495L955.175,352.019L956,351.507L956.825,347.2L957.65,347.098L958.475,367.137L959.275,358.85L960.1,360.072L960.925,345.618L961.75,345.295L962.55,331.848L963.375,330.67L964.2,330.606L965.025,335.625L965.825,334.974L966.65,332.999L967.475,351.314L968.3,347.471L969.125,346.111L969.925,334.664L970.75,315.289L971.575,316.505L972.4,315.923L973.2,331.075L974.025,317.53L974.85,316.316L975.675,298.641L976.475,299.789L977.3,281.212L978.125,276.249L978.95,257.289L979.775,274.706L980.575,278.771L981.4,258.929L982.225,257.398L983.05,241.016L983.85,258.182L984.675,239.726L985.5,249.319L986.325,245.009L987.125,236.418L987.95,255.503L988.775,254.828L989.6,236.009L990.425,235.948L991.225,232.95L992.05,233.219L992.875,241.328L993.7,249.76L994.5,260.092L995.325,272.136L996.15,286.535L996.975,282.621L997.775,270.63L998.6,289.26L999.425,276.154L1000.25,292.496L1000.25,80.756L999.425,72.381L998.6,69.006L997.775,66.109L996.975,64.091L996.15,61.674L995.325,60.439L994.5,59.376L993.7,58.748L992.875,58.764L992.05,58.402L991.225,61.369L990.425,64.157L989.6,61.117L988.775,60.781L987.95,65.706L987.125,65.514L986.325,64.869L985.5,59.609L984.675,45.948L983.85,64.106L983.05,64.173L982.225,68.513L981.4,80.733L980.575,83.006L979.775,86.68L978.95,84.368L978.125,83.313L977.3,83.615L976.475,83.376L975.675,83.279L974.85,84.617L974.025,85.682L973.2,90.908L972.4,97.215L971.575,102.81L970.75,104.993L969.925,111.067L969.125,108.441L968.3,106.906L967.475,112.076L966.65,95.045L965.825,97.646L965.025,101.165L964.2,95.627L963.375,101.803L962.55,107.366L961.75,120.835L960.925,133.64L960.1,146.495L959.275,162.282L958.475,159.984L957.65,156.294L956.825,152.898L956,145.266L955.175,141.085L954.375,136.16L953.55,128.901L952.725,141.704L951.9,145.925L951.1,153L950.275,148.577L949.45,143.58L948.625,138.976L947.825,132.949L947,126.077L946.175,117.585L945.35,108.667L944.55,97.729L943.725,85.457L942.9,73.822L942.075,59.862L941.25,61.926L940.45,66.812L939.625,64.258L938.8,63.247L937.975,63.316L937.175,65.271L936.35,64.211L935.525,44.478L934.7,43.402L933.9,37.556L933.075,37.642L932.25,40.986L931.425,43.109L930.6,46.321L929.8,54.102L928.975,51.7L928.15,50.782L927.325,51.424L926.525,52.779L925.7,52.436L924.875,56.351L924.05,59.215L923.25,58.149L922.425,64.887L921.6,68.641L920.775,73.491L919.95,77.448L919.15,76.019L918.325,75.728L917.5,76.195L916.675,78.458L915.875,80.622L915.05,85.217L914.225,90.307L913.4,95.808L912.6,97.76L911.775,111.268L910.95,123.854L910.125,136.97L909.3,150.61L908.5,148.14L907.675,141.461L906.85,137.854L906.025,135.328L905.225,131.144L904.4,128.771L903.575,123.835L902.75,117.294L901.95,119.891L901.125,120.737L900.3,120.198L899.475,114.804L898.65,109.973L897.85,103.591L897.025,97.258L896.2,90.272L895.375,81.008L894.575,71.038L893.75,60.114L892.925,48.892L892.1,36.02L891.3,38.74L890.475,41.577L889.65,38.878L888.825,37.731L888.025,36.553L887.2,36.638L886.375,36.906L885.55,38.206L884.725,38.124L883.925,38.654L883.1,40.4L882.275,44.091L881.45,46.307L880.65,49.676L879.825,52.382L879,48.759L878.175,48.109L877.375,47.923L876.55,47.864L875.725,46.797L874.9,47.228L874.075,48.428L873.275,48.68L872.45,55.907L871.625,67.804L870.8,75.777L870,82.932L869.175,80.544L868.35,79.672L867.525,80.917L866.725,82.896L865.9,84.136L865.075,88.195L864.25,93.11L863.425,98.787L862.625,105.072L861.8,118.347L860.975,131.103L860.15,143.957L859.35,157.725L858.525,155.175L857.7,156.788L856.875,152.688L856.075,150.091L855.25,144.694L854.425,134.376L853.6,127.466L852.775,120.358L851.975,122.402L851.15,122.456L850.325,121.805L849.5,116.474L848.7,111.89L847.875,106.759L847.05,99.792L846.225,91.92L845.425,82.376L844.6,71.558L843.775,59.709L842.95,46.652L842.15,33.299L841.325,35.536L840.5,32.746L839.675,31.517L838.85,31.08L838.05,31.073L837.225,30.861L836.4,30.693L835.575,31.044L834.775,32.642L833.95,34.008L833.125,35.502L832.3,39.726L831.5,43.515L830.675,46.847L829.85,50.626L829.025,47.971L828.2,47.926L827.4,47.975L826.575,48.95L825.75,49.912L824.925,49.558L824.125,50.279L823.3,51.496L822.475,57.068L821.65,62.139L820.85,67.269L820.025,72.071L819.2,69.704L818.375,69.837L817.55,70.003L816.75,70.899L815.925,72.894L815.1,76.277L814.275,80.524L813.475,84.931L812.65,91.051L811.825,104.33L811,116.776L810.2,130.393L809.375,144.013L808.55,141.734L807.725,139.743L806.9,137.498L806.1,135.178L805.275,131.845L804.45,127.954L803.625,123.724L802.825,119.025L802,121.85L801.175,123.051L800.35,122.707L799.55,117.872L798.725,112.897L797.9,107.013L797.075,101.3L796.25,92.97L795.45,84.045L794.625,74.75L793.8,64.762L792.975,52.135L792.175,38.99L791.35,41.362L790.525,43.781L789.7,41.883L788.9,41.412L788.075,41.331L787.25,40.257L786.425,40.835L785.625,43.117L784.8,43.717L783.975,44.004L783.15,49.28L782.325,53.128L781.525,56.377L780.7,59.81L779.875,61.293L779.05,59.269L778.25,58.697L777.425,57.004L776.6,56.924L775.775,58.556L774.975,59.648L774.15,61.154L773.325,62.978L772.5,69.841L771.675,75.471L770.875,81.813L770.05,79.827L769.225,80.161L767.6,79.034L766.775,81.312L765.95,83.076L765.125,81.993L764.325,87.389L763.5,93.123L762.675,99.739L761.85,107.735L761.025,122.347L760.225,135.972L759.4,151.171L758.575,148.739L757.75,145.876L756.95,143.144L756.125,139.89L755.3,137.999L754.475,135.002L753.675,131.106L752.85,125.846L752.025,130.273L751.2,129.938L750.375,130.13L749.575,124.582L748.75,119.877L747.925,114.418L747.1,107.552L746.3,98.692L745.475,89.875L744.65,79.001L743.825,68.03L743.025,55.547L742.2,41.754L741.375,44.262L740.55,45.964L739.75,43.856L738.925,43.238L738.1,40.768L737.275,39.157L736.45,38.642L735.65,37.912L734.825,36.283L734,36.415L733.175,35.984L732.375,40.78L731.55,43.024L730.725,46.117L729.9,49.98L729.1,48.435L728.275,47.558L727.45,47.745L726.625,47.232L725.8,47.669L725,48.088L724.175,48.409L723.35,50.56L722.525,55.863L721.725,61.844L720.9,68.369L720.075,74.1L719.25,70.863L718.45,71.279L717.625,72.633L716.8,74.628L715.975,77.555L715.15,80.421L714.35,85.53L713.525,90.971L712.7,96.431L711.875,109.565L711.075,122.42L710.25,135.882L709.425,150.099L708.6,148.076L707.8,146.503L706.975,144.563L706.15,141.721L705.325,138.199L704.5,132.386L703.7,127.196L702.875,122.122L702.05,125.486L701.225,126.646L700.425,124.232L699.6,118.961L698.775,115.966L697.95,109.82L697.15,102.844L696.325,94.33L695.5,84.921L694.675,73.735L693.85,62.403L693.05,48.653L692.225,35.545L691.4,37.981L690.575,39.599L689.775,36.851L688.95,36.015L688.125,35.683L687.3,35.402L686.5,35.711L685.675,36.36L684.85,35.55L684.025,35.163L683.225,37.134L682.4,41.687L681.575,42.823L680.75,45.744L679.925,48.787L679.125,46.85L678.3,46.525L677.475,46.925L676.65,46.969L675.85,48.27L675.025,48.763L674.2,49.786L673.375,50.432L672.575,57.286L671.75,61.335L670.925,66.578L670.1,73.086L669.275,70.112L668.475,69.273L667.65,71.181L666.825,72.711L666,75.543L665.2,80.342L664.375,86.356L663.55,93.705L662.725,101.953L661.925,116.444L661.1,130.482L660.275,145.318L659.45,143.268L658.625,142.422L657.825,140.247L656.175,137.657L655.35,136.467L654.55,132.716L653.725,129.855L652.9,126.058L652.075,121.766L651.275,127.198L650.45,128.029L649.625,123.55L648.8,120.015L647.975,116.03L647.175,108.885L646.35,100.617L645.525,91.223L644.7,80.621L643.9,70.151L643.075,57.335L642.25,44.109L641.425,46.166L640.625,46.88L639.8,44.416L638.975,43.505L638.15,42.47L637.35,42.639L636.525,41.132L635.7,41.776L634.875,41.028L634.05,38.885L633.25,39.617L632.425,44.559L631.6,47.583L630.775,50.663L629.975,54.108L629.15,51.908L628.325,51.445L627.5,51.551L626.7,50.171L625.875,50.725L625.05,51.818L624.225,52.799L623.4,54.62L622.6,60.752L621.775,65.229L620.95,69.04L620.125,73.172L619.325,71.221L618.5,70.002L617.675,71.193L616.85,73.072L616.05,75.237L615.225,78.438L614.4,83L613.575,87.694L612.75,94.001L611.95,107.203L611.125,119.775L610.3,133.111L609.475,147.518L608.675,146.481L607.85,142.888L607.025,140.072L606.2,136.633L605.4,132.919L604.575,130.192L603.75,126.64L602.925,122.18L602.1,125.546L601.3,127.155L600.475,127.067L599.65,121.914L598.825,117.608L598.025,111.464L597.2,103.846L596.375,95.578L595.55,85.953L594.75,76.567L593.925,64.98L593.1,52.912L592.275,39.99L591.45,41.732L590.65,44.972L589.825,43.399L589,43.613L588.175,43.812L587.375,42.761L586.55,43.025L585.725,42.86L584.9,42.884L584.1,42.044L583.275,42.407L582.45,46.659L581.625,50.109L580.825,53.87L580,57.036L579.175,55.021L578.35,55.117L577.525,54.529L576.725,54.487L575.9,55.14L575.075,55.515L574.25,56.356L573.45,56.756L572.625,62.373L571.8,67.748L570.975,73.091L570.175,78.666L569.35,75.885L568.525,76.253L567.7,76.551L566.875,79.118L566.075,81.096L565.25,84.94L564.425,88.646L563.6,93.533L562.8,100.535L561.975,113.614L561.15,125.684L560.325,138.381L559.525,152.747L558.7,149.874L557.875,146.928L557.05,144.008L556.225,141.445L555.425,138.255L554.6,133.575L553.775,128.115L552.95,122.667L552.15,124.847L551.325,126.015L550.5,125.573L549.675,120.026L548.875,115.676L548.05,109.262L547.225,103.828L546.4,95.529L545.575,86.883L544.775,76.779L543.95,65.824L543.125,52.683L542.3,39.169L541.5,42.857L540.675,44.548L539.85,42.52L539.025,42.163L538.225,42.006L537.4,42.206L536.575,42.53L535.75,43.744L534.95,45.053L534.125,44.229L533.3,45.788L532.475,49.889L531.65,53.416L530.85,57.376L530.025,53.743L529.2,53.952L528.375,53.883L527.575,55.29L526.75,56.079L525.925,57.812L525.1,59.583L523.475,59.372L522.65,62.593L521.825,69.113L521,74.627L520.2,79.914L519.375,77.167L518.55,77.221L517.725,77.539L516.925,79.704L516.1,82.635L515.275,86.334L514.45,91.363L513.65,96.364L512.825,103.08L512,116.047L511.175,128.222L510.35,140.955L509.55,153.751L508.725,151.318L507.9,148.706L507.075,145.449L506.275,143.36L505.45,139.85L504.625,135.8L503.8,131.046L503,126.505L502.175,129.335L501.35,129.627L500.525,129.809L499.7,124.194L498.9,119.076L498.075,112.777L497.25,105.05L496.425,97.117L495.625,87.556L494.8,77.368L493.975,66.288L493.15,54.737L492.35,41.639L491.525,44.166L490.7,46.642L489.875,44.737L489.05,43.322L488.25,41.893L487.425,42.013L486.6,41.848L485.775,41.674L484.975,41.973L484.15,42.461L483.325,41.374L482.5,45.825L481.7,49.904L480.875,54.091L480.05,56.832L479.225,54.554L478.425,54.054L477.6,53.589L476.775,54.311L475.95,54.034L475.125,53.852L474.325,54.623L473.5,56.098L472.675,61.521L471.85,67.311L471.05,72.952L470.225,78.773L469.4,76.232L468.575,76.79L467.775,77.625L466.95,79.324L466.125,83.343L465.3,86.633L464.475,90.466L463.675,94.728L462.85,102.393L462.025,115.301L461.2,127.564L460.4,141.157L459.575,154.058L458.75,151.923L457.925,150.319L457.125,147.719L456.3,144.532L455.475,141.989L454.65,137.654L453.825,133.095L453.025,128.677L452.2,132.141L451.375,133.898L450.55,133.654L449.75,129.014L448.925,123.672L448.1,118.002L447.275,111.053L446.475,103.215L445.65,94.487L444.825,85.262L444,74.873L443.175,62.759L442.375,50.446L441.55,53.133L440.725,55.195L439.9,53.216L439.1,52.809L438.275,52.357L437.45,52.754L436.625,54.133L435.825,52.893L435,53.464L434.175,52.075L433.35,53.484L432.55,58.746L431.725,62.137L430.9,65.288L430.075,69.155L429.25,66.65L428.45,65.092L427.625,65.151L426.8,64.653L425.975,66.209L425.175,67.457L424.35,69.622L423.525,71.722L422.7,78.554L421.9,84.778L421.075,91.247L420.25,88.101L419.425,87.56L418.6,89.049L417.8,90.229L416.975,93.732L416.15,96.594L415.325,100.065L414.525,105.848L412.875,112.389L412.05,119.55L411.25,133.992L410.425,148.001L409.6,161.166L408.775,159.647L407.95,156.168L407.15,152.095L406.325,148.105L405.5,143.835L404.675,138.597L403.875,132.917L403.05,126.45L402.225,129.498L401.4,128.77L400.6,129.289L399.775,124.331L398.95,119.295L398.125,114.088L397.3,107.39L396.5,98.846L395.675,89.591L394.85,79.86L394.025,68.959L393.225,56.712L392.4,42.926L391.575,44.918L390.75,47.1L389.95,45.686L389.125,45.569L388.3,46.107L387.475,46.946L386.65,47.881L385.85,49.475L385.025,50.109L384.2,51.512L383.375,51.579L382.575,55.927L381.75,58.818L380.925,61.476L380.1,66.27L379.3,64.894L378.475,66.001L377.65,66.734L376.825,67.628L376.025,68.665L375.2,69.692L374.375,71.319L373.55,73.29L372.725,78.326L371.925,82.38L371.1,90.009L370.275,94.892L369.45,91.629L368.65,89.77L367.825,90.289L367,90.977L366.175,92.127L365.375,95.213L364.55,99.6L363.725,105.113L362.9,109.745L362.075,121.944L361.275,132.816L360.45,144.488L359.625,157.052L358.8,155.001L358,153.517L357.175,150.215L356.35,146.205L355.525,143.222L354.725,139.871L353.9,133.219L353.075,128.478L352.25,132.023L351.425,133.655L350.625,133.234L349.8,128.868L348.975,125.475L348.15,120.141L347.35,113.687L346.525,105.974L345.7,97.531L344.875,87.601L344.075,76.367L343.25,64.118L342.425,51.545L341.6,53.322L340.775,54.967L339.975,53.02L339.15,53.618L338.325,53.859L337.5,53.848L336.7,53.543L335.875,54.173L335.05,54.023L334.225,55.037L333.425,56.327L332.6,60.614L331.775,62.994L330.95,65.456L330.15,67.943L329.325,65.333L328.5,65.464L327.675,66.196L326.85,67.034L326.05,68.778L325.225,68.444L324.4,70.217L323.575,71.67L322.775,76.276L321.95,79.843L321.125,82.932L320.3,86.023L319.5,83.286L318.675,82.93L317.85,83.221L317.025,83.515L316.2,84.851L315.4,88.098L314.575,92.534L313.75,98.082L312.925,104.383L312.125,116.872L311.3,127.766L310.475,139.642L309.65,152.699L308.85,149.72L308.025,147.479L307.2,143.65L306.375,141.005L305.55,138.505L304.75,135.385L303.925,132.993L303.1,130.209L302.275,132.887L301.475,132.781L300.65,132.086L299.825,127.665L299,123.654L298.2,117.611L297.375,111.246L296.55,104.451L295.725,96.49L294.9,86.933L294.1,76.088L293.275,63.506L292.45,50.618L291.625,52.253L290.825,54.358L290,52.924L289.175,52.021L288.35,53.148L287.55,53.615L286.725,53.535L285.9,54.147L285.075,54.665L284.25,55.331L283.45,56.586L282.625,60.538L281.8,62.621L280.975,66.735L280.175,69.055L279.35,66.182L278.525,65.569L277.7,67.829L276.9,68.305L276.075,69.996L275.25,71.056L274.425,72.573L273.625,75.31L272.8,82.275L271.975,86.856L271.15,90.794L270.325,94.806L269.525,92.412L268.7,92.328L267.875,93.493L267.05,96.295L266.25,99.436L265.425,102.886L264.6,107.66L263.775,112.369L262.975,119.017L262.15,131.408L261.325,142.853L260.5,152.984L259.675,165.912L258.875,163.711L258.05,161.506L257.225,159.033L256.4,156.144L255.6,153.232L254.775,149.701L253.95,145.584L253.125,141.783L252.325,145.456L251.5,145.47L250.675,144.834L249.85,140.143L249.025,135.274L248.225,129.941L247.4,124.354L246.575,117.069L245.75,108.637L244.95,100.199L244.125,90.147L243.3,79.827L242.475,66.865L241.675,67.975L240.85,70.695L240.025,68.998L239.2,69.269L238.375,68.47L237.575,68.725L236.75,69.428L235.925,69.846L235.1,69.859L234.3,70.028L233.475,69.979L232.65,73.646L231.825,76.283L231.025,77.974L230.2,80.735L229.375,78.427L228.55,78.714L227.75,78.075L226.925,78.361L226.1,77.334L225.275,78.928L224.45,81.44L223.65,83.615L222.825,89.034L222,93.208L221.175,97.925L220.375,103.985L219.55,101.153L218.725,101.1L217.9,102.076L217.1,105.298L216.275,109.08L215.45,112.03L214.625,117.361L213.8,125.017L213,131.613L212.175,145.09L211.35,157.021L210.525,169.891L209.725,167.285L208.9,166.624L208.075,163.981L207.25,161.192L205.625,156.926L204.8,154.534L203.975,150.378L203.15,146.457L202.35,141.476L201.525,145.105L200.7,146.024L199.875,141.539L199.075,139.116L198.25,136.087L197.425,132.29L196.6,125.201L195.8,118.885L194.975,110.198L194.15,99.635L193.325,89.958L192.5,77.424L191.7,79.855L190.875,80.935L190.05,79.416L189.225,79.083L188.425,78.301L187.6,77.578L186.775,77.257L185.95,76.268L185.15,75.576L184.325,75.353L183.5,75.759L182.675,80.61L181.85,81.631L181.05,83.089L180.225,85.198L179.4,82.986L178.575,81.949L177.775,82.725L176.95,83.925L176.125,83.496L175.3,85.105L174.5,87.016L173.675,90.357L172.85,97.736L172.025,102.048L171.225,107.069L170.4,112.477L169.575,110.357L168.75,110.789L167.925,113.148L167.125,114.958L166.3,118.251L165.475,121.725L164.65,125.701L163.85,130.712L163.025,136.227L162.2,148.264L161.375,158.117L160.575,168.731L159.75,180.515L158.925,178.742L158.1,176.239L157.275,174.048L156.475,170.372L155.65,165.913L154.825,162.669L154,160.065L153.2,155.429L152.375,158.466L151.55,158.902L150.725,160.463L149.925,156.106L149.1,151.663L148.275,146.637L147.45,140.657L146.625,133.358L145.825,125.822L145,116.685L144.175,106.964L143.35,96.045L142.55,84.586L141.725,86.953L140.9,89.024L140.075,87.093L139.275,86.502L138.45,87.25L137.625,87.891L136.8,86.656L135.975,88.411L135.175,88.861L134.35,89.683L133.525,88.292L132.7,91.446L131.9,93.76L131.075,96.059L130.25,98.856L129.425,97.381L128.625,97.594L127.8,98.802L126.975,99.792L126.15,100.974L125.35,102.515L124.525,102.751L123.7,104.968L122.875,109.677L122.05,113.157L121.25,118.533L120.425,121.367L119.6,120.142L118.775,120.087L117.975,121.578L117.15,123.536L116.325,126.122L115.5,130.231L114.7,133.822L113.875,138.548L113.05,144.289L112.225,155.249L111.4,165.125L110.6,175.602L109.775,186.601L108.95,185.685L108.125,185.101L107.325,184.132L106.5,182.553L105.675,181.351L104.85,179.355L104.05,174.257L103.225,173.423L102.4,175.99L101.575,177.538L100.75,176.762L99.95,173.738L99.125,169.924L98.3,166.596L97.475,162.163L96.675,156.827L95.85,151.45L95.025,144.639L94.2,136.902L93.4,128.473L92.575,119.108L91.75,121.222L90.925,122.006L90.1,120.723L89.3,121.606L88.475,122.87L87.65,124.757L86.825,126.517L86.025,126.874L85.2,129.042L84.375,128.785L83.55,130.25L82.75,133.597L81.925,136.616L81.1,139.053L80.275,141.79L79.45,140.202L78.65,140.579L77.825,141.785L77,142.307L76.175,142.975L75.375,144.543L74.55,144.719L73.725,146.857L72.9,153.031L72.1,155.737L71.275,159.149L70.45,156.97L69.625,159.12L68.825,161.057L68,162.872L67.175,166.515L66.35,170.675L65.525,174.79L63.9,179.395L63.075,184.751L62.25,190.909L61.45,201.94L60.625,210.799L59.8,219.928L58.975,221.643L58.175,224.419L57.35,226.999L56.525,230.008L55.7,231.862L54.875,233.146L54.075,235.306L53.25,237.894L52.425,245.738L51.6,249.651L50.8,253.914L49.975,258.234L49.15,260.802L48.325,263.474L47.525,265.958L46.7,267.648L45.875,268.764L45.05,269.688L44.225,269.445L43.425,268.751L42.6,267.603L41.775,274.223L40.95,279.147L40.15,283.665L39.325,289.596L38.5,294.773L37.675,299.559L36.875,304.226L36.05,307.782L35.225,311.584L34.4,315.254L33.575,318.745L32.775,322.162L31.95,325.645L31.125,328.652L30.3,331.403L29.5,334.047L28.675,336.263L27.85,338.04L27.025,340.006L26.225,341.681L25.4,343.063L24.575,344.437L23.75,345.85L22.95,346.952L22.125,347.904L21.3,348.882L20.475,349.758L19.65,350.521L18.85,351.176L18.025,351.758L17.2,352.289L16.375,352.795L15.575,353.2L14.75,353.58L13.925,353.932L13.1,354.366L12.3,354.701L11.475,355.018L10.65,355.315L9.825,355.612L9,355.878L8.2,356.023L7.375,356.166L6.55,356.311L5.725,356.445L4.925,356.555L4.1,356.703L3.275,356.764L2.45,356.905L1.65,357.036L0.825,357.177Z" fill="#4c78a8" opacity="0.25"/></g></g><path class="foreground" aria-hidden="true" d="" display="none"/></g></g><g class="mark-group role-scope layer_1_pathgroup" role="graphics-object" aria-roledescription="group mark container"><g transform="translate(0,0)"><path class="background" aria-hidden="true" d="M0,0h1000v400h-1000Z"/><g><g class="mark-line role-mark layer_1_marks" clip-path="url(#clip2)" role="graphics-object" aria-roledescription="line mark container"><path aria-label="Training Steps (Millions): 0.33; smooth_iqm: −42.0526691007; Algorithm: standard; Step (M): 0.33; Smoothed IQM: −42.05; Seeds: 4; Total Values: 4" role="graphics-symbol" aria-roledescription="line mark" d="M0.825,357.425L1.65,357.266L2.45,357.123L3.275,356.975L4.1,356.9L4.925,356.768L5.725,356.672L6.55,356.53L7.375,356.381L8.2,356.238L9,356.107L9.825,355.866L10.65,355.562L11.475,355.273L12.3,354.952L13.1,354.612L13.925,354.212L14.75,353.883L15.575,353.513L16.375,353.138L17.2,352.662L18.025,352.159L18.85,351.653L19.65,351.039L20.475,350.399L21.3,349.693L22.125,348.824L22.95,347.883L23.75,347.046L24.575,345.706L25.4,344.364L26.225,343.008L27.025,341.475L27.85,339.678L28.675,338.03L29.5,335.945L30.3,333.45L31.125,330.698L31.95,327.974L32.775,324.998L33.575,322.136L34.4,318.711L35.225,315.117L36.05,311.762L36.875,308.441L37.675,304.289L38.5,299.844L39.325,295.334L40.15,290.491L40.95,286.281L41.775,281.968L42.6,275.405L43.425,276.523L44.225,277.098L45.05,277.258L45.875,276.19L46.7,275.044L47.525,273.273L48.325,270.757L49.15,268.681L49.975,266.276L50.8,261.851L51.6,258.35L52.425,254.591L53.25,246.821L54.075,244.665L54.875,243.002L55.7,241.711L56.525,240.144L57.35,236.293L58.175,233.391L58.975,230.672L59.8,229.827L60.625,221.433L61.45,213.221L62.25,202.96L63.075,197.388L63.9,192.242L65.525,187.837L66.35,183.721L67.175,179.311L68,175.364L68.825,173.522L69.625,170.716L70.45,168.705L71.275,170.711L72.1,166.992L72.9,163.29L73.725,157.542L74.55,154.527L75.375,154.479L76.175,152.873L77,151.455L77.825,150.144L78.65,148.582L79.45,147.929L80.275,149.154L81.1,146.147L81.925,143.846L82.75,141.411L83.55,138.962L84.375,137.032L85.2,137.006L86.025,134.746L86.825,134.921L87.65,133.992L88.475,131.939L89.3,130.925L90.1,130.336L90.925,131.767L91.75,131.21L92.575,129.091L93.4,138.252L94.2,146.729L95.025,154.368L95.85,160.857L96.675,166.129L97.475,171.085L98.3,175.616L99.125,178.684L99.95,182.177L100.75,184.687L101.575,185.933L102.4,184.741L103.225,181.984L104.05,183.489L104.85,187.352L105.675,189.904L106.5,190.869L107.325,192.395L108.125,192.693L108.95,193.016L109.775,193.878L110.6,183.492L111.4,173.382L112.225,164.516L113.05,153.739L113.875,148.193L114.7,143.768L115.5,140.329L116.325,136.687L117.15,134.166L117.975,132.224L118.775,130.782L119.6,130.711L120.425,132.787L121.25,128.739L122.05,123.617L122.875,120.116L123.7,115.878L124.525,113.522L125.35,113.781L126.15,112.327L126.975,111.031L127.8,110.354L128.625,108.922L129.425,108.283L130.25,110.227L131.075,107.174L131.9,105.067L132.7,102.888L133.525,100.243L134.35,101.027L135.175,100.41L135.975,99.808L136.8,98.363L137.625,99.077L138.45,99.281L139.275,98.946L140.075,99.568L140.9,101.15L141.725,99.693L142.55,96.769L143.35,107.992L144.175,118.693L145,127.591L145.825,136.759L146.625,143.79L147.45,150.447L148.275,156.465L149.1,161.124L149.925,165.29L150.725,168.774L151.55,167.921L152.375,167.737L153.2,164.337L154,168.606L154.825,171.561L155.65,174.869L156.475,178.662L157.275,181.806L158.1,183.92L158.925,186.239L159.75,188.101L160.575,176.687L161.375,166.846L162.2,156.98L163.025,144.916L163.85,139.417L164.65,134.525L165.475,130.902L166.3,127.878L167.125,125.027L167.925,123.921L168.75,122.087L169.575,121.567L170.4,123.641L171.225,119.128L172.025,113.594L172.85,108.64L173.675,101.548L174.5,98.833L175.3,96.922L176.125,95.218L176.95,95.387L177.775,94.686L178.575,94.028L179.4,94.999L180.225,97.2L181.05,95.542L181.85,94.751L182.675,93.475L183.5,88.381L184.325,88.03L185.15,87.233L185.95,87.115L186.775,88.072L187.6,88.269L188.425,87.921L189.225,88.887L190.05,89.801L190.875,91.783L191.7,90.418L192.5,87.954L193.325,99.929L194.15,109.477L194.975,119.234L195.8,127.165L196.6,133.495L197.425,140.69L198.25,144.162L199.075,146.737L199.875,149.089L200.7,153.356L201.525,151.724L202.35,148.477L203.15,153.319L203.975,156.915L204.8,161.364L205.625,163.662L207.25,167.543L208.075,169.894L208.9,172.853L209.725,173.648L210.525,176.369L211.35,163.963L212.175,152.028L213,138.464L213.8,132.087L214.625,125.08L215.45,119.548L216.275,116.849L217.1,113.615L217.9,111.102L218.725,110.567L219.55,111.051L220.375,113.642L221.175,107.687L222,103.201L222.825,98.978L223.65,93.755L224.45,91.518L225.275,89.451L226.1,87.442L226.925,87.701L227.75,87.165L228.55,87.833L229.375,88.604L230.2,91.598L231.025,89.282L231.825,87.36L232.65,85.376L233.475,81.893L234.3,81.789L235.1,80.736L235.925,80.907L236.75,79.947L237.575,79.394L238.375,79.457L239.2,80.001L240.025,79.913L240.85,81.935L241.675,79.979L242.475,78.408L243.3,90.733L244.125,101.055L244.95,110.854L245.75,118.893L246.575,126.459L247.4,133.383L248.225,138.234L249.025,143.436L249.85,147.812L250.675,151.907L251.5,152.243L252.325,153.19L253.125,148.764L253.95,152.772L254.775,157.026L255.6,160.475L256.4,162.999L257.225,165.934L258.05,167.937L258.875,169.784L259.675,171.723L260.5,159.012L261.325,148.88L262.15,138.331L262.975,126.072L263.775,119.854L264.6,115.04L265.425,110.972L266.25,108.098L267.05,105.164L267.875,102.461L268.7,101.16L269.525,100.782L270.325,103.411L271.15,99.531L271.975,95.633L272.8,91.196L273.625,84.933L274.425,82.011L275.25,80.729L276.075,79.622L276.9,78.005L277.7,78.094L278.525,76.483L279.35,76.726L280.175,79.726L280.975,76.88L281.8,73.26L282.625,70.757L283.45,66.331L284.25,64.825L285.075,64.248L285.9,63.702L286.725,62.647L287.55,62.779L288.35,62.583L289.175,61.846L290,61.981L290.825,63.356L291.625,61.309L292.45,59.861L293.275,72.318L294.1,84.712L294.9,94.835L295.725,103.876L296.55,111.32L297.375,118.03L298.2,124.561L299,130.262L299.825,134.227L300.65,138.724L301.475,139.819L302.275,140.395L303.1,137.677L303.925,142.17L304.75,145.37L305.55,148.641L306.375,151.038L307.2,153.994L308.025,157.217L308.85,159.197L309.65,161.951L310.475,149.716L311.3,138.4L312.125,127.651L312.925,115.248L313.75,108.978L314.575,103.716L315.4,99.116L316.2,95.729L317.025,94.472L317.85,93.85L318.675,93.49L319.5,93.612L320.3,96.553L321.125,92.042L321.95,88.121L322.775,83.837L323.575,78.783L324.4,77.138L325.225,75.508L326.05,76.424L326.85,74.915L327.675,74.093L328.5,72.967L329.325,72.738L330.15,75.505L330.95,73.301L331.775,70.647L332.6,68.211L333.425,63.852L334.225,62.248L335.05,61.478L335.875,61.234L336.7,60.266L337.5,60.503L338.325,60.382L339.15,59.862L339.975,59.346L340.775,61.415L341.6,60.037L342.425,58.322L343.25,70.239L344.075,82.04L344.875,92.486L345.7,102.293L346.525,110.691L347.35,118.028L348.15,124.347L348.975,129.63L349.8,132.936L350.625,137.648L351.425,138.458L352.25,137.11L353.075,133.601L353.9,139.065L354.725,145.268L355.525,148.811L356.35,151.98L357.175,156.346L358,159.393L358.8,161.256L359.625,163.432L360.45,151.149L361.275,139.65L362.075,129.068L362.9,116.914L363.725,112.261L364.55,107.208L365.375,103.452L366.175,100.208L367,99.213L367.825,98.314L368.65,97.635L369.45,98.848L370.275,102.325L371.1,96.735L371.925,89.702L372.725,85.392L373.55,80.271L374.375,77.94L375.2,76.588L376.025,75.65L376.825,74.642L377.65,73.605L378.475,73.1L379.3,71.634L380.1,73.083L380.925,68.499L381.75,65.534L382.575,62.378L383.375,58.042L384.2,58.092L385.025,56.717L385.85,56.72L386.65,55.769L387.475,55.391L388.3,54.979L389.125,54.312L389.95,54.403L390.75,55.844L391.575,53.601L392.4,51.727L393.225,64.684L394.025,76.578L394.85,87.378L395.675,96.742L396.5,106.054L397.3,114.417L398.125,121.225L398.95,126.754L399.775,131.449L400.6,136.221L401.4,135.8L402.225,136.641L403.05,132.748L403.875,139.108L404.675,144.568L405.5,149.294L406.325,153.673L407.15,157.713L407.95,161.768L408.775,165.073L409.6,166.289L410.425,153.521L411.25,139.887L412.05,125.452L412.875,118.679L414.525,112.544L415.325,107.338L416.15,103.679L416.975,100.716L417.8,96.96L418.6,96.148L419.425,94.678L420.25,94.921L421.075,98.161L421.9,91.244L422.7,84.62L423.525,78.391L424.35,75.874L425.175,73.715L425.975,73.067L426.8,72.178L427.625,72.579L428.45,72.169L429.25,73.837L430.075,77.671L430.9,74.308L431.725,72.029L432.55,68.887L433.35,63.913L434.175,62.721L435,64.23L435.825,63.81L436.625,65.012L437.45,63.973L438.275,63.791L439.1,64.227L439.9,64.828L440.725,66.831L441.55,64.837L442.375,62.218L443.175,73.736L444,85.205L444.825,95.513L445.65,104.839L446.475,113.069L447.275,119.608L448.1,125.87L448.925,130.271L449.75,135.03L450.55,139.708L451.375,139.957L452.2,138.162L453.025,134.331L453.825,138.531L454.65,143.253L455.475,147.211L456.3,150.113L457.125,153.106L457.925,155.693L458.75,158.229L459.575,160.42L460.4,147.97L461.2,134.852L462.025,122.511L462.85,109.738L463.675,102.281L464.475,98.325L465.3,94.761L466.125,91.717L466.95,88.226L467.775,86.176L468.575,85.55L469.4,85.368L470.225,87.992L471.05,82.631L471.85,76.624L472.675,71.155L473.5,65.467L474.325,63.96L475.125,62.66L475.95,62.215L476.775,62.137L477.6,61.213L478.425,61.855L479.225,62.612L480.05,65.741L480.875,63.496L481.7,59.377L482.5,54.988L483.325,50.225L484.15,50.944L484.975,51.954L485.775,51.555L486.6,52.35L487.425,53.331L488.25,53.258L489.05,55.053L489.875,56.526L490.7,58.35L491.525,56.233L492.35,53.543L493.15,66.128L493.975,77.668L494.8,88.574L495.625,98.18L496.425,107.485L497.25,114.314L498.075,121.541L498.9,127.546L499.7,132.591L500.525,138.51L501.35,139.031L502.175,137.731L503,134.383L503.8,138.186L504.625,142.255L505.45,145.662L506.275,148.777L507.075,150.865L507.9,154.311L508.725,156.864L509.55,159.31L510.35,147.034L511.175,135.236L512,123.863L512.825,110.84L513.65,104.252L514.45,99.301L515.275,94.314L516.1,90.626L516.925,88.043L517.725,85.71L518.55,84.497L519.375,83.945L520.2,87.091L521,81.833L521.825,76.105L522.65,70.176L523.475,67.059L525.1,67.042L525.925,65.331L526.75,63.777L527.575,63.182L528.375,61.548L529.2,60.87L530.025,60.324L530.85,64.344L531.65,60.474L532.475,56.948L533.3,52.609L534.125,51.09L534.95,52.157L535.75,51.022L536.575,50.056L537.4,49.754L538.225,49.152L539.025,49.673L539.85,50.812L540.675,52.727L541.5,50.916L542.3,47.358L543.125,60.511L543.95,72.902L544.775,83.609L545.575,93.518L546.4,102.049L547.225,110L548.05,115.087L548.875,121.465L549.675,125.752L550.5,131.264L551.325,131.672L552.15,129.849L552.95,127.462L553.775,133.141L554.6,138.828L555.425,143.443L556.225,146.889L557.05,149.163L557.875,152.024L558.7,154.755L559.525,157.61L560.325,144.035L561.15,131.569L561.975,119.958L562.8,106.912L563.6,100.061L564.425,95.355L565.25,91.734L566.075,88.381L566.875,86.896L567.7,84.772L568.525,84.919L569.35,85.112L570.175,88.237L570.975,82.551L571.8,77.088L572.625,71.941L573.45,65.337L574.25,64.344L575.075,63.154L575.9,62.921L576.725,62.192L577.525,62.351L578.35,62.901L579.175,62.439L580,65.323L580.825,62.641L581.625,58.989L582.45,55.604L583.275,50.67L584.1,50.034L584.9,50.535L585.725,50.134L586.55,50.176L587.375,50.214L588.175,50.705L589,50.688L589.825,50.702L590.65,52.931L591.45,50.226L592.275,48.933L593.1,61.716L593.925,73.604L594.75,84.323L595.55,93.596L596.375,103.143L597.2,110.654L598.025,117.61L598.825,123.484L599.65,128.038L600.475,133.407L601.3,133.737L602.1,132.329L602.925,128.862L603.75,133.618L604.575,137.837L605.4,141.189L606.2,144.849L607.025,148.003L607.85,150.65L608.675,153.756L609.475,154.847L610.3,141.05L611.125,127.791L611.95,115.544L612.75,102.426L613.575,96.612L614.4,92.157L615.225,88.276L616.05,85.207L616.85,83.168L617.675,81.66L618.5,80.546L619.325,81.833L620.125,84.615L620.95,79.705L621.775,74.937L622.6,70.126L623.4,63.682L624.225,61.58L625.05,60.372L625.875,59.314L626.7,58.444L627.5,59.205L628.325,59.466L629.15,60.238L629.975,62.812L630.775,59.503L631.6,56.144L632.425,52.672L633.25,47.549L634.05,46.574L634.875,48.129L635.7,49.043L636.525,48.392L637.35,49.256L638.15,49.251L638.975,49.992L639.8,50.746L640.625,53.364L641.425,52.748L642.25,50.925L643.075,64.039L643.9,76.625L644.7,87.104L645.525,97.419L646.35,106.217L647.175,113.99L647.975,120.57L648.8,124.437L649.625,127.837L650.45,132.408L651.275,137.533L652.075,132.14L652.9,135.982L653.725,140.47L654.55,143.547L655.35,147.536L656.175,148.794L657.825,151.717L658.625,153.983L659.45,155.158L660.275,156.78L661.1,142.203L661.925,128.582L662.725,121.68L663.55,113.979L664.375,107.729L665.2,102.287L666,98.522L666.825,96.391L667.65,94.827L668.475,94.073L669.275,88.792L670.1,91.939L670.925,85.134L671.75,79.064L672.575,74.703L673.375,67.656L674.2,66.978L675.025,65.839L675.85,65.474L676.65,64.121L677.475,64.232L678.3,64.761L679.125,64.642L679.925,59.334L680.75,56.097L681.575,52.454L682.4,57.581L683.225,52.167L684.025,50.043L684.85,50.696L685.675,50.385L686.5,56.28L687.3,56.308L688.125,57.044L688.95,57.533L689.775,58.278L690.575,61.107L691.4,59.787L692.225,57.432L693.05,70.095L693.85,83.477L694.675,94.579L695.5,108.096L696.325,117.602L697.15,125.803L697.95,132.587L698.775,138.237L699.6,134.449L700.425,139.876L701.225,141.948L702.05,140.61L702.875,137.12L703.7,136.185L704.5,140.824L705.325,146.183L706.15,149.737L706.975,152.954L707.8,155.3L708.6,156.8L709.425,165.393L710.25,151.981L711.075,139.266L711.875,126.627L712.7,110.118L713.525,104.561L714.35,99.573L715.15,95.462L715.975,92.993L716.8,90.648L717.625,90.434L718.45,89.78L719.25,89.62L720.075,93.061L720.9,86.944L721.725,80.43L722.525,75.091L723.35,80.674L724.175,78.79L725,77.989L725.8,77.906L726.625,71.052L727.45,71.102L728.275,70.153L729.1,70.922L729.9,79.562L730.725,76.297L731.55,73.194L732.375,70.054L733.175,65.145L734,65.771L734.825,63.888L735.65,70.909L736.45,71.899L737.275,72.676L738.1,74.378L738.925,86.274L739.75,87.13L740.55,78.166L741.375,76.245L742.2,74.973L743.025,88.054L743.825,99.947L744.65,110.708L745.475,121.614L746.3,130.406L747.1,132.109L747.925,138.509L748.75,143.732L749.575,148.142L750.375,153.579L751.2,152.966L752.025,153.126L752.85,142.359L753.675,147.664L754.475,152.16L755.3,154.972L756.125,148.346L756.95,151.117L757.75,153.699L758.575,156.584L759.4,158.301L760.225,143.411L761.025,130.514L761.85,115.827L762.675,107.886L763.5,102.197L764.325,96.682L765.125,97.22L765.95,102.523L766.775,100.631L767.6,98.844L769.225,99.492L770.05,99.204L770.875,108.036L771.675,101.407L772.5,94.798L773.325,87.754L774.15,85.651L774.975,85.027L775.775,84.121L776.6,82.496L777.425,90.572L778.25,92.48L779.05,92.375L779.875,94.907L780.7,102.528L781.525,98.628L782.325,95.945L783.15,86.281L783.975,82.741L784.8,82.412L785.625,81.542L786.425,79.626L787.25,79.104L788.075,82.865L788.9,82.575L789.7,82.846L790.525,85.207L791.35,82.416L792.175,79.522L792.975,92.434L793.8,104.544L794.625,105.784L795.45,114.613L796.25,123.615L797.075,131.68L797.9,128.246L798.725,133.9L799.55,138.02L800.35,148.302L801.175,142.936L802,141.74L802.825,138.683L803.625,147.919L804.45,156.803L805.275,151.446L806.1,156.244L806.9,160.027L807.725,161.93L808.55,164.465L809.375,166.063L810.2,152.916L811,139.563L811.825,127.466L812.65,114.304L813.475,108.626L814.275,104.786L815.1,100.805L815.925,97.333L816.75,95.791L817.55,89.632L818.375,89.218L819.2,95.426L820.025,98.07L820.85,95.131L821.65,85.12L822.475,79.834L823.3,72.648L824.125,70.529L824.925,70.712L825.75,70.935L826.575,71.182L827.4,70.375L828.2,70.164L829.025,69.947L829.85,72.642L830.675,75.064L831.5,71.092L832.3,67.374L833.125,62.973L833.95,61.369L834.775,59.82L835.575,58.459L836.4,52.282L837.225,52.15L838.05,46.022L838.85,46.552L839.675,46.856L840.5,48.219L841.325,55.568L842.15,52.584L842.95,65.284L843.775,77.098L844.6,90.71L845.425,101.32L846.225,110.884L847.05,118.537L847.875,118.915L848.7,123.995L849.5,128.431L850.325,133.877L851.15,134.299L851.975,140.859L852.775,138.373L853.6,146.502L854.425,157.945L855.25,170.812L856.075,176.372L856.875,179.912L857.7,184.275L858.525,177.654L859.35,180.848L860.15,173.17L860.975,169.671L861.8,155.118L862.625,141.899L863.425,136.481L864.25,131.522L865.075,127.319L865.9,123.578L866.725,122.663L867.525,120.683L868.35,120.799L869.175,120.952L870,123.791L870.8,115.337L871.625,103.179L872.45,88.668L873.275,80.7L874.075,85.204L874.9,83.845L875.725,83.462L876.55,83.997L877.375,78.579L878.175,69.563L879,69.713L879.825,79.411L880.65,76.004L881.45,72.148L882.275,69.65L883.1,65.608L883.925,63.663L884.725,63.09L885.55,62.094L886.375,55.053L887.2,55.239L888.025,55.369L888.825,56.627L889.65,63.958L890.475,66.763L891.3,58.567L892.1,55.75L892.925,68.411L893.75,79.232L894.575,89.577L895.375,102.308L896.2,111.491L897.025,112.39L897.85,122.678L898.65,133.642L899.475,137.898L900.3,148.702L901.125,148.881L901.95,148.638L902.75,145.708L903.575,152.437L904.4,157.358L905.225,159.704L906.025,165.018L906.85,161.834L907.675,165.952L908.5,176.711L909.3,184.954L910.125,172.087L910.95,159.757L911.775,147.706L912.6,132.943L913.4,130.928L914.225,126.642L915.05,119.829L915.875,111.378L916.675,109.825L917.5,102.735L918.325,102.544L919.15,102.113L919.95,104.148L920.775,112.364L921.6,115.041L922.425,111.78L923.25,114.422L924.05,120.134L924.875,117.127L925.7,108.989L926.525,104.12L927.325,102.468L928.15,102.088L928.975,110.438L929.8,111.681L930.6,110.92L931.425,113.359L932.25,115.364L933.075,111.076L933.9,116.226L934.7,125.978L935.525,132.745L936.35,153.504L937.175,160.749L937.975,155.903L938.8,148.208L939.625,158.743L940.45,160.427L941.25,150.543L942.075,148.358L942.9,163.415L943.725,177.369L944.55,191.747L945.35,201.633L946.175,202.741L947,214.577L947.825,214.548L948.625,220.907L949.45,219.057L950.275,224.228L951.1,227.113L951.9,229.436L952.725,234.501L953.55,227.119L954.375,232.121L955.175,231.225L956,235.214L956.825,237.053L957.65,238.447L958.475,246.456L959.275,248.281L960.1,236.442L960.925,220.742L961.75,212.528L962.55,199.09L963.375,194.287L964.2,190.997L965.025,200.025L965.825,195.383L966.65,193.076L967.475,210.499L968.3,207.558L969.125,204.507L969.925,198.285L970.75,185.954L971.575,184.41L972.4,181.411L973.2,189.121L974.025,179.734L974.85,181.8L975.675,176.131L976.475,176.646L977.3,171.834L978.125,171.439L978.95,165.343L979.775,168.168L980.575,173.296L981.4,164.251L982.225,158.274L983.05,147.869L983.85,153.426L984.675,135.404L985.5,147.623L986.325,148.145L987.125,142.573L987.95,151.978L988.775,142.627L989.6,136.635L990.425,134.651L991.225,131.835L992.05,124.405L992.875,127.57L993.7,130.714L994.5,135.119L995.325,140.487L996.15,146.698L996.975,153.95L997.775,147.711L998.6,156.886L999.425,150.343L1000.25,165.701" stroke="#4c78a8" stroke-width="2"/></g></g><path class="foreground" aria-hidden="true" d="" display="none"/></g></g><g class="mark-group role-legend" role="graphics-symbol" aria-roledescription="legend" aria-label="Symbol legend for fill color and stroke color with 1 value: standard"><g transform="translate(18,359)"><path class="background" aria-hidden="true" d="M3.5,0.5L62.5,0.5C64.155745073482,0.5,65.5,1.844254926518,65.5,3.5L65.5,20.5C65.5,22.155745073482,64.155745073482,23.5,62.5,23.5L3.5,23.5C1.844254926518,23.5,0.5,22.155745073482,0.5,20.5L0.5,3.5C0.5,1.844254926518,1.844254926518,0.5,3.5,0.5Z" pointer-events="none" fill="rgba(255,255,255,1)" stroke="gray"/><g><g class="mark-group role-legend-entry"><g transform="translate(5,5)"><path class="background" aria-hidden="true" d="M0,0h0v0h0Z" pointer-events="none"/><g><g class="mark-group role-scope" role="graphics-object" aria-roledescription="group mark container"><g transform="translate(0,0)"><path class="background" aria-hidden="true" d="M0,0h54.916015625v12.5h-54.916015625Z" pointer-events="none" opacity="1"/><g><g class="mark-symbol role-legend-symbol" pointer-events="none"><path transform="translate(6,6)" d="M5,0A5,5,0,1,1,-5,0A5,5,0,1,1,5,0" fill="#4c78a8" stroke="#4c78a8" stroke-width="1.5" opacity="1"/></g><g class="mark-text role-legend-label" pointer-events="none"><text text-anchor="start" transform="translate(16,9)" font-family="sans-serif" font-size="10px" fill="#000" opacity="1">standard</text></g></g><path class="foreground" aria-hidden="true" d="" pointer-events="none" display="none"/></g></g></g><path class="foreground" aria-hidden="true" d="" pointer-events="none" display="none"/></g></g></g><path class="foreground" aria-hidden="true" d="" pointer-events="none" display="none"/></g></g><g class="mark-group role-title"><g transform="translate(500,-22)"><path class="background" aria-hidden="true" d="M0,0h0v0h0Z" pointer-events="none"/><g><g class="mark-text role-title-text" role="graphics-symbol" aria-roledescription="title" aria-label="Title text 'Adam Standard: Charts/Mean Episodic Return (IQM)'" pointer-events="none"><text text-anchor="middle" transform="translate(0,10)" font-family="sans-serif" font-size="13px" font-weight="bold" fill="#000" opacity="1">Adam Standard: Charts/Mean Episodic Return (IQM)</text></g></g><path class="foreground" aria-hidden="true" d="" pointer-events="none" display="none"/></g></g></g><path class="foreground" aria-hidden="true" d="" display="none"/></g></g></g><defs><clipPath id="clip1"><rect x="0" y="0" width="1000" height="400"/></clipPath><clipPath id="clip2"><rect x="0" y="0" width="1000" height="400"/></clipPath></defs></svg>