<svg xmlns="http://www.w3.org/2000/svg" xmlns:xlink="http://www.w3.org/1999/xlink" version="1.1" class="marks" width="1059" height="464" viewBox="0 0 1059 464"><rect width="1059" height="464" fill="white"/><g fill="none" stroke-miterlimit="10" transform="translate(53,27)"><g class="mark-group role-frame root" role="graphics-object" aria-roledescription="group mark container"><g transform="translate(0,0)"><path class="background" aria-hidden="true" d="M0.5,0.5h1000v400h-1000Z" stroke="#ddd"/><g><g class="mark-group role-axis" aria-hidden="true"><g transform="translate(0.5,400.5)"><path class="background" aria-hidden="true" d="M0,0h0v0h0Z" pointer-events="none"/><g><g class="mark-rule role-axis-grid" pointer-events="none"><line transform="translate(0,-400)" x2="0" y2="400" stroke="#ddd" stroke-opacity="0.3" stroke-width="1" opacity="1"/><line transform="translate(50,-400)" x2="0" y2="400" stroke="#ddd" stroke-opacity="0.3" stroke-width="1" opacity="1"/><line transform="translate(100,-400)" x2="0" y2="400" stroke="#ddd" stroke-opacity="0.3" stroke-width="1" opacity="1"/><line transform="translate(150,-400)" x2="0" y2="400" stroke="#ddd" stroke-opacity="0.3" stroke-width="1" opacity="1"/><line transform="translate(200,-400)" x2="0" y2="400" stroke="#ddd" stroke-opacity="0.3" stroke-width="1" opacity="1"/><line transform="translate(250,-400)" x2="0" y2="400" stroke="#ddd" stroke-opacity="0.3" stroke-width="1" opacity="1"/><line transform="translate(300,-400)" x2="0" y2="400" stroke="#ddd" stroke-opacity="0.3" stroke-width="1" opacity="1"/><line transform="translate(350,-400)" x2="0" y2="400" stroke="#ddd" stroke-opacity="0.3" stroke-width="1" opacity="1"/><line transform="translate(400,-400)" x2="0" y2="400" stroke="#ddd" stroke-opacity="0.3" stroke-width="1" opacity="1"/><line transform="translate(450,-400)" x2="0" y2="400" stroke="#ddd" stroke-opacity="0.3" stroke-width="1" opacity="1"/><line transform="translate(500,-400)" x2="0" y2="400" stroke="#ddd" stroke-opacity="0.3" stroke-width="1" opacity="1"/><line transform="translate(550,-400)" x2="0" y2="400" stroke="#ddd" stroke-opacity="0.3" stroke-width="1" opacity="1"/><line transform="translate(600,-400)" x2="0" y2="400" stroke="#ddd" stroke-opacity="0.3" stroke-width="1" opacity="1"/><line transform="translate(650,-400)" x2="0" y2="400" stroke="#ddd" stroke-opacity="0.3" stroke-width="1" opacity="1"/><line transform="translate(700,-400)" x2="0" y2="400" stroke="#ddd" stroke-opacity="0.3" stroke-width="1" opacity="1"/><line transform="translate(750,-400)" x2="0" y2="400" stroke="#ddd" stroke-opacity="0.3" stroke-width="1" opacity="1"/><line transform="translate(800,-400)" x2="0" y2="400" stroke="#ddd" stroke-opacity="0.3" stroke-width="1" opacity="1"/><line transform="translate(850,-400)" x2="0" y2="400" stroke="#ddd" stroke-opacity="0.3" stroke-width="1" opacity="1"/><line transform="translate(900,-400)" x2="0" y2="400" stroke="#ddd" stroke-opacity="0.3" stroke-width="1" opacity="1"/><line transform="translate(950,-400)" x2="0" y2="400" stroke="#ddd" stroke-opacity="0.3" stroke-width="1" opacity="1"/><line transform="translate(1000,-400)" x2="0" y2="400" stroke="#ddd" stroke-opacity="0.3" stroke-width="1" opacity="1"/></g></g><path class="foreground" aria-hidden="true" d="" pointer-events="none" display="none"/></g></g><g class="mark-group role-axis" aria-hidden="true"><g transform="translate(0.5,0.5)"><path class="background" aria-hidden="true" d="M0,0h0v0h0Z" pointer-events="none"/><g><g class="mark-rule role-axis-grid" pointer-events="none"><line transform="translate(0,400)" x2="1000" y2="0" stroke="#ddd" stroke-opacity="0.3" stroke-width="1" opacity="1"/><line transform="translate(0,350)" x2="1000" y2="0" stroke="#ddd" stroke-opacity="0.3" stroke-width="1" opacity="1"/><line transform="translate(0,300)" x2="1000" y2="0" stroke="#ddd" stroke-opacity="0.3" stroke-width="1" opacity="1"/><line transform="translate(0,250)" x2="1000" y2="0" stroke="#ddd" stroke-opacity="0.3" stroke-width="1" opacity="1"/><line transform="translate(0,200)" x2="1000" y2="0" stroke="#ddd" stroke-opacity="0.3" stroke-width="1" opacity="1"/><line transform="translate(0,150)" x2="1000" y2="0" stroke="#ddd" stroke-opacity="0.3" stroke-width="1" opacity="1"/><line transform="translate(0,100)" x2="1000" y2="0" stroke="#ddd" stroke-opacity="0.3" stroke-width="1" opacity="1"/><line transform="translate(0,50)" x2="1000" y2="0" stroke="#ddd" stroke-opacity="0.3" stroke-width="1" opacity="1"/><line transform="translate(0,0)" x2="1000" y2="0" stroke="#ddd" stroke-opacity="0.3" stroke-width="1" opacity="1"/></g></g><path class="foreground" aria-hidden="true" d="" pointer-events="none" display="none"/></g></g><g class="mark-group role-axis" role="graphics-symbol" aria-roledescription="axis" aria-label="X-axis titled 'Training Steps (Millions)' for a linear scale with values from 0 to 400"><g transform="translate(0.5,400.5)"><path class="background" aria-hidden="true" d="M0,0h0v0h0Z" pointer-events="none"/><g><g class="mark-rule role-axis-tick" pointer-events="none"><line transform="translate(0,0)" x2="0" y2="5" stroke="#888" stroke-width="1" opacity="1"/><line transform="translate(50,0)" x2="0" y2="5" stroke="#888" stroke-width="1" opacity="1"/><line transform="translate(100,0)" x2="0" y2="5" stroke="#888" stroke-width="1" opacity="1"/><line transform="translate(150,0)" x2="0" y2="5" stroke="#888" stroke-width="1" opacity="1"/><line transform="translate(200,0)" x2="0" y2="5" stroke="#888" stroke-width="1" opacity="1"/><line transform="translate(250,0)" x2="0" y2="5" stroke="#888" stroke-width="1" opacity="1"/><line transform="translate(300,0)" x2="0" y2="5" stroke="#888" stroke-width="1" opacity="1"/><line transform="translate(350,0)" x2="0" y2="5" stroke="#888" stroke-width="1" opacity="1"/><line transform="translate(400,0)" x2="0" y2="5" stroke="#888" stroke-width="1" opacity="1"/><line transform="translate(450,0)" x2="0" y2="5" stroke="#888" stroke-width="1" opacity="1"/><line transform="translate(500,0)" x2="0" y2="5" stroke="#888" stroke-width="1" opacity="1"/><line transform="translate(550,0)" x2="0" y2="5" stroke="#888" stroke-width="1" opacity="1"/><line transform="translate(600,0)" x2="0" y2="5" stroke="#888" stroke-width="1" opacity="1"/><line transform="translate(650,0)" x2="0" y2="5" stroke="#888" stroke-width="1" opacity="1"/><line transform="translate(700,0)" x2="0" y2="5" stroke="#888" stroke-width="1" opacity="1"/><line transform="translate(750,0)" x2="0" y2="5" stroke="#888" stroke-width="1" opacity="1"/><line transform="translate(800,0)" x2="0" y2="5" stroke="#888" stroke-width="1" opacity="1"/><line transform="translate(850,0)" x2="0" y2="5" stroke="#888" stroke-width="1" opacity="1"/><line transform="translate(900,0)" x2="0" y2="5" stroke="#888" stroke-width="1" opacity="1"/><line transform="translate(950,0)" x2="0" y2="5" stroke="#888" stroke-width="1" opacity="1"/><line transform="translate(1000,0)" x2="0" y2="5" stroke="#888" stroke-width="1" opacity="1"/></g><g class="mark-text role-axis-label" pointer-events="none"><text text-anchor="start" transform="translate(0,15)" font-family="sans-serif" font-size="10px" fill="#000" opacity="1">0</text><text text-anchor="middle" transform="translate(50,15)" font-family="sans-serif" font-size="10px" fill="#000" opacity="1">20</text><text text-anchor="middle" transform="translate(100,15)" font-family="sans-serif" font-size="10px" fill="#000" opacity="1">40</text><text text-anchor="middle" transform="translate(150,15)" font-family="sans-serif" font-size="10px" fill="#000" opacity="1">60</text><text text-anchor="middle" transform="translate(200,15)" font-family="sans-serif" font-size="10px" fill="#000" opacity="1">80</text><text text-anchor="middle" transform="translate(250,15)" font-family="sans-serif" font-size="10px" fill="#000" opacity="1">100</text><text text-anchor="middle" transform="translate(300,15)" font-family="sans-serif" font-size="10px" fill="#000" opacity="1">120</text><text text-anchor="middle" transform="translate(350,15)" font-family="sans-serif" font-size="10px" fill="#000" opacity="1">140</text><text text-anchor="middle" transform="translate(400,15)" font-family="sans-serif" font-size="10px" fill="#000" opacity="1">160</text><text text-anchor="middle" transform="translate(450,15)" font-family="sans-serif" font-size="10px" fill="#000" opacity="1">180</text><text text-anchor="middle" transform="translate(500,15)" font-family="sans-serif" font-size="10px" fill="#000" opacity="1">200</text><text text-anchor="middle" transform="translate(550,15)" font-family="sans-serif" font-size="10px" fill="#000" opacity="1">220</text><text text-anchor="middle" transform="translate(600,15)" font-family="sans-serif" font-size="10px" fill="#000" opacity="1">240</text><text text-anchor="middle" transform="translate(650,15)" font-family="sans-serif" font-size="10px" fill="#000" opacity="1">260</text><text text-anchor="middle" transform="translate(700,15)" font-family="sans-serif" font-size="10px" fill="#000" opacity="1">280</text><text text-anchor="middle" transform="translate(750,15)" font-family="sans-serif" font-size="10px" fill="#000" opacity="1">300</text><text text-anchor="middle" transform="translate(800,15)" font-family="sans-serif" font-size="10px" fill="#000" opacity="1">320</text><text text-anchor="middle" transform="translate(850,15)" font-family="sans-serif" font-size="10px" fill="#000" opacity="1">340</text><text text-anchor="middle" transform="translate(900,15)" font-family="sans-serif" font-size="10px" fill="#000" opacity="1">360</text><text text-anchor="middle" transform="translate(950,15)" font-family="sans-serif" font-size="10px" fill="#000" opacity="1">380</text><text text-anchor="end" transform="translate(1000,15)" font-family="sans-serif" font-size="10px" fill="#000" opacity="1">400</text></g><g class="mark-rule role-axis-domain" pointer-events="none"><line transform="translate(0,0)" x2="1000" y2="0" stroke="#888" stroke-width="1" opacity="1"/></g><g class="mark-text role-axis-title" pointer-events="none"><text text-anchor="middle" transform="translate(500,30)" font-family="sans-serif" font-size="11px" font-weight="bold" fill="#000" opacity="1">Training Steps (Millions)</text></g></g><path class="foreground" aria-hidden="true" d="" pointer-events="none" display="none"/></g></g><g class="mark-group role-axis" role="graphics-symbol" aria-roledescription="axis" aria-label="Y-axis titled 'Charts/Mean Episodic Return' for a linear scale with values from 0 to 8,000"><g transform="translate(0.5,0.5)"><path class="background" aria-hidden="true" d="M0,0h0v0h0Z" pointer-events="none"/><g><g class="mark-rule role-axis-tick" pointer-events="none"><line transform="translate(0,400)" x2="-5" y2="0" stroke="#888" stroke-width="1" opacity="1"/><line transform="translate(0,350)" x2="-5" y2="0" stroke="#888" stroke-width="1" opacity="1"/><line transform="translate(0,300)" x2="-5" y2="0" stroke="#888" stroke-width="1" opacity="1"/><line transform="translate(0,250)" x2="-5" y2="0" stroke="#888" stroke-width="1" opacity="1"/><line transform="translate(0,200)" x2="-5" y2="0" stroke="#888" stroke-width="1" opacity="1"/><line transform="translate(0,150)" x2="-5" y2="0" stroke="#888" stroke-width="1" opacity="1"/><line transform="translate(0,100)" x2="-5" y2="0" stroke="#888" stroke-width="1" opacity="1"/><line transform="translate(0,50)" x2="-5" y2="0" stroke="#888" stroke-width="1" opacity="1"/><line transform="translate(0,0)" x2="-5" y2="0" stroke="#888" stroke-width="1" opacity="1"/></g><g class="mark-text role-axis-label" pointer-events="none"><text text-anchor="end" transform="translate(-7,403)" font-family="sans-serif" font-size="10px" fill="#000" opacity="1">0</text><text text-anchor="end" transform="translate(-7,353)" font-family="sans-serif" font-size="10px" fill="#000" opacity="1">1,000</text><text text-anchor="end" transform="translate(-7,303)" font-family="sans-serif" font-size="10px" fill="#000" opacity="1">2,000</text><text text-anchor="end" transform="translate(-7,253)" font-family="sans-serif" font-size="10px" fill="#000" opacity="1">3,000</text><text text-anchor="end" transform="translate(-7,203)" font-family="sans-serif" font-size="10px" fill="#000" opacity="1">4,000</text><text text-anchor="end" transform="translate(-7,153)" font-family="sans-serif" font-size="10px" fill="#000" opacity="1">5,000</text><text text-anchor="end" transform="translate(-7,103)" font-family="sans-serif" font-size="10px" fill="#000" opacity="1">6,000</text><text text-anchor="end" transform="translate(-7,53)" font-family="sans-serif" font-size="10px" fill="#000" opacity="1">7,000</text><text text-anchor="end" transform="translate(-7,3)" font-family="sans-serif" font-size="10px" fill="#000" opacity="1">8,000</text></g><g class="mark-rule role-axis-domain" pointer-events="none"><line transform="translate(0,400)" x2="0" y2="-400" stroke="#888" stroke-width="1" opacity="1"/></g><g class="mark-text role-axis-title" pointer-events="none"><text text-anchor="middle" transform="translate(-36.0244140625,200) rotate(-90) translate(0,-2)" font-family="sans-serif" font-size="11px" font-weight="bold" fill="#000" opacity="1">Charts/Mean Episodic Return</text></g></g><path class="foreground" aria-hidden="true" d="" pointer-events="none" display="none"/></g></g><g class="mark-group role-scope view_1_pathgroup" role="graphics-object" aria-roledescription="group mark container"><g transform="translate(0,0)"><path class="background" aria-hidden="true" d="M0,0h1000v400h-1000Z"/><g><g class="mark-area role-mark view_1_marks" clip-path="url(#clip1)" role="graphics-object" aria-roledescription="area mark container"><path aria-label="Training Steps (Millions): 0.52; Charts/Mean Episodic Return: 99.1320576668; smooth_q75: 99.1320576668; Algorithm: adam" role="graphics-symbol" aria-roledescription="area mark" d="M1.3,395.043L14.425,392.823L18.35,390.128L19.65,387.516L23.6,384.51L24.9,379.925L30.15,375.226L32.775,370.672L38,365.1L39.325,358.921L45.875,353.143L49.8,344.123L53.75,335.043L55.05,324.699L57.675,313.697L64.225,301.806L66.85,289.252L68.15,276.662L74.7,263.356L78.65,259.167L79.95,249.253L82.575,234.264L83.875,225.453L91.75,212.92L94.375,199.851L104.85,186.512L111.4,174.148L112.725,162.775L119.275,151.35L129.75,142.157L133.7,133.762L136.325,125.697L148.1,118.628L166.45,111.656L193.975,110.427L204.475,107.903L208.4,106.095L217.575,103.066L218.9,99.516L220.2,98.571L225.45,88.737L242.475,83.285L247.725,83.996L250.35,78.482L264.775,77.734L272.625,77.54L273.95,78.122L279.175,79.101L280.5,78.594L283.125,79.016L284.425,77.788L289.675,76.699L297.525,76.2L298.85,74.761L306.7,74.415L309.325,69.224L313.25,65.82L315.875,61.002L335.55,62.131L346.025,62.534L348.65,61.926L349.95,59.617L352.575,57.203L353.9,56.877L356.525,56.086L364.375,54.941L372.25,53.857L386.65,52.637L394.525,51.39L395.825,51.533L402.4,50.433L406.325,50.01L407.625,49.753L408.95,48.966L415.5,48.219L424.675,47.812L425.975,46.776L433.85,60.755L436.475,73.8L444.325,78.345L445.65,75.769L465.3,78.453L471.85,80.946L486.275,80.933L488.9,82.481L491.525,83.48L499.375,83.862L503.325,84.202L504.625,85.685L507.25,87.482L521.675,88.56L522.975,88.473L525.6,89.109L532.15,89.969L533.475,90.643L540.025,91.122L547.875,91.19L549.2,92.049L554.425,78.084L557.05,67.073L558.375,69.156L562.3,76.156L567.55,73.289L571.475,68.802L575.4,72.551L583.275,70.347L595.075,67.236L596.375,68.279L601.625,69.927L602.925,69.351L630.45,68.452L637,65.617L644.875,68.467L646.175,69.604L651.425,70.534L654.05,70.207L656.675,69.602L657.975,69.83L659.3,70.44L664.525,71.26L665.85,71.589L667.15,63.096L668.475,58.532L669.775,57.75L671.1,60.666L675.025,58.862L677.65,58.373L678.95,60.448L680.275,58.888L682.875,56.572L689.45,55.342L696,54.114L698.625,55.172L699.925,52.402L702.55,50.684L705.175,48.488L706.475,47.388L714.35,48.282L715.65,50.268L716.975,47.451L720.9,47.073L730.075,45.687L731.375,45.175L734,43.595L736.625,40.846L745.8,38.969L748.425,36.279L749.725,36.035L760.225,34.6L772.025,33.37L778.575,31.999L790.375,29.891L794.3,29.113L800.85,28.45L803.475,27.478L810.025,26.695L812.65,27.126L815.275,27.184L819.2,26.473L827.075,23.43L829.675,23.549L833.625,36.792L836.25,39.081L837.55,36.591L841.475,39.473L842.8,42.2L846.725,42.976L850.65,44.572L853.275,43.711L858.525,44.889L863.775,45.092L878.175,45.714L884.725,46.436L907.025,46.252L908.325,45.794L910.95,44.768L914.875,44.619L925.375,43.788L926.675,43.109L931.925,43.044L941.1,42.298L945.025,43.531L962.075,29.174L964.7,27.117L967.3,29.616L968.625,26.73L973.875,25.18L975.175,23.036L977.8,23.505L980.425,25.25L981.725,25.214L1000.075,24.788L1039.4,23.45L1047.275,25.039L1048.575,26.571L1049.875,27.973L1051.2,29.514L1052.5,30.377L1056.45,30.605L1064.3,31.751L1065.625,31.8L1069.55,39.568L1082.65,45.372L1083.975,46.383L1085.275,46.609L1086.575,43.872L1091.825,43.876L1099.7,45.677L1106.25,47.204L1115.425,44.816L1120.675,44.309L1132.45,44.287L1139.025,44.489L1150.8,45.168L1152.125,42.519L1157.375,40.757L1171.775,39.786L1182.275,38.134L1183.575,37.537L1187.5,37.223L1188.825,36.949L1190.125,51.546L1195.375,47.215L1196.675,44.758L1198,46.732L1207.175,46.184L1211.1,46.205L1218.975,49.125L1224.2,50.436L1245.175,51.756L1250.425,53.213L1253.05,52.894L1259.6,52.504L1266.15,51.97L1267.475,51.746L1270.1,52.597L1271.4,52.459L1272.7,50.916L1283.2,52.467L1285.825,52.152L1301.55,52.06L1313.35,51.52L1314.65,36.412L1319.9,32.94L1321.2,29.143L1325.15,25.567L1329.075,24.108L1333,25.652L1335.625,24.259L1340.875,24.383L1347.425,20.77L1351.35,21.911L1355.275,20.015L1360.525,17.45L1368.4,18.726L1372.325,17.499L1373.625,17.68L1374.95,16.255L1385.425,17.082L1393.3,16.31L1397.225,17.849L1403.775,18.047L1406.4,18.486L1407.725,19.724L1409.025,19.215L1428.675,17.75L1436.55,17.874L1437.85,18.45L1444.425,17.533L1445.725,15.204L1450.975,10.82L1453.6,12.064L1460.15,10.781L1461.45,28.568L1468,45.216L1469.325,50.98L1470.625,57.391L1474.55,59.696L1477.175,70.008L1482.425,75.803L1487.675,78.768L1498.15,75.496L1500.775,79.095L1502.075,80.268L1503.4,82.677L1507.325,84.787L1508.65,84.74L1509.95,85.286L1512.575,87.641L1516.5,88.901L1519.125,90.08L1521.75,91.421L1525.675,92.657L1529.6,93.422L1534.85,76.127L1537.475,60.979L1542.725,54.001L1550.575,48.706L1554.525,46.372L1565,37.064L1574.175,31.291L1575.475,33.213L1576.8,33.081L1584.65,27.544L1601.7,29.423L1609.575,29.308L1610.875,26.065L1617.425,27.898L1621.35,27.027L1622.675,26.098L1625.3,24.28L1633.15,23.327L1635.775,23.368L1646.275,22.947L1648.875,21.645L1650.2,21.24L1656.75,21.033L1664.625,21.417L1665.925,21.403L1672.475,21.058L1677.725,20.142L1685.575,20.765L1689.525,16.122L1690.825,17.483L1693.45,18.805L1694.75,15.074L1696.075,11.621L1698.7,12.618L1701.325,11.734L1706.55,10.939L1707.875,8.979L1710.5,25.191L1717.05,34.934L1722.275,35.013L1724.9,37.629L1727.525,36.906L1731.45,35.521L1740.625,38.183L1744.575,39.299L1745.875,40.41L1751.125,41.735L1753.75,43.265L1756.375,42.632L1770.775,42.305L1777.325,40.846L1781.275,42.247L1782.575,42.253L1783.9,41.897L1786.5,40.8L1789.125,41.832L1799.625,43.422L1800.925,44.213L1810.1,29.108L1811.425,17.734L1812.725,17.445L1815.35,14.235L1820.6,15.008L1821.9,17.058L1823.2,14.292L1827.15,12.568L1829.775,11.163L1837.625,9.953L1841.55,10.042L1844.175,10.01L1845.5,9.849L1848.125,10.13L1849.425,16.263L1852.05,18.288L1853.35,23.159L1855.975,26.157L1857.3,25.74L1861.225,26.272L1865.15,27.275L1867.775,28.12L1871.7,28.915L1874.325,26.36L1882.2,29.004L1884.825,29.418L1890.05,29.7L1894,30.281L1895.3,31.093L1901.85,31.667L1903.175,31.776L1904.475,31.236L1905.775,29.874L1907.1,30.102L1909.725,31.078L1924.125,41.028L1933.3,53.812L1950.35,58.92L1951.65,61.916L1972.625,59.798L1975.25,60.354L1976.575,60.556L1988.35,57.883L1993.6,59.531L1996.225,62.032L2001.475,58.718L2002.775,58.871L2005.4,56.547L2013.275,57.608L2021.125,58.534L2026.375,58.312L2027.675,56.906L2031.625,58.818L2036.85,61.039L2038.175,59.599L2040.8,58.471L2048.65,41.557L2061.775,26.696L2064.375,16.941L2065.7,13.8L2069.625,16.051L2072.25,14.467L2073.55,13.277L2074.875,15.89L2082.725,29.859L2093.225,32.614L2095.85,35.435L2097.15,36.534L2101.075,39.698L2106.325,36.474L2108.95,39.061L2110.25,42.665L2119.425,46.398L2126,44.383L2128.6,42.872L2139.1,44.447L2141.725,46.457L2143.025,44.353L2144.35,44.711L2146.95,44.625L2148.275,42.776L2149.575,41.78L2152.2,41.609L2156.125,41.14L2166.625,39.901L2169.25,24.302L2170.55,20.275L2178.425,17.986L2179.725,16.119L2181.05,13.954L2184.975,15.439L2186.275,12.347L2191.525,9.597L2192.825,7.376L2202,10.086L2205.95,8.907L2211.175,15.997L2212.5,23.02L2213.8,27.064L2216.425,28.352L2226.925,29.033L2232.15,30.592L2233.475,32.471L2237.4,33.063L2259.675,34.203L2261,34.964L2262.3,35.873L2263.625,37.285L2267.55,36.081L2268.85,36.756L2280.65,37.103L2296.375,38.12L2297.7,37.519L2306.875,36.974L2317.35,37.744L2319.975,35.765L2321.275,38.032L2329.15,30.534L2333.075,30.026L2334.4,30.485L2338.325,30.536L2346.2,31.906L2350.125,32.14L2351.425,32.152L2355.375,30.661L2360.6,29.201L2365.85,29.711L2368.475,30.475L2388.125,29.512L2399.925,31.315L2411.725,31.675L2413.025,32.125L2426.15,31.792L2428.775,31.205L2436.625,30.798L2447.125,29.45L2448.425,28.438L2451.05,28.291L2456.3,29.458L2461.525,22.685L2470.7,20.066L2472.025,18.364L2474.65,16.325L2490.375,14.9L2493,13.163L2494.3,14.393L2498.225,15.708L2500.85,14.467L2500.85,14.467L2498.225,15.708L2494.3,14.393L2493,13.163L2490.375,14.9L2474.65,16.325L2472.025,18.364L2470.7,20.066L2461.525,22.685L2456.3,29.458L2451.05,28.291L2448.425,28.438L2447.125,29.45L2436.625,30.798L2428.775,31.205L2426.15,31.792L2413.025,32.125L2411.725,31.675L2399.925,31.315L2388.125,29.512L2368.475,30.475L2365.85,29.711L2360.6,29.201L2355.375,30.661L2351.425,32.152L2350.125,32.14L2346.2,31.906L2338.325,30.536L2334.4,30.485L2333.075,30.026L2329.15,30.534L2321.275,38.032L2319.975,35.765L2317.35,37.744L2306.875,36.974L2297.7,37.519L2296.375,38.12L2280.65,37.103L2268.85,36.756L2267.55,36.081L2263.625,37.285L2262.3,35.873L2261,34.964L2259.675,34.203L2237.4,33.063L2233.475,32.471L2232.15,30.592L2226.925,29.033L2216.425,28.352L2213.8,27.064L2212.5,23.02L2211.175,15.997L2205.95,8.907L2202,10.086L2192.825,7.376L2191.525,9.597L2186.275,12.347L2184.975,15.439L2181.05,13.954L2179.725,16.119L2178.425,17.986L2170.55,20.275L2169.25,24.302L2166.625,39.901L2156.125,41.14L2152.2,41.609L2149.575,41.78L2148.275,42.776L2146.95,44.625L2144.35,44.711L2143.025,44.353L2141.725,46.457L2139.1,44.447L2128.6,42.872L2126,44.383L2119.425,46.398L2110.25,42.665L2108.95,39.061L2106.325,36.474L2101.075,39.698L2097.15,36.534L2095.85,35.435L2093.225,32.614L2082.725,29.859L2074.875,15.89L2073.55,13.277L2072.25,14.467L2069.625,16.051L2065.7,13.8L2064.375,16.941L2061.775,26.696L2048.65,41.557L2040.8,58.471L2038.175,59.599L2036.85,61.039L2031.625,58.818L2027.675,56.906L2026.375,58.312L2021.125,58.534L2013.275,57.608L2005.4,56.547L2002.775,58.871L2001.475,58.718L1996.225,62.032L1993.6,59.531L1988.35,57.883L1976.575,60.556L1975.25,60.354L1972.625,59.798L1951.65,61.916L1950.35,58.92L1933.3,53.812L1924.125,41.028L1909.725,31.078L1907.1,30.102L1905.775,29.874L1904.475,31.236L1903.175,31.776L1901.85,31.667L1895.3,31.093L1894,30.281L1890.05,29.7L1884.825,29.418L1882.2,29.004L1874.325,26.36L1871.7,28.915L1867.775,28.12L1865.15,27.275L1861.225,26.272L1857.3,25.74L1855.975,26.157L1853.35,23.159L1852.05,18.288L1849.425,16.263L1848.125,10.13L1845.5,9.849L1844.175,10.01L1841.55,10.042L1837.625,9.953L1829.775,11.163L1827.15,12.568L1823.2,14.292L1821.9,17.058L1820.6,15.008L1815.35,14.235L1812.725,17.445L1811.425,17.734L1810.1,29.108L1800.925,44.213L1799.625,43.422L1789.125,41.832L1786.5,40.8L1783.9,41.897L1782.575,42.253L1781.275,42.247L1777.325,40.846L1770.775,42.305L1756.375,42.632L1753.75,43.265L1751.125,41.735L1745.875,40.41L1744.575,39.299L1740.625,38.183L1731.45,35.521L1727.525,36.906L1724.9,37.629L1722.275,35.013L1717.05,34.934L1710.5,25.191L1707.875,8.979L1706.55,10.939L1701.325,11.734L1698.7,12.618L1696.075,11.621L1694.75,15.074L1693.45,18.805L1690.825,17.483L1689.525,16.122L1685.575,20.765L1677.725,20.142L1672.475,21.058L1665.925,21.403L1664.625,21.417L1656.75,21.033L1650.2,21.24L1648.875,21.645L1646.275,22.947L1635.775,23.368L1633.15,23.327L1625.3,24.28L1622.675,26.098L1621.35,27.027L1617.425,27.898L1610.875,26.065L1609.575,29.308L1601.7,29.423L1584.65,27.544L1576.8,33.081L1575.475,33.213L1574.175,31.291L1565,37.064L1554.525,46.372L1550.575,48.706L1542.725,54.001L1537.475,60.979L1534.85,76.127L1529.6,93.422L1525.675,92.657L1521.75,91.421L1519.125,90.08L1516.5,88.901L1512.575,87.641L1509.95,85.286L1508.65,84.74L1507.325,84.787L1503.4,82.677L1502.075,80.268L1500.775,79.095L1498.15,75.496L1487.675,78.768L1482.425,75.803L1477.175,70.008L1474.55,59.696L1470.625,57.391L1469.325,50.98L1468,45.216L1461.45,28.568L1460.15,10.781L1453.6,12.064L1450.975,10.82L1445.725,15.204L1444.425,17.533L1437.85,18.45L1436.55,17.874L1428.675,17.75L1409.025,19.215L1407.725,19.724L1406.4,18.486L1403.775,18.047L1397.225,17.849L1393.3,16.31L1385.425,17.082L1374.95,16.255L1373.625,17.68L1372.325,17.499L1368.4,18.726L1360.525,17.45L1355.275,20.015L1351.35,21.911L1347.425,20.77L1340.875,24.383L1335.625,24.259L1333,25.652L1329.075,24.108L1325.15,25.567L1321.2,29.143L1319.9,32.94L1314.65,36.412L1313.35,51.52L1301.55,52.06L1285.825,52.152L1283.2,52.467L1272.7,50.916L1271.4,52.459L1270.1,52.597L1267.475,51.746L1266.15,51.97L1259.6,52.504L1253.05,52.894L1250.425,53.213L1245.175,51.756L1224.2,50.436L1218.975,49.125L1211.1,46.205L1207.175,46.184L1198,46.732L1196.675,44.758L1195.375,47.215L1190.125,51.546L1188.825,36.949L1187.5,37.223L1183.575,37.537L1182.275,38.134L1171.775,39.786L1157.375,40.757L1152.125,42.519L1150.8,45.168L1139.025,44.489L1132.45,44.287L1120.675,44.309L1115.425,44.816L1106.25,47.204L1099.7,45.677L1091.825,43.876L1086.575,43.872L1085.275,46.609L1083.975,46.383L1082.65,45.372L1069.55,39.568L1065.625,31.8L1064.3,31.751L1056.45,30.605L1052.5,30.377L1051.2,29.514L1049.875,27.973L1048.575,26.571L1047.275,25.039L1039.4,23.45L1000.075,24.788L981.725,25.214L980.425,25.25L977.8,23.505L975.175,23.036L973.875,25.18L968.625,26.73L967.3,29.616L964.7,27.117L962.075,29.174L945.025,43.531L941.1,42.298L931.925,43.044L926.675,43.109L925.375,43.788L914.875,44.619L910.95,44.768L908.325,45.794L907.025,46.252L884.725,46.436L878.175,45.714L863.775,45.092L858.525,44.889L853.275,43.711L850.65,44.572L846.725,42.976L842.8,42.2L841.475,39.473L837.55,36.591L836.25,39.081L833.625,36.792L829.675,23.549L827.075,23.43L819.2,26.473L815.275,27.184L812.65,27.126L810.025,26.695L803.475,27.478L800.85,28.45L794.3,29.113L790.375,29.891L778.575,31.999L772.025,33.37L760.225,34.6L749.725,36.035L748.425,36.279L745.8,38.969L736.625,40.846L734,43.595L731.375,45.175L730.075,45.687L720.9,47.073L716.975,47.451L715.65,50.268L714.35,48.282L706.475,47.388L705.175,48.488L702.55,50.684L699.925,52.402L698.625,55.172L696,54.114L689.45,55.342L682.875,56.572L680.275,58.888L678.95,60.448L677.65,58.373L675.025,58.862L671.1,60.666L669.775,57.75L668.475,58.532L667.15,63.096L665.85,71.589L664.525,71.26L659.3,70.44L657.975,69.83L656.675,69.602L654.05,70.207L651.425,70.534L646.175,69.604L644.875,68.467L637,65.617L630.45,68.452L602.925,69.351L601.625,69.927L596.375,68.279L595.075,67.236L583.275,70.347L575.4,72.551L571.475,68.802L567.55,73.289L562.3,76.156L558.375,69.156L557.05,67.073L554.425,78.084L549.2,92.049L547.875,91.19L540.025,91.122L533.475,90.643L532.15,89.969L525.6,89.109L522.975,88.473L521.675,88.56L507.25,87.482L504.625,85.685L503.325,84.202L499.375,83.862L491.525,83.48L488.9,82.481L486.275,80.933L471.85,80.946L465.3,78.453L445.65,75.769L444.325,78.345L436.475,73.8L433.85,60.755L425.975,46.776L424.675,47.812L415.5,48.219L408.95,48.966L407.625,49.753L406.325,50.01L402.4,50.433L395.825,51.533L394.525,51.39L386.65,52.637L372.25,53.857L364.375,54.941L356.525,56.086L353.9,56.877L352.575,57.203L349.95,59.617L348.65,61.926L346.025,62.534L335.55,62.131L315.875,61.002L313.25,65.82L309.325,69.224L306.7,74.415L298.85,74.761L297.525,76.2L289.675,76.699L284.425,77.788L283.125,79.016L280.5,78.594L279.175,79.101L273.95,78.122L272.625,77.54L264.775,77.734L250.35,78.482L247.725,83.996L242.475,83.285L225.45,88.737L220.2,98.571L218.9,99.516L217.575,103.066L208.4,106.095L204.475,107.903L193.975,110.427L166.45,111.656L148.1,118.628L136.325,125.697L133.7,133.762L129.75,142.157L119.275,151.35L112.725,162.775L111.4,174.148L104.85,186.512L94.375,199.851L91.75,212.92L83.875,225.453L82.575,234.264L79.95,249.253L78.65,259.167L74.7,263.356L68.15,276.662L66.85,289.252L64.225,301.806L57.675,313.697L55.05,324.699L53.75,335.043L49.8,344.123L45.875,353.143L39.325,358.921L38,365.1L32.775,370.672L30.15,375.226L24.9,379.925L23.6,384.51L19.65,387.516L18.35,390.128L14.425,392.823L1.3,395.043Z" fill="#4c78a8" opacity="0.25"/></g></g><path class="foreground" aria-hidden="true" d="" display="none"/></g></g><g class="mark-group role-scope layer_1_pathgroup" role="graphics-object" aria-roledescription="group mark container"><g transform="translate(0,0)"><path class="background" aria-hidden="true" d="M0,0h1000v400h-1000Z"/><g><g class="mark-line role-mark layer_1_marks" clip-path="url(#clip2)" role="graphics-object" aria-roledescription="line mark container"><path aria-label="Training Steps (Millions): 0.52; smooth_iqm: 99.1320576668; Algorithm: adam; Step (M): 0.52; Smoothed IQM: 99.13; Seeds: 1; Total Values: 1" role="graphics-symbol" aria-roledescription="line mark" d="M1.3,395.043L14.425,392.823L18.35,390.128L19.65,387.516L23.6,384.51L24.9,379.925L30.15,375.226L32.775,370.672L38,365.1L39.325,358.921L45.875,353.143L49.8,344.123L53.75,335.043L55.05,324.699L57.675,313.697L64.225,301.806L66.85,289.252L68.15,276.662L74.7,263.356L78.65,259.167L79.95,249.253L82.575,234.264L83.875,225.453L91.75,212.92L94.375,199.851L104.85,186.512L111.4,174.148L112.725,162.775L119.275,151.35L129.75,142.157L133.7,133.762L136.325,125.697L148.1,118.628L166.45,111.656L193.975,110.427L204.475,107.903L208.4,106.095L217.575,103.066L218.9,99.516L220.2,98.571L225.45,88.737L242.475,83.285L247.725,83.996L250.35,78.482L264.775,77.734L272.625,77.54L273.95,78.122L279.175,79.101L280.5,78.594L283.125,79.016L284.425,77.788L289.675,76.699L297.525,76.2L298.85,74.761L306.7,74.415L309.325,69.224L313.25,65.82L315.875,61.002L335.55,62.131L346.025,62.534L348.65,61.926L349.95,59.617L352.575,57.203L353.9,56.877L356.525,56.086L364.375,54.941L372.25,53.857L386.65,52.637L394.525,51.39L395.825,51.533L402.4,50.433L406.325,50.01L407.625,49.753L408.95,48.966L415.5,48.219L424.675,47.812L425.975,46.776L433.85,60.755L436.475,73.8L444.325,78.345L445.65,75.769L465.3,78.453L471.85,80.946L486.275,80.933L488.9,82.481L491.525,83.48L499.375,83.862L503.325,84.202L504.625,85.685L507.25,87.482L521.675,88.56L522.975,88.473L525.6,89.109L532.15,89.969L533.475,90.643L540.025,91.122L547.875,91.19L549.2,92.049L554.425,78.084L557.05,67.073L558.375,69.156L562.3,76.156L567.55,73.289L571.475,68.802L575.4,72.551L583.275,70.347L595.075,67.236L596.375,68.279L601.625,69.927L602.925,69.351L630.45,68.452L637,65.617L644.875,68.467L646.175,69.604L651.425,70.534L654.05,70.207L656.675,69.602L657.975,69.83L659.3,70.44L664.525,71.26L665.85,71.589L667.15,63.096L668.475,58.532L669.775,57.75L671.1,60.666L675.025,58.862L677.65,58.373L678.95,60.448L680.275,58.888L682.875,56.572L689.45,55.342L696,54.114L698.625,55.172L699.925,52.402L702.55,50.684L705.175,48.488L706.475,47.388L714.35,48.282L715.65,50.268L716.975,47.451L720.9,47.073L730.075,45.687L731.375,45.175L734,43.595L736.625,40.846L745.8,38.969L748.425,36.279L749.725,36.035L760.225,34.6L772.025,33.37L778.575,31.999L790.375,29.891L794.3,29.113L800.85,28.45L803.475,27.478L810.025,26.695L812.65,27.126L815.275,27.184L819.2,26.473L827.075,23.43L829.675,23.549L833.625,36.792L836.25,39.081L837.55,36.591L841.475,39.473L842.8,42.2L846.725,42.976L850.65,44.572L853.275,43.711L858.525,44.889L863.775,45.092L878.175,45.714L884.725,46.436L907.025,46.252L908.325,45.794L910.95,44.768L914.875,44.619L925.375,43.788L926.675,43.109L931.925,43.044L941.1,42.298L945.025,43.531L962.075,29.174L964.7,27.117L967.3,29.616L968.625,26.73L973.875,25.18L975.175,23.036L977.8,23.505L980.425,25.25L981.725,25.214L1000.075,24.788L1039.4,23.45L1047.275,25.039L1048.575,26.571L1049.875,27.973L1051.2,29.514L1052.5,30.377L1056.45,30.605L1064.3,31.751L1065.625,31.8L1069.55,39.568L1082.65,45.372L1083.975,46.383L1085.275,46.609L1086.575,43.872L1091.825,43.876L1099.7,45.677L1106.25,47.204L1115.425,44.816L1120.675,44.309L1132.45,44.287L1139.025,44.489L1150.8,45.168L1152.125,42.519L1157.375,40.757L1171.775,39.786L1182.275,38.134L1183.575,37.537L1187.5,37.223L1188.825,36.949L1190.125,51.546L1195.375,47.215L1196.675,44.758L1198,46.732L1207.175,46.184L1211.1,46.205L1218.975,49.125L1224.2,50.436L1245.175,51.756L1250.425,53.213L1253.05,52.894L1259.6,52.504L1266.15,51.97L1267.475,51.746L1270.1,52.597L1271.4,52.459L1272.7,50.916L1283.2,52.467L1285.825,52.152L1301.55,52.06L1313.35,51.52L1314.65,36.412L1319.9,32.94L1321.2,29.143L1325.15,25.567L1329.075,24.108L1333,25.652L1335.625,24.259L1340.875,24.383L1347.425,20.77L1351.35,21.911L1355.275,20.015L1360.525,17.45L1368.4,18.726L1372.325,17.499L1373.625,17.68L1374.95,16.255L1385.425,17.082L1393.3,16.31L1397.225,17.849L1403.775,18.047L1406.4,18.486L1407.725,19.724L1409.025,19.215L1428.675,17.75L1436.55,17.874L1437.85,18.45L1444.425,17.533L1445.725,15.204L1450.975,10.82L1453.6,12.064L1460.15,10.781L1461.45,28.568L1468,45.216L1469.325,50.98L1470.625,57.391L1474.55,59.696L1477.175,70.008L1482.425,75.803L1487.675,78.768L1498.15,75.496L1500.775,79.095L1502.075,80.268L1503.4,82.677L1507.325,84.787L1508.65,84.74L1509.95,85.286L1512.575,87.641L1516.5,88.901L1519.125,90.08L1521.75,91.421L1525.675,92.657L1529.6,93.422L1534.85,76.127L1537.475,60.979L1542.725,54.001L1550.575,48.706L1554.525,46.372L1565,37.064L1574.175,31.291L1575.475,33.213L1576.8,33.081L1584.65,27.544L1601.7,29.423L1609.575,29.308L1610.875,26.065L1617.425,27.898L1621.35,27.027L1622.675,26.098L1625.3,24.28L1633.15,23.327L1635.775,23.368L1646.275,22.947L1648.875,21.645L1650.2,21.24L1656.75,21.033L1664.625,21.417L1665.925,21.403L1672.475,21.058L1677.725,20.142L1685.575,20.765L1689.525,16.122L1690.825,17.483L1693.45,18.805L1694.75,15.074L1696.075,11.621L1698.7,12.618L1701.325,11.734L1706.55,10.939L1707.875,8.979L1710.5,25.191L1717.05,34.934L1722.275,35.013L1724.9,37.629L1727.525,36.906L1731.45,35.521L1740.625,38.183L1744.575,39.299L1745.875,40.41L1751.125,41.735L1753.75,43.265L1756.375,42.632L1770.775,42.305L1777.325,40.846L1781.275,42.247L1782.575,42.253L1783.9,41.897L1786.5,40.8L1789.125,41.832L1799.625,43.422L1800.925,44.213L1810.1,29.108L1811.425,17.734L1812.725,17.445L1815.35,14.235L1820.6,15.008L1821.9,17.058L1823.2,14.292L1827.15,12.568L1829.775,11.163L1837.625,9.953L1841.55,10.042L1844.175,10.01L1845.5,9.849L1848.125,10.13L1849.425,16.263L1852.05,18.288L1853.35,23.159L1855.975,26.157L1857.3,25.74L1861.225,26.272L1865.15,27.275L1867.775,28.12L1871.7,28.915L1874.325,26.36L1882.2,29.004L1884.825,29.418L1890.05,29.7L1894,30.281L1895.3,31.093L1901.85,31.667L1903.175,31.776L1904.475,31.236L1905.775,29.874L1907.1,30.102L1909.725,31.078L1924.125,41.028L1933.3,53.812L1950.35,58.92L1951.65,61.916L1972.625,59.798L1975.25,60.354L1976.575,60.556L1988.35,57.883L1993.6,59.531L1996.225,62.032L2001.475,58.718L2002.775,58.871L2005.4,56.547L2013.275,57.608L2021.125,58.534L2026.375,58.312L2027.675,56.906L2031.625,58.818L2036.85,61.039L2038.175,59.599L2040.8,58.471L2048.65,41.557L2061.775,26.696L2064.375,16.941L2065.7,13.8L2069.625,16.051L2072.25,14.467L2073.55,13.277L2074.875,15.89L2082.725,29.859L2093.225,32.614L2095.85,35.435L2097.15,36.534L2101.075,39.698L2106.325,36.474L2108.95,39.061L2110.25,42.665L2119.425,46.398L2126,44.383L2128.6,42.872L2139.1,44.447L2141.725,46.457L2143.025,44.353L2144.35,44.711L2146.95,44.625L2148.275,42.776L2149.575,41.78L2152.2,41.609L2156.125,41.14L2166.625,39.901L2169.25,24.302L2170.55,20.275L2178.425,17.986L2179.725,16.119L2181.05,13.954L2184.975,15.439L2186.275,12.347L2191.525,9.597L2192.825,7.376L2202,10.086L2205.95,8.907L2211.175,15.997L2212.5,23.02L2213.8,27.064L2216.425,28.352L2226.925,29.033L2232.15,30.592L2233.475,32.471L2237.4,33.063L2259.675,34.203L2261,34.964L2262.3,35.873L2263.625,37.285L2267.55,36.081L2268.85,36.756L2280.65,37.103L2296.375,38.12L2297.7,37.519L2306.875,36.974L2317.35,37.744L2319.975,35.765L2321.275,38.032L2329.15,30.534L2333.075,30.026L2334.4,30.485L2338.325,30.536L2346.2,31.906L2350.125,32.14L2351.425,32.152L2355.375,30.661L2360.6,29.201L2365.85,29.711L2368.475,30.475L2388.125,29.512L2399.925,31.315L2411.725,31.675L2413.025,32.125L2426.15,31.792L2428.775,31.205L2436.625,30.798L2447.125,29.45L2448.425,28.438L2451.05,28.291L2456.3,29.458L2461.525,22.685L2470.7,20.066L2472.025,18.364L2474.65,16.325L2490.375,14.9L2493,13.163L2494.3,14.393L2498.225,15.708L2500.85,14.467" stroke="#4c78a8" stroke-width="2"/></g></g><path class="foreground" aria-hidden="true" d="" display="none"/></g></g><g class="mark-group role-legend" role="graphics-symbol" aria-roledescription="legend" aria-label="Symbol legend for fill color and stroke color with 1 value: adam"><g transform="translate(18,359)"><path class="background" aria-hidden="true" d="M3.5,0.5L49.5,0.5C51.155745073482,0.5,52.5,1.844254926518,52.5,3.5L52.5,20.5C52.5,22.155745073482,51.155745073482,23.5,49.5,23.5L3.5,23.5C1.844254926518,23.5,0.5,22.155745073482,0.5,20.5L0.5,3.5C0.5,1.844254926518,1.844254926518,0.5,3.5,0.5Z" pointer-events="none" fill="rgba(255,255,255,1)" stroke="gray"/><g><g class="mark-group role-legend-entry"><g transform="translate(5,5)"><path class="background" aria-hidden="true" d="M0,0h0v0h0Z" pointer-events="none"/><g><g class="mark-group role-scope" role="graphics-object" aria-roledescription="group mark container"><g transform="translate(0,0)"><path class="background" aria-hidden="true" d="M0,0h41.0146484375v12.5h-41.0146484375Z" pointer-events="none" opacity="1"/><g><g class="mark-symbol role-legend-symbol" pointer-events="none"><path transform="translate(6,6)" d="M5,0A5,5,0,1,1,-5,0A5,5,0,1,1,5,0" fill="#4c78a8" stroke="#4c78a8" stroke-width="1.5" opacity="1"/></g><g class="mark-text role-legend-label" pointer-events="none"><text text-anchor="start" transform="translate(16,9)" font-family="sans-serif" font-size="10px" fill="#000" opacity="1">adam</text></g></g><path class="foreground" aria-hidden="true" d="" pointer-events="none" display="none"/></g></g></g><path class="foreground" aria-hidden="true" d="" pointer-events="none" display="none"/></g></g></g><path class="foreground" aria-hidden="true" d="" pointer-events="none" display="none"/></g></g><g class="mark-group role-title"><g transform="translate(500,-22)"><path class="background" aria-hidden="true" d="M0,0h0v0h0Z" pointer-events="none"/><g><g class="mark-text role-title-text" role="graphics-symbol" aria-roledescription="title" aria-label="Title text 'Slippery Ant +B: Charts/Mean Episodic Return (IQM)'" pointer-events="none"><text text-anchor="middle" transform="translate(0,10)" font-family="sans-serif" font-size="13px" font-weight="bold" fill="#000" opacity="1">Slippery Ant +B: Charts/Mean Episodic Return (IQM)</text></g></g><path class="foreground" aria-hidden="true" d="" pointer-events="none" display="none"/></g></g></g><path class="foreground" aria-hidden="true" d="" display="none"/></g></g></g><defs><clipPath id="clip1"><rect x="0" y="0" width="1000" height="400"/></clipPath><clipPath id="clip2"><rect x="0" y="0" width="1000" height="400"/></clipPath></defs></svg>