<svg xmlns="http://www.w3.org/2000/svg" xmlns:xlink="http://www.w3.org/1999/xlink" version="1.1" class="marks" width="1059" height="464" viewBox="0 0 1059 464"><rect width="1059" height="464" fill="white"/><g fill="none" stroke-miterlimit="10" transform="translate(53,27)"><g class="mark-group role-frame root" role="graphics-object" aria-roledescription="group mark container"><g transform="translate(0,0)"><path class="background" aria-hidden="true" d="M0.5,0.5h1000v400h-1000Z" stroke="#ddd"/><g><g class="mark-group role-axis" aria-hidden="true"><g transform="translate(0.5,400.5)"><path class="background" aria-hidden="true" d="M0,0h0v0h0Z" pointer-events="none"/><g><g class="mark-rule role-axis-grid" pointer-events="none"><line transform="translate(0,-400)" x2="0" y2="400" stroke="#ddd" stroke-opacity="0.3" stroke-width="1" opacity="1"/><line transform="translate(50,-400)" x2="0" y2="400" stroke="#ddd" stroke-opacity="0.3" stroke-width="1" opacity="1"/><line transform="translate(100,-400)" x2="0" y2="400" stroke="#ddd" stroke-opacity="0.3" stroke-width="1" opacity="1"/><line transform="translate(150,-400)" x2="0" y2="400" stroke="#ddd" stroke-opacity="0.3" stroke-width="1" opacity="1"/><line transform="translate(200,-400)" x2="0" y2="400" stroke="#ddd" stroke-opacity="0.3" stroke-width="1" opacity="1"/><line transform="translate(250,-400)" x2="0" y2="400" stroke="#ddd" stroke-opacity="0.3" stroke-width="1" opacity="1"/><line transform="translate(300,-400)" x2="0" y2="400" stroke="#ddd" stroke-opacity="0.3" stroke-width="1" opacity="1"/><line transform="translate(350,-400)" x2="0" y2="400" stroke="#ddd" stroke-opacity="0.3" stroke-width="1" opacity="1"/><line transform="translate(400,-400)" x2="0" y2="400" stroke="#ddd" stroke-opacity="0.3" stroke-width="1" opacity="1"/><line transform="translate(450,-400)" x2="0" y2="400" stroke="#ddd" stroke-opacity="0.3" stroke-width="1" opacity="1"/><line transform="translate(500,-400)" x2="0" y2="400" stroke="#ddd" stroke-opacity="0.3" stroke-width="1" opacity="1"/><line transform="translate(550,-400)" x2="0" y2="400" stroke="#ddd" stroke-opacity="0.3" stroke-width="1" opacity="1"/><line transform="translate(600,-400)" x2="0" y2="400" stroke="#ddd" stroke-opacity="0.3" stroke-width="1" opacity="1"/><line transform="translate(650,-400)" x2="0" y2="400" stroke="#ddd" stroke-opacity="0.3" stroke-width="1" opacity="1"/><line transform="translate(700,-400)" x2="0" y2="400" stroke="#ddd" stroke-opacity="0.3" stroke-width="1" opacity="1"/><line transform="translate(750,-400)" x2="0" y2="400" stroke="#ddd" stroke-opacity="0.3" stroke-width="1" opacity="1"/><line transform="translate(800,-400)" x2="0" y2="400" stroke="#ddd" stroke-opacity="0.3" stroke-width="1" opacity="1"/><line transform="translate(850,-400)" x2="0" y2="400" stroke="#ddd" stroke-opacity="0.3" stroke-width="1" opacity="1"/><line transform="translate(900,-400)" x2="0" y2="400" stroke="#ddd" stroke-opacity="0.3" stroke-width="1" opacity="1"/><line transform="translate(950,-400)" x2="0" y2="400" stroke="#ddd" stroke-opacity="0.3" stroke-width="1" opacity="1"/><line transform="translate(1000,-400)" x2="0" y2="400" stroke="#ddd" stroke-opacity="0.3" stroke-width="1" opacity="1"/></g></g><path class="foreground" aria-hidden="true" d="" pointer-events="none" display="none"/></g></g><g class="mark-group role-axis" aria-hidden="true"><g transform="translate(0.5,0.5)"><path class="background" aria-hidden="true" d="M0,0h0v0h0Z" pointer-events="none"/><g><g class="mark-rule role-axis-grid" pointer-events="none"><line transform="translate(0,400)" x2="1000" y2="0" stroke="#ddd" stroke-opacity="0.3" stroke-width="1" opacity="1"/><line transform="translate(0,350)" x2="1000" y2="0" stroke="#ddd" stroke-opacity="0.3" stroke-width="1" opacity="1"/><line transform="translate(0,300)" x2="1000" y2="0" stroke="#ddd" stroke-opacity="0.3" stroke-width="1" opacity="1"/><line transform="translate(0,250)" x2="1000" y2="0" stroke="#ddd" stroke-opacity="0.3" stroke-width="1" opacity="1"/><line transform="translate(0,200)" x2="1000" y2="0" stroke="#ddd" stroke-opacity="0.3" stroke-width="1" opacity="1"/><line transform="translate(0,150)" x2="1000" y2="0" stroke="#ddd" stroke-opacity="0.3" stroke-width="1" opacity="1"/><line transform="translate(0,100)" x2="1000" y2="0" stroke="#ddd" stroke-opacity="0.3" stroke-width="1" opacity="1"/><line transform="translate(0,50)" x2="1000" y2="0" stroke="#ddd" stroke-opacity="0.3" stroke-width="1" opacity="1"/><line transform="translate(0,0)" x2="1000" y2="0" stroke="#ddd" stroke-opacity="0.3" stroke-width="1" opacity="1"/></g></g><path class="foreground" aria-hidden="true" d="" pointer-events="none" display="none"/></g></g><g class="mark-group role-axis" role="graphics-symbol" aria-roledescription="axis" aria-label="X-axis titled 'Training Steps (Millions)' for a linear scale with values from 0 to 400"><g transform="translate(0.5,400.5)"><path class="background" aria-hidden="true" d="M0,0h0v0h0Z" pointer-events="none"/><g><g class="mark-rule role-axis-tick" pointer-events="none"><line transform="translate(0,0)" x2="0" y2="5" stroke="#888" stroke-width="1" opacity="1"/><line transform="translate(50,0)" x2="0" y2="5" stroke="#888" stroke-width="1" opacity="1"/><line transform="translate(100,0)" x2="0" y2="5" stroke="#888" stroke-width="1" opacity="1"/><line transform="translate(150,0)" x2="0" y2="5" stroke="#888" stroke-width="1" opacity="1"/><line transform="translate(200,0)" x2="0" y2="5" stroke="#888" stroke-width="1" opacity="1"/><line transform="translate(250,0)" x2="0" y2="5" stroke="#888" stroke-width="1" opacity="1"/><line transform="translate(300,0)" x2="0" y2="5" stroke="#888" stroke-width="1" opacity="1"/><line transform="translate(350,0)" x2="0" y2="5" stroke="#888" stroke-width="1" opacity="1"/><line transform="translate(400,0)" x2="0" y2="5" stroke="#888" stroke-width="1" opacity="1"/><line transform="translate(450,0)" x2="0" y2="5" stroke="#888" stroke-width="1" opacity="1"/><line transform="translate(500,0)" x2="0" y2="5" stroke="#888" stroke-width="1" opacity="1"/><line transform="translate(550,0)" x2="0" y2="5" stroke="#888" stroke-width="1" opacity="1"/><line transform="translate(600,0)" x2="0" y2="5" stroke="#888" stroke-width="1" opacity="1"/><line transform="translate(650,0)" x2="0" y2="5" stroke="#888" stroke-width="1" opacity="1"/><line transform="translate(700,0)" x2="0" y2="5" stroke="#888" stroke-width="1" opacity="1"/><line transform="translate(750,0)" x2="0" y2="5" stroke="#888" stroke-width="1" opacity="1"/><line transform="translate(800,0)" x2="0" y2="5" stroke="#888" stroke-width="1" opacity="1"/><line transform="translate(850,0)" x2="0" y2="5" stroke="#888" stroke-width="1" opacity="1"/><line transform="translate(900,0)" x2="0" y2="5" stroke="#888" stroke-width="1" opacity="1"/><line transform="translate(950,0)" x2="0" y2="5" stroke="#888" stroke-width="1" opacity="1"/><line transform="translate(1000,0)" x2="0" y2="5" stroke="#888" stroke-width="1" opacity="1"/></g><g class="mark-text role-axis-label" pointer-events="none"><text text-anchor="start" transform="translate(0,15)" font-family="sans-serif" font-size="10px" fill="#000" opacity="1">0</text><text text-anchor="middle" transform="translate(50,15)" font-family="sans-serif" font-size="10px" fill="#000" opacity="1">20</text><text text-anchor="middle" transform="translate(100,15)" font-family="sans-serif" font-size="10px" fill="#000" opacity="1">40</text><text text-anchor="middle" transform="translate(150,15)" font-family="sans-serif" font-size="10px" fill="#000" opacity="1">60</text><text text-anchor="middle" transform="translate(200,15)" font-family="sans-serif" font-size="10px" fill="#000" opacity="1">80</text><text text-anchor="middle" transform="translate(250,15)" font-family="sans-serif" font-size="10px" fill="#000" opacity="1">100</text><text text-anchor="middle" transform="translate(300,15)" font-family="sans-serif" font-size="10px" fill="#000" opacity="1">120</text><text text-anchor="middle" transform="translate(350,15)" font-family="sans-serif" font-size="10px" fill="#000" opacity="1">140</text><text text-anchor="middle" transform="translate(400,15)" font-family="sans-serif" font-size="10px" fill="#000" opacity="1">160</text><text text-anchor="middle" transform="translate(450,15)" font-family="sans-serif" font-size="10px" fill="#000" opacity="1">180</text><text text-anchor="middle" transform="translate(500,15)" font-family="sans-serif" font-size="10px" fill="#000" opacity="1">200</text><text text-anchor="middle" transform="translate(550,15)" font-family="sans-serif" font-size="10px" fill="#000" opacity="1">220</text><text text-anchor="middle" transform="translate(600,15)" font-family="sans-serif" font-size="10px" fill="#000" opacity="1">240</text><text text-anchor="middle" transform="translate(650,15)" font-family="sans-serif" font-size="10px" fill="#000" opacity="1">260</text><text text-anchor="middle" transform="translate(700,15)" font-family="sans-serif" font-size="10px" fill="#000" opacity="1">280</text><text text-anchor="middle" transform="translate(750,15)" font-family="sans-serif" font-size="10px" fill="#000" opacity="1">300</text><text text-anchor="middle" transform="translate(800,15)" font-family="sans-serif" font-size="10px" fill="#000" opacity="1">320</text><text text-anchor="middle" transform="translate(850,15)" font-family="sans-serif" font-size="10px" fill="#000" opacity="1">340</text><text text-anchor="middle" transform="translate(900,15)" font-family="sans-serif" font-size="10px" fill="#000" opacity="1">360</text><text text-anchor="middle" transform="translate(950,15)" font-family="sans-serif" font-size="10px" fill="#000" opacity="1">380</text><text text-anchor="end" transform="translate(1000,15)" font-family="sans-serif" font-size="10px" fill="#000" opacity="1">400</text></g><g class="mark-rule role-axis-domain" pointer-events="none"><line transform="translate(0,0)" x2="1000" y2="0" stroke="#888" stroke-width="1" opacity="1"/></g><g class="mark-text role-axis-title" pointer-events="none"><text text-anchor="middle" transform="translate(500,30)" font-family="sans-serif" font-size="11px" font-weight="bold" fill="#000" opacity="1">Training Steps (Millions)</text></g></g><path class="foreground" aria-hidden="true" d="" pointer-events="none" display="none"/></g></g><g class="mark-group role-axis" role="graphics-symbol" aria-roledescription="axis" aria-label="Y-axis titled 'Charts/Mean Episodic Return' for a linear scale with values from 0 to 8,000"><g transform="translate(0.5,0.5)"><path class="background" aria-hidden="true" d="M0,0h0v0h0Z" pointer-events="none"/><g><g class="mark-rule role-axis-tick" pointer-events="none"><line transform="translate(0,400)" x2="-5" y2="0" stroke="#888" stroke-width="1" opacity="1"/><line transform="translate(0,350)" x2="-5" y2="0" stroke="#888" stroke-width="1" opacity="1"/><line transform="translate(0,300)" x2="-5" y2="0" stroke="#888" stroke-width="1" opacity="1"/><line transform="translate(0,250)" x2="-5" y2="0" stroke="#888" stroke-width="1" opacity="1"/><line transform="translate(0,200)" x2="-5" y2="0" stroke="#888" stroke-width="1" opacity="1"/><line transform="translate(0,150)" x2="-5" y2="0" stroke="#888" stroke-width="1" opacity="1"/><line transform="translate(0,100)" x2="-5" y2="0" stroke="#888" stroke-width="1" opacity="1"/><line transform="translate(0,50)" x2="-5" y2="0" stroke="#888" stroke-width="1" opacity="1"/><line transform="translate(0,0)" x2="-5" y2="0" stroke="#888" stroke-width="1" opacity="1"/></g><g class="mark-text role-axis-label" pointer-events="none"><text text-anchor="end" transform="translate(-7,403)" font-family="sans-serif" font-size="10px" fill="#000" opacity="1">0</text><text text-anchor="end" transform="translate(-7,353)" font-family="sans-serif" font-size="10px" fill="#000" opacity="1">1,000</text><text text-anchor="end" transform="translate(-7,303)" font-family="sans-serif" font-size="10px" fill="#000" opacity="1">2,000</text><text text-anchor="end" transform="translate(-7,253)" font-family="sans-serif" font-size="10px" fill="#000" opacity="1">3,000</text><text text-anchor="end" transform="translate(-7,203)" font-family="sans-serif" font-size="10px" fill="#000" opacity="1">4,000</text><text text-anchor="end" transform="translate(-7,153)" font-family="sans-serif" font-size="10px" fill="#000" opacity="1">5,000</text><text text-anchor="end" transform="translate(-7,103)" font-family="sans-serif" font-size="10px" fill="#000" opacity="1">6,000</text><text text-anchor="end" transform="translate(-7,53)" font-family="sans-serif" font-size="10px" fill="#000" opacity="1">7,000</text><text text-anchor="end" transform="translate(-7,3)" font-family="sans-serif" font-size="10px" fill="#000" opacity="1">8,000</text></g><g class="mark-rule role-axis-domain" pointer-events="none"><line transform="translate(0,400)" x2="0" y2="-400" stroke="#888" stroke-width="1" opacity="1"/></g><g class="mark-text role-axis-title" pointer-events="none"><text text-anchor="middle" transform="translate(-36.0244140625,200) rotate(-90) translate(0,-2)" font-family="sans-serif" font-size="11px" font-weight="bold" fill="#000" opacity="1">Charts/Mean Episodic Return</text></g></g><path class="foreground" aria-hidden="true" d="" pointer-events="none" display="none"/></g></g><g class="mark-group role-scope view_1_pathgroup" role="graphics-object" aria-roledescription="group mark container"><g transform="translate(0,0)"><path class="background" aria-hidden="true" d="M0,0h1000v400h-1000Z"/><g><g class="mark-area role-mark view_1_marks" clip-path="url(#clip1)" role="graphics-object" aria-roledescription="area mark container"><path aria-label="Training Steps (Millions): 5.24; Charts/Mean Episodic Return: 1376.01717984; smooth_q75: 1376.01717984; Algorithm: adam" role="graphics-symbol" aria-roledescription="area mark" d="M13.1,331.199L14.425,316.094L20.975,301.868L23.6,289.888L43.25,279.062L56.35,269.273L58.975,259.968L70.775,266.817L72.1,266.522L77.325,264.471L91.75,257.83L99.625,241.682L110.1,228.649L111.4,216.393L115.35,202.167L123.2,188.546L124.525,176.332L127.15,164.294L131.075,154.405L138.925,144.545L145.5,135.768L146.8,129.993L153.35,126.271L158.6,123.36L173.025,120.077L174.325,117.608L176.95,115.094L195.3,113.254L196.6,98.252L203.15,101.683L214.95,102.762L217.575,104.199L220.2,105.657L221.5,105.098L225.45,102.329L226.75,98.892L232,98.654L235.925,96.915L242.475,94.457L252.975,95.406L255.6,96.152L258.2,96.9L268.7,97.719L272.625,97.174L275.25,98.183L281.8,98.524L287.05,98.455L290.975,98.803L292.3,97.05L293.6,96.313L294.9,81.922L296.225,72.569L297.525,68.416L300.15,66.02L304.075,62.952L308.025,61.413L310.65,61.585L314.575,59.318L322.425,59.162L331.6,60.332L332.925,71.983L342.1,81.788L344.725,87.243L349.95,88.232L351.275,89.847L360.45,90.817L363.075,90.075L372.25,88.744L374.875,85.786L376.175,87.109L378.8,87.868L380.1,88.815L382.725,88.583L385.35,88.245L394.525,88.717L398.45,88.856L405,88.96L406.325,89.672L407.625,90.369L410.25,90.958L414.2,90.174L415.5,76.227L416.8,64.594L423.375,56.288L425.975,53.332L431.225,49.558L432.55,46.479L435.15,45.901L439.1,45.559L440.4,47.994L445.65,47.27L446.95,46.409L449.575,46.776L458.75,45.777L465.3,60.859L469.25,71.863L470.55,74.761L475.8,82.963L478.425,87.961L481.025,92.664L482.35,95.436L483.65,100.153L490.2,104.496L499.375,103.122L502,107.172L504.625,109.02L509.875,111.32L512.5,111.924L515.125,113.572L516.425,114.706L517.725,114.509L522.975,116.024L524.3,117.243L532.15,116.226L533.475,118.487L537.4,103.205L541.325,91.357L545.25,101.784L546.575,100.276L547.875,98.807L550.5,91.415L554.425,89.97L558.375,87.102L562.3,85.336L564.925,88.284L588.525,85.514L604.25,84.884L627.825,85.106L631.775,84.577L634.4,82.744L635.7,82.327L643.575,82.085L644.875,81.195L651.425,80.412L652.75,81.258L655.35,80.758L663.225,80.756L664.525,82.073L675.025,69.113L676.325,61.253L678.95,58.014L680.275,59.924L682.875,57.559L684.2,55.661L685.5,52.355L690.75,50.066L692.05,49.315L698.625,47.54L699.925,46.062L707.8,54.564L715.65,57.185L720.9,58.986L724.825,61.195L740.55,61.146L743.175,60.845L745.8,58.161L747.1,56.73L748.425,56.144L749.725,55.345L756.275,53.661L760.225,55.017L766.775,53.495L768.075,52.186L770.7,51.644L778.575,50.907L782.5,50.96L791.675,50.784L794.3,50.615L795.6,50.424L810.025,50.452L813.95,41.32L819.2,38.157L820.5,35.666L825.75,30.24L836.25,34.449L837.55,36.642L840.175,38.368L850.65,36.34L851.975,39.594L855.9,41.04L857.2,43.54L866.375,43.272L867.7,44.34L886.05,44.656L888.675,42.916L892.6,44.311L895.225,46.154L896.525,44.727L899.15,45.639L901.775,45.791L909.65,45.456L912.25,45.189L914.875,44.584L916.2,42.377L917.5,43.842L918.825,37.379L920.125,33.326L928,32.392L929.3,34.23L935.85,29.818L941.1,25.896L945.025,22.831L950.275,21.605L958.125,19.454L960.75,36.409L962.075,49.727L963.375,58.097L967.3,58.678L969.925,66.266L975.175,69.689L979.1,70.632L983.05,68.629L993.525,70.765L998.775,72.09L1001.4,74.54L1004,73.327L1005.325,74.665L1009.25,75.005L1013.175,74.186L1014.5,74.59L1019.75,75.149L1021.05,75.539L1024.975,75.071L1048.575,75.524L1059.05,76.821L1061.675,60.024L1066.925,48.484L1069.55,38.66L1072.175,50.634L1074.8,46.593L1080.025,40.351L1082.65,46.273L1093.15,51.128L1094.45,51.658L1101,51.398L1118.05,50.848L1119.35,52.517L1121.975,50.184L1128.525,51.235L1135.075,53.142L1136.4,52.633L1137.7,52.454L1142.95,53.452L1144.25,54.28L1163.925,53.416L1174.4,53.99L1183.575,54.589L1187.5,54.647L1190.125,54.784L1191.45,40.496L1194.075,38.637L1200.625,39.818L1204.55,32.634L1209.8,29.021L1216.35,38.187L1220.275,47.267L1221.6,54.016L1222.9,58.314L1224.2,62.992L1226.825,62.505L1228.15,61.766L1237.325,62.685L1242.575,63.036L1243.875,62.724L1254.35,62.373L1255.675,62.08L1256.975,61.636L1264.85,60.885L1272.7,60.075L1291.05,60.33L1301.55,60.14L1308.1,59.444L1314.65,59.947L1317.275,60.08L1319.9,60.02L1321.2,49.48L1335.625,40.336L1338.25,34.983L1342.175,30.539L1344.8,26.418L1348.725,23.95L1360.525,24.836L1361.85,25.324L1364.45,23.674L1371.025,25.458L1394.6,27.001L1395.925,28.177L1401.15,25.978L1405.1,26.303L1406.4,26.002L1407.725,25.357L1409.025,24.489L1410.325,23.069L1416.9,22.735L1419.5,22.781L1431.3,22.603L1433.925,19.929L1437.85,18.597L1443.1,15.832L1444.425,15.059L1456.2,14.236L1465.375,33.083L1469.325,46.883L1471.95,49.924L1473.25,56.131L1474.55,55.809L1477.175,52.68L1486.35,54.098L1487.675,57.532L1495.525,57.695L1499.475,59.358L1502.075,59.934L1503.4,61.2L1508.65,62.941L1516.5,65.037L1520.425,65.822L1521.75,66.102L1527,65.273L1529.6,66.822L1530.925,68.166L1545.35,69.229L1549.275,71.466L1550.575,54.186L1551.9,39.436L1554.525,34.671L1558.45,28.194L1561.075,27.123L1562.375,28.689L1563.7,25.916L1568.925,23.258L1575.475,23.288L1576.8,21.932L1588.6,30.926L1589.9,37.299L1591.225,35.211L1593.825,39.198L1600.4,41.296L1601.7,44.978L1603,47.668L1604.325,49.512L1605.625,49.053L1610.875,48.139L1630.525,45.799L1631.85,48.316L1635.775,49.561L1638.4,49.418L1643.65,51.333L1648.875,51.775L1654.125,52.276L1658.05,52.326L1663.3,51.621L1665.925,51.035L1667.225,51.373L1668.55,41.808L1669.85,33.473L1685.575,34.594L1688.2,28.363L1689.525,24.675L1690.825,23.425L1693.45,20.417L1697.375,26.491L1709.175,24.242L1710.5,27.713L1717.05,29.828L1728.85,25.506L1740.625,24.761L1741.95,24.819L1744.575,25.872L1760.3,25.821L1761.6,26.405L1762.925,26.582L1772.1,26.586L1774.725,26.519L1778.65,26.007L1782.575,25.638L1789.125,26.241L1790.45,26.953L1794.375,27.53L1799.625,27.726L1815.35,34.786L1841.55,43.655L1844.175,40.846L1846.8,43.997L1848.125,41.853L1858.6,39.31L1862.525,42.675L1865.15,40.048L1866.475,41.41L1875.65,39.543L1880.875,38.31L1887.425,36.97L1888.75,37.525L1894,38.838L1901.85,36.964L1907.1,36.502L1912.35,36.542L1917.575,37.43L1920.2,36.94L1924.125,36.309L1926.75,36.004L1935.925,34.055L1942.475,31.205L1954.275,27.916L1958.225,29.912L1964.775,29.862L1975.25,31.829L1981.8,28.334L1992.3,32.713L1993.6,31.816L1997.525,32.005L2006.7,31.673L2008.025,33.525L2009.325,32.648L2023.75,32.797L2027.675,34.171L2029,49.639L2031.625,57.372L2034.225,61.605L2038.175,65.356L2046.025,67.575L2049.975,66.186L2065.7,56.722L2081.425,55.083L2097.15,52.473L2102.4,49.982L2128.6,49.532L2132.55,48.448L2133.85,49.88L2140.4,46.112L2141.725,43.605L2146.95,43.544L2157.45,44.333L2158.75,42.318L2160.075,40.684L2161.375,38.915L2162.7,38.668L2165.3,23.399L2175.8,15.436L2177.1,11.931L2178.425,9.178L2179.725,6.997L2191.525,9.13L2192.825,11.005L2198.075,20.69L2208.575,27.39L2221.675,33.926L2225.6,39.256L2226.925,42.412L2232.15,43.56L2233.475,48.225L2237.4,48.258L2242.65,48.315L2243.95,48.385L2254.45,47.082L2257.05,50.949L2263.625,54.557L2264.925,54.815L2267.55,53.45L2270.175,54.934L2275.4,54.563L2281.975,52.485L2288.525,52.173L2289.825,52.339L2292.45,52.883L2293.75,40.462L2304.25,32.489L2309.5,25.314L2312.1,18.751L2313.425,26.492L2317.35,23.921L2333.075,28.737L2338.325,37.413L2344.875,40.994L2346.2,44.769L2348.8,47.216L2354.05,47.811L2365.85,47.131L2369.775,49.442L2380.275,52.45L2385.5,50.62L2386.825,49.16L2388.125,51.564L2397.3,52.232L2398.625,52.059L2405.175,51.871L2409.1,51.255L2426.15,52.593L2432.7,52.414L2435.325,52.471L2436.625,42.858L2447.125,46.301L2449.725,38.813L2454.975,32.184L2460.225,28.354L2461.525,24.076L2468.075,23.724L2470.7,20.79L2472.025,19.49L2478.575,16.377L2479.875,14.127L2479.875,14.127L2478.575,16.377L2472.025,19.49L2470.7,20.79L2468.075,23.724L2461.525,24.076L2460.225,28.354L2454.975,32.184L2449.725,38.813L2447.125,46.301L2436.625,42.858L2435.325,52.471L2432.7,52.414L2426.15,52.593L2409.1,51.255L2405.175,51.871L2398.625,52.059L2397.3,52.232L2388.125,51.564L2386.825,49.16L2385.5,50.62L2380.275,52.45L2369.775,49.442L2365.85,47.131L2354.05,47.811L2348.8,47.216L2346.2,44.769L2344.875,40.994L2338.325,37.413L2333.075,28.737L2317.35,23.921L2313.425,26.492L2312.1,18.751L2309.5,25.314L2304.25,32.489L2293.75,40.462L2292.45,52.883L2289.825,52.339L2288.525,52.173L2281.975,52.485L2275.4,54.563L2270.175,54.934L2267.55,53.45L2264.925,54.815L2263.625,54.557L2257.05,50.949L2254.45,47.082L2243.95,48.385L2242.65,48.315L2237.4,48.258L2233.475,48.225L2232.15,43.56L2226.925,42.412L2225.6,39.256L2221.675,33.926L2208.575,27.39L2198.075,20.69L2192.825,11.005L2191.525,9.13L2179.725,6.997L2178.425,9.178L2177.1,11.931L2175.8,15.436L2165.3,23.399L2162.7,38.668L2161.375,38.915L2160.075,40.684L2158.75,42.318L2157.45,44.333L2146.95,43.544L2141.725,43.605L2140.4,46.112L2133.85,49.88L2132.55,48.448L2128.6,49.532L2102.4,49.982L2097.15,52.473L2081.425,55.083L2065.7,56.722L2049.975,66.186L2046.025,67.575L2038.175,65.356L2034.225,61.605L2031.625,57.372L2029,49.639L2027.675,34.171L2023.75,32.797L2009.325,32.648L2008.025,33.525L2006.7,31.673L1997.525,32.005L1993.6,31.816L1992.3,32.713L1981.8,28.334L1975.25,31.829L1964.775,29.862L1958.225,29.912L1954.275,27.916L1942.475,31.205L1935.925,34.055L1926.75,36.004L1924.125,36.309L1920.2,36.94L1917.575,37.43L1912.35,36.542L1907.1,36.502L1901.85,36.964L1894,38.838L1888.75,37.525L1887.425,36.97L1880.875,38.31L1875.65,39.543L1866.475,41.41L1865.15,40.048L1862.525,42.675L1858.6,39.31L1848.125,41.853L1846.8,43.997L1844.175,40.846L1841.55,43.655L1815.35,34.786L1799.625,27.726L1794.375,27.53L1790.45,26.953L1789.125,26.241L1782.575,25.638L1778.65,26.007L1774.725,26.519L1772.1,26.586L1762.925,26.582L1761.6,26.405L1760.3,25.821L1744.575,25.872L1741.95,24.819L1740.625,24.761L1728.85,25.506L1717.05,29.828L1710.5,27.713L1709.175,24.242L1697.375,26.491L1693.45,20.417L1690.825,23.425L1689.525,24.675L1688.2,28.363L1685.575,34.594L1669.85,33.473L1668.55,41.808L1667.225,51.373L1665.925,51.035L1663.3,51.621L1658.05,52.326L1654.125,52.276L1648.875,51.775L1643.65,51.333L1638.4,49.418L1635.775,49.561L1631.85,48.316L1630.525,45.799L1610.875,48.139L1605.625,49.053L1604.325,49.512L1603,47.668L1601.7,44.978L1600.4,41.296L1593.825,39.198L1591.225,35.211L1589.9,37.299L1588.6,30.926L1576.8,21.932L1575.475,23.288L1568.925,23.258L1563.7,25.916L1562.375,28.689L1561.075,27.123L1558.45,28.194L1554.525,34.671L1551.9,39.436L1550.575,54.186L1549.275,71.466L1545.35,69.229L1530.925,68.166L1529.6,66.822L1527,65.273L1521.75,66.102L1520.425,65.822L1516.5,65.037L1508.65,62.941L1503.4,61.2L1502.075,59.934L1499.475,59.358L1495.525,57.695L1487.675,57.532L1486.35,54.098L1477.175,52.68L1474.55,55.809L1473.25,56.131L1471.95,49.924L1469.325,46.883L1465.375,33.083L1456.2,14.236L1444.425,15.059L1443.1,15.832L1437.85,18.597L1433.925,19.929L1431.3,22.603L1419.5,22.781L1416.9,22.735L1410.325,23.069L1409.025,24.489L1407.725,25.357L1406.4,26.002L1405.1,26.303L1401.15,25.978L1395.925,28.177L1394.6,27.001L1371.025,25.458L1364.45,23.674L1361.85,25.324L1360.525,24.836L1348.725,23.95L1344.8,26.418L1342.175,30.539L1338.25,34.983L1335.625,40.336L1321.2,49.48L1319.9,60.02L1317.275,60.08L1314.65,59.947L1308.1,59.444L1301.55,60.14L1291.05,60.33L1272.7,60.075L1264.85,60.885L1256.975,61.636L1255.675,62.08L1254.35,62.373L1243.875,62.724L1242.575,63.036L1237.325,62.685L1228.15,61.766L1226.825,62.505L1224.2,62.992L1222.9,58.314L1221.6,54.016L1220.275,47.267L1216.35,38.187L1209.8,29.021L1204.55,32.634L1200.625,39.818L1194.075,38.637L1191.45,40.496L1190.125,54.784L1187.5,54.647L1183.575,54.589L1174.4,53.99L1163.925,53.416L1144.25,54.28L1142.95,53.452L1137.7,52.454L1136.4,52.633L1135.075,53.142L1128.525,51.235L1121.975,50.184L1119.35,52.517L1118.05,50.848L1101,51.398L1094.45,51.658L1093.15,51.128L1082.65,46.273L1080.025,40.351L1074.8,46.593L1072.175,50.634L1069.55,38.66L1066.925,48.484L1061.675,60.024L1059.05,76.821L1048.575,75.524L1024.975,75.071L1021.05,75.539L1019.75,75.149L1014.5,74.59L1013.175,74.186L1009.25,75.005L1005.325,74.665L1004,73.327L1001.4,74.54L998.775,72.09L993.525,70.765L983.05,68.629L979.1,70.632L975.175,69.689L969.925,66.266L967.3,58.678L963.375,58.097L962.075,49.727L960.75,36.409L958.125,19.454L950.275,21.605L945.025,22.831L941.1,25.896L935.85,29.818L929.3,34.23L928,32.392L920.125,33.326L918.825,37.379L917.5,43.842L916.2,42.377L914.875,44.584L912.25,45.189L909.65,45.456L901.775,45.791L899.15,45.639L896.525,44.727L895.225,46.154L892.6,44.311L888.675,42.916L886.05,44.656L867.7,44.34L866.375,43.272L857.2,43.54L855.9,41.04L851.975,39.594L850.65,36.34L840.175,38.368L837.55,36.642L836.25,34.449L825.75,30.24L820.5,35.666L819.2,38.157L813.95,41.32L810.025,50.452L795.6,50.424L794.3,50.615L791.675,50.784L782.5,50.96L778.575,50.907L770.7,51.644L768.075,52.186L766.775,53.495L760.225,55.017L756.275,53.661L749.725,55.345L748.425,56.144L747.1,56.73L745.8,58.161L743.175,60.845L740.55,61.146L724.825,61.195L720.9,58.986L715.65,57.185L707.8,54.564L699.925,46.062L698.625,47.54L692.05,49.315L690.75,50.066L685.5,52.355L684.2,55.661L682.875,57.559L680.275,59.924L678.95,58.014L676.325,61.253L675.025,69.113L664.525,82.073L663.225,80.756L655.35,80.758L652.75,81.258L651.425,80.412L644.875,81.195L643.575,82.085L635.7,82.327L634.4,82.744L631.775,84.577L627.825,85.106L604.25,84.884L588.525,85.514L564.925,88.284L562.3,85.336L558.375,87.102L554.425,89.97L550.5,91.415L547.875,98.807L546.575,100.276L545.25,101.784L541.325,91.357L537.4,103.205L533.475,118.487L532.15,116.226L524.3,117.243L522.975,116.024L517.725,114.509L516.425,114.706L515.125,113.572L512.5,111.924L509.875,111.32L504.625,109.02L502,107.172L499.375,103.122L490.2,104.496L483.65,100.153L482.35,95.436L481.025,92.664L478.425,87.961L475.8,82.963L470.55,74.761L469.25,71.863L465.3,60.859L458.75,45.777L449.575,46.776L446.95,46.409L445.65,47.27L440.4,47.994L439.1,45.559L435.15,45.901L432.55,46.479L431.225,49.558L425.975,53.332L423.375,56.288L416.8,64.594L415.5,76.227L414.2,90.174L410.25,90.958L407.625,90.369L406.325,89.672L405,88.96L398.45,88.856L394.525,88.717L385.35,88.245L382.725,88.583L380.1,88.815L378.8,87.868L376.175,87.109L374.875,85.786L372.25,88.744L363.075,90.075L360.45,90.817L351.275,89.847L349.95,88.232L344.725,87.243L342.1,81.788L332.925,71.983L331.6,60.332L322.425,59.162L314.575,59.318L310.65,61.585L308.025,61.413L304.075,62.952L300.15,66.02L297.525,68.416L296.225,72.569L294.9,81.922L293.6,96.313L292.3,97.05L290.975,98.803L287.05,98.455L281.8,98.524L275.25,98.183L272.625,97.174L268.7,97.719L258.2,96.9L255.6,96.152L252.975,95.406L242.475,94.457L235.925,96.915L232,98.654L226.75,98.892L225.45,102.329L221.5,105.098L220.2,105.657L217.575,104.199L214.95,102.762L203.15,101.683L196.6,98.252L195.3,113.254L176.95,115.094L174.325,117.608L173.025,120.077L158.6,123.36L153.35,126.271L146.8,129.993L145.5,135.768L138.925,144.545L131.075,154.405L127.15,164.294L124.525,176.332L123.2,188.546L115.35,202.167L111.4,216.393L110.1,228.649L99.625,241.682L91.75,257.83L77.325,264.471L72.1,266.522L70.775,266.817L58.975,259.968L56.35,269.273L43.25,279.062L23.6,289.888L20.975,301.868L14.425,316.094L13.1,331.199Z" fill="#4c78a8" opacity="0.25"/></g></g><path class="foreground" aria-hidden="true" d="" display="none"/></g></g><g class="mark-group role-scope layer_1_pathgroup" role="graphics-object" aria-roledescription="group mark container"><g transform="translate(0,0)"><path class="background" aria-hidden="true" d="M0,0h1000v400h-1000Z"/><g><g class="mark-line role-mark layer_1_marks" clip-path="url(#clip2)" role="graphics-object" aria-roledescription="line mark container"><path aria-label="Training Steps (Millions): 5.24; smooth_iqm: 1376.01717984; Algorithm: adam; Step (M): 5.24; Smoothed IQM: 1376.02; Seeds: 1" role="graphics-symbol" aria-roledescription="line mark" d="M13.1,331.199L14.425,316.094L20.975,301.868L23.6,289.888L43.25,279.062L56.35,269.273L58.975,259.968L70.775,266.817L72.1,266.522L77.325,264.471L91.75,257.83L99.625,241.682L110.1,228.649L111.4,216.393L115.35,202.167L123.2,188.546L124.525,176.332L127.15,164.294L131.075,154.405L138.925,144.545L145.5,135.768L146.8,129.993L153.35,126.271L158.6,123.36L173.025,120.077L174.325,117.608L176.95,115.094L195.3,113.254L196.6,98.252L203.15,101.683L214.95,102.762L217.575,104.199L220.2,105.657L221.5,105.098L225.45,102.329L226.75,98.892L232,98.654L235.925,96.915L242.475,94.457L252.975,95.406L255.6,96.152L258.2,96.9L268.7,97.719L272.625,97.174L275.25,98.183L281.8,98.524L287.05,98.455L290.975,98.803L292.3,97.05L293.6,96.313L294.9,81.922L296.225,72.569L297.525,68.416L300.15,66.02L304.075,62.952L308.025,61.413L310.65,61.585L314.575,59.318L322.425,59.162L331.6,60.332L332.925,71.983L342.1,81.788L344.725,87.243L349.95,88.232L351.275,89.847L360.45,90.817L363.075,90.075L372.25,88.744L374.875,85.786L376.175,87.109L378.8,87.868L380.1,88.815L382.725,88.583L385.35,88.245L394.525,88.717L398.45,88.856L405,88.96L406.325,89.672L407.625,90.369L410.25,90.958L414.2,90.174L415.5,76.227L416.8,64.594L423.375,56.288L425.975,53.332L431.225,49.558L432.55,46.479L435.15,45.901L439.1,45.559L440.4,47.994L445.65,47.27L446.95,46.409L449.575,46.776L458.75,45.777L465.3,60.859L469.25,71.863L470.55,74.761L475.8,82.963L478.425,87.961L481.025,92.664L482.35,95.436L483.65,100.153L490.2,104.496L499.375,103.122L502,107.172L504.625,109.02L509.875,111.32L512.5,111.924L515.125,113.572L516.425,114.706L517.725,114.509L522.975,116.024L524.3,117.243L532.15,116.226L533.475,118.487L537.4,103.205L541.325,91.357L545.25,101.784L546.575,100.276L547.875,98.807L550.5,91.415L554.425,89.97L558.375,87.102L562.3,85.336L564.925,88.284L588.525,85.514L604.25,84.884L627.825,85.106L631.775,84.577L634.4,82.744L635.7,82.327L643.575,82.085L644.875,81.195L651.425,80.412L652.75,81.258L655.35,80.758L663.225,80.756L664.525,82.073L675.025,69.113L676.325,61.253L678.95,58.014L680.275,59.924L682.875,57.559L684.2,55.661L685.5,52.355L690.75,50.066L692.05,49.315L698.625,47.54L699.925,46.062L707.8,54.564L715.65,57.185L720.9,58.986L724.825,61.195L740.55,61.146L743.175,60.845L745.8,58.161L747.1,56.73L748.425,56.144L749.725,55.345L756.275,53.661L760.225,55.017L766.775,53.495L768.075,52.186L770.7,51.644L778.575,50.907L782.5,50.96L791.675,50.784L794.3,50.615L795.6,50.424L810.025,50.452L813.95,41.32L819.2,38.157L820.5,35.666L825.75,30.24L836.25,34.449L837.55,36.642L840.175,38.368L850.65,36.34L851.975,39.594L855.9,41.04L857.2,43.54L866.375,43.272L867.7,44.34L886.05,44.656L888.675,42.916L892.6,44.311L895.225,46.154L896.525,44.727L899.15,45.639L901.775,45.791L909.65,45.456L912.25,45.189L914.875,44.584L916.2,42.377L917.5,43.842L918.825,37.379L920.125,33.326L928,32.392L929.3,34.23L935.85,29.818L941.1,25.896L945.025,22.831L950.275,21.605L958.125,19.454L960.75,36.409L962.075,49.727L963.375,58.097L967.3,58.678L969.925,66.266L975.175,69.689L979.1,70.632L983.05,68.629L993.525,70.765L998.775,72.09L1001.4,74.54L1004,73.327L1005.325,74.665L1009.25,75.005L1013.175,74.186L1014.5,74.59L1019.75,75.149L1021.05,75.539L1024.975,75.071L1048.575,75.524L1059.05,76.821L1061.675,60.024L1066.925,48.484L1069.55,38.66L1072.175,50.634L1074.8,46.593L1080.025,40.351L1082.65,46.273L1093.15,51.128L1094.45,51.658L1101,51.398L1118.05,50.848L1119.35,52.517L1121.975,50.184L1128.525,51.235L1135.075,53.142L1136.4,52.633L1137.7,52.454L1142.95,53.452L1144.25,54.28L1163.925,53.416L1174.4,53.99L1183.575,54.589L1187.5,54.647L1190.125,54.784L1191.45,40.496L1194.075,38.637L1200.625,39.818L1204.55,32.634L1209.8,29.021L1216.35,38.187L1220.275,47.267L1221.6,54.016L1222.9,58.314L1224.2,62.992L1226.825,62.505L1228.15,61.766L1237.325,62.685L1242.575,63.036L1243.875,62.724L1254.35,62.373L1255.675,62.08L1256.975,61.636L1264.85,60.885L1272.7,60.075L1291.05,60.33L1301.55,60.14L1308.1,59.444L1314.65,59.947L1317.275,60.08L1319.9,60.02L1321.2,49.48L1335.625,40.336L1338.25,34.983L1342.175,30.539L1344.8,26.418L1348.725,23.95L1360.525,24.836L1361.85,25.324L1364.45,23.674L1371.025,25.458L1394.6,27.001L1395.925,28.177L1401.15,25.978L1405.1,26.303L1406.4,26.002L1407.725,25.357L1409.025,24.489L1410.325,23.069L1416.9,22.735L1419.5,22.781L1431.3,22.603L1433.925,19.929L1437.85,18.597L1443.1,15.832L1444.425,15.059L1456.2,14.236L1465.375,33.083L1469.325,46.883L1471.95,49.924L1473.25,56.131L1474.55,55.809L1477.175,52.68L1486.35,54.098L1487.675,57.532L1495.525,57.695L1499.475,59.358L1502.075,59.934L1503.4,61.2L1508.65,62.941L1516.5,65.037L1520.425,65.822L1521.75,66.102L1527,65.273L1529.6,66.822L1530.925,68.166L1545.35,69.229L1549.275,71.466L1550.575,54.186L1551.9,39.436L1554.525,34.671L1558.45,28.194L1561.075,27.123L1562.375,28.689L1563.7,25.916L1568.925,23.258L1575.475,23.288L1576.8,21.932L1588.6,30.926L1589.9,37.299L1591.225,35.211L1593.825,39.198L1600.4,41.296L1601.7,44.978L1603,47.668L1604.325,49.512L1605.625,49.053L1610.875,48.139L1630.525,45.799L1631.85,48.316L1635.775,49.561L1638.4,49.418L1643.65,51.333L1648.875,51.775L1654.125,52.276L1658.05,52.326L1663.3,51.621L1665.925,51.035L1667.225,51.373L1668.55,41.808L1669.85,33.473L1685.575,34.594L1688.2,28.363L1689.525,24.675L1690.825,23.425L1693.45,20.417L1697.375,26.491L1709.175,24.242L1710.5,27.713L1717.05,29.828L1728.85,25.506L1740.625,24.761L1741.95,24.819L1744.575,25.872L1760.3,25.821L1761.6,26.405L1762.925,26.582L1772.1,26.586L1774.725,26.519L1778.65,26.007L1782.575,25.638L1789.125,26.241L1790.45,26.953L1794.375,27.53L1799.625,27.726L1815.35,34.786L1841.55,43.655L1844.175,40.846L1846.8,43.997L1848.125,41.853L1858.6,39.31L1862.525,42.675L1865.15,40.048L1866.475,41.41L1875.65,39.543L1880.875,38.31L1887.425,36.97L1888.75,37.525L1894,38.838L1901.85,36.964L1907.1,36.502L1912.35,36.542L1917.575,37.43L1920.2,36.94L1924.125,36.309L1926.75,36.004L1935.925,34.055L1942.475,31.205L1954.275,27.916L1958.225,29.912L1964.775,29.862L1975.25,31.829L1981.8,28.334L1992.3,32.713L1993.6,31.816L1997.525,32.005L2006.7,31.673L2008.025,33.525L2009.325,32.648L2023.75,32.797L2027.675,34.171L2029,49.639L2031.625,57.372L2034.225,61.605L2038.175,65.356L2046.025,67.575L2049.975,66.186L2065.7,56.722L2081.425,55.083L2097.15,52.473L2102.4,49.982L2128.6,49.532L2132.55,48.448L2133.85,49.88L2140.4,46.112L2141.725,43.605L2146.95,43.544L2157.45,44.333L2158.75,42.318L2160.075,40.684L2161.375,38.915L2162.7,38.668L2165.3,23.399L2175.8,15.436L2177.1,11.931L2178.425,9.178L2179.725,6.997L2191.525,9.13L2192.825,11.005L2198.075,20.69L2208.575,27.39L2221.675,33.926L2225.6,39.256L2226.925,42.412L2232.15,43.56L2233.475,48.225L2237.4,48.258L2242.65,48.315L2243.95,48.385L2254.45,47.082L2257.05,50.949L2263.625,54.557L2264.925,54.815L2267.55,53.45L2270.175,54.934L2275.4,54.563L2281.975,52.485L2288.525,52.173L2289.825,52.339L2292.45,52.883L2293.75,40.462L2304.25,32.489L2309.5,25.314L2312.1,18.751L2313.425,26.492L2317.35,23.921L2333.075,28.737L2338.325,37.413L2344.875,40.994L2346.2,44.769L2348.8,47.216L2354.05,47.811L2365.85,47.131L2369.775,49.442L2380.275,52.45L2385.5,50.62L2386.825,49.16L2388.125,51.564L2397.3,52.232L2398.625,52.059L2405.175,51.871L2409.1,51.255L2426.15,52.593L2432.7,52.414L2435.325,52.471L2436.625,42.858L2447.125,46.301L2449.725,38.813L2454.975,32.184L2460.225,28.354L2461.525,24.076L2468.075,23.724L2470.7,20.79L2472.025,19.49L2478.575,16.377L2479.875,14.127" stroke="#4c78a8" stroke-width="2"/></g></g><path class="foreground" aria-hidden="true" d="" display="none"/></g></g><g class="mark-group role-legend" role="graphics-symbol" aria-roledescription="legend" aria-label="Symbol legend for fill color and stroke color with 1 value: adam"><g transform="translate(18,359)"><path class="background" aria-hidden="true" d="M3.5,0.5L49.5,0.5C51.155745073482,0.5,52.5,1.844254926518,52.5,3.5L52.5,20.5C52.5,22.155745073482,51.155745073482,23.5,49.5,23.5L3.5,23.5C1.844254926518,23.5,0.5,22.155745073482,0.5,20.5L0.5,3.5C0.5,1.844254926518,1.844254926518,0.5,3.5,0.5Z" pointer-events="none" fill="rgba(255,255,255,1)" stroke="gray"/><g><g class="mark-group role-legend-entry"><g transform="translate(5,5)"><path class="background" aria-hidden="true" d="M0,0h0v0h0Z" pointer-events="none"/><g><g class="mark-group role-scope" role="graphics-object" aria-roledescription="group mark container"><g transform="translate(0,0)"><path class="background" aria-hidden="true" d="M0,0h41.0146484375v12.5h-41.0146484375Z" pointer-events="none" opacity="1"/><g><g class="mark-symbol role-legend-symbol" pointer-events="none"><path transform="translate(6,6)" d="M5,0A5,5,0,1,1,-5,0A5,5,0,1,1,5,0" fill="#4c78a8" stroke="#4c78a8" stroke-width="1.5" opacity="1"/></g><g class="mark-text role-legend-label" pointer-events="none"><text text-anchor="start" transform="translate(16,9)" font-family="sans-serif" font-size="10px" fill="#000" opacity="1">adam</text></g></g><path class="foreground" aria-hidden="true" d="" pointer-events="none" display="none"/></g></g></g><path class="foreground" aria-hidden="true" d="" pointer-events="none" display="none"/></g></g></g><path class="foreground" aria-hidden="true" d="" pointer-events="none" display="none"/></g></g><g class="mark-group role-title"><g transform="translate(500,-22)"><path class="background" aria-hidden="true" d="M0,0h0v0h0Z" pointer-events="none"/><g><g class="mark-text role-title-text" role="graphics-symbol" aria-roledescription="title" aria-label="Title text 'Slippery Ant +B: Charts/Mean Episodic Return (IQM)'" pointer-events="none"><text text-anchor="middle" transform="translate(0,10)" font-family="sans-serif" font-size="13px" font-weight="bold" fill="#000" opacity="1">Slippery Ant +B: Charts/Mean Episodic Return (IQM)</text></g></g><path class="foreground" aria-hidden="true" d="" pointer-events="none" display="none"/></g></g></g><path class="foreground" aria-hidden="true" d="" display="none"/></g></g></g><defs><clipPath id="clip1"><rect x="0" y="0" width="1000" height="400"/></clipPath><clipPath id="clip2"><rect x="0" y="0" width="1000" height="400"/></clipPath></defs></svg>