<svg xmlns="http://www.w3.org/2000/svg" xmlns:xlink="http://www.w3.org/1999/xlink" version="1.1" class="marks" width="1059" height="464" viewBox="0 0 1059 464"><rect width="1059" height="464" fill="white"/><g fill="none" stroke-miterlimit="10" transform="translate(53,27)"><g class="mark-group role-frame root" role="graphics-object" aria-roledescription="group mark container"><g transform="translate(0,0)"><path class="background" aria-hidden="true" d="M0.5,0.5h1000v400h-1000Z" stroke="#ddd"/><g><g class="mark-group role-axis" aria-hidden="true"><g transform="translate(0.5,400.5)"><path class="background" aria-hidden="true" d="M0,0h0v0h0Z" pointer-events="none"/><g><g class="mark-rule role-axis-grid" pointer-events="none"><line transform="translate(0,-400)" x2="0" y2="400" stroke="#ddd" stroke-opacity="0.3" stroke-width="1" opacity="1"/><line transform="translate(50,-400)" x2="0" y2="400" stroke="#ddd" stroke-opacity="0.3" stroke-width="1" opacity="1"/><line transform="translate(100,-400)" x2="0" y2="400" stroke="#ddd" stroke-opacity="0.3" stroke-width="1" opacity="1"/><line transform="translate(150,-400)" x2="0" y2="400" stroke="#ddd" stroke-opacity="0.3" stroke-width="1" opacity="1"/><line transform="translate(200,-400)" x2="0" y2="400" stroke="#ddd" stroke-opacity="0.3" stroke-width="1" opacity="1"/><line transform="translate(250,-400)" x2="0" y2="400" stroke="#ddd" stroke-opacity="0.3" stroke-width="1" opacity="1"/><line transform="translate(300,-400)" x2="0" y2="400" stroke="#ddd" stroke-opacity="0.3" stroke-width="1" opacity="1"/><line transform="translate(350,-400)" x2="0" y2="400" stroke="#ddd" stroke-opacity="0.3" stroke-width="1" opacity="1"/><line transform="translate(400,-400)" x2="0" y2="400" stroke="#ddd" stroke-opacity="0.3" stroke-width="1" opacity="1"/><line transform="translate(450,-400)" x2="0" y2="400" stroke="#ddd" stroke-opacity="0.3" stroke-width="1" opacity="1"/><line transform="translate(500,-400)" x2="0" y2="400" stroke="#ddd" stroke-opacity="0.3" stroke-width="1" opacity="1"/><line transform="translate(550,-400)" x2="0" y2="400" stroke="#ddd" stroke-opacity="0.3" stroke-width="1" opacity="1"/><line transform="translate(600,-400)" x2="0" y2="400" stroke="#ddd" stroke-opacity="0.3" stroke-width="1" opacity="1"/><line transform="translate(650,-400)" x2="0" y2="400" stroke="#ddd" stroke-opacity="0.3" stroke-width="1" opacity="1"/><line transform="translate(700,-400)" x2="0" y2="400" stroke="#ddd" stroke-opacity="0.3" stroke-width="1" opacity="1"/><line transform="translate(750,-400)" x2="0" y2="400" stroke="#ddd" stroke-opacity="0.3" stroke-width="1" opacity="1"/><line transform="translate(800,-400)" x2="0" y2="400" stroke="#ddd" stroke-opacity="0.3" stroke-width="1" opacity="1"/><line transform="translate(850,-400)" x2="0" y2="400" stroke="#ddd" stroke-opacity="0.3" stroke-width="1" opacity="1"/><line transform="translate(900,-400)" x2="0" y2="400" stroke="#ddd" stroke-opacity="0.3" stroke-width="1" opacity="1"/><line transform="translate(950,-400)" x2="0" y2="400" stroke="#ddd" stroke-opacity="0.3" stroke-width="1" opacity="1"/><line transform="translate(1000,-400)" x2="0" y2="400" stroke="#ddd" stroke-opacity="0.3" stroke-width="1" opacity="1"/></g></g><path class="foreground" aria-hidden="true" d="" pointer-events="none" display="none"/></g></g><g class="mark-group role-axis" aria-hidden="true"><g transform="translate(0.5,0.5)"><path class="background" aria-hidden="true" d="M0,0h0v0h0Z" pointer-events="none"/><g><g class="mark-rule role-axis-grid" pointer-events="none"><line transform="translate(0,400)" x2="1000" y2="0" stroke="#ddd" stroke-opacity="0.3" stroke-width="1" opacity="1"/><line transform="translate(0,350)" x2="1000" y2="0" stroke="#ddd" stroke-opacity="0.3" stroke-width="1" opacity="1"/><line transform="translate(0,300)" x2="1000" y2="0" stroke="#ddd" stroke-opacity="0.3" stroke-width="1" opacity="1"/><line transform="translate(0,250)" x2="1000" y2="0" stroke="#ddd" stroke-opacity="0.3" stroke-width="1" opacity="1"/><line transform="translate(0,200)" x2="1000" y2="0" stroke="#ddd" stroke-opacity="0.3" stroke-width="1" opacity="1"/><line transform="translate(0,150)" x2="1000" y2="0" stroke="#ddd" stroke-opacity="0.3" stroke-width="1" opacity="1"/><line transform="translate(0,100)" x2="1000" y2="0" stroke="#ddd" stroke-opacity="0.3" stroke-width="1" opacity="1"/><line transform="translate(0,50)" x2="1000" y2="0" stroke="#ddd" stroke-opacity="0.3" stroke-width="1" opacity="1"/><line transform="translate(0,0)" x2="1000" y2="0" stroke="#ddd" stroke-opacity="0.3" stroke-width="1" opacity="1"/></g></g><path class="foreground" aria-hidden="true" d="" pointer-events="none" display="none"/></g></g><g class="mark-group role-axis" role="graphics-symbol" aria-roledescription="axis" aria-label="X-axis titled 'Training Steps (Millions)' for a linear scale with values from 0 to 400"><g transform="translate(0.5,400.5)"><path class="background" aria-hidden="true" d="M0,0h0v0h0Z" pointer-events="none"/><g><g class="mark-rule role-axis-tick" pointer-events="none"><line transform="translate(0,0)" x2="0" y2="5" stroke="#888" stroke-width="1" opacity="1"/><line transform="translate(50,0)" x2="0" y2="5" stroke="#888" stroke-width="1" opacity="1"/><line transform="translate(100,0)" x2="0" y2="5" stroke="#888" stroke-width="1" opacity="1"/><line transform="translate(150,0)" x2="0" y2="5" stroke="#888" stroke-width="1" opacity="1"/><line transform="translate(200,0)" x2="0" y2="5" stroke="#888" stroke-width="1" opacity="1"/><line transform="translate(250,0)" x2="0" y2="5" stroke="#888" stroke-width="1" opacity="1"/><line transform="translate(300,0)" x2="0" y2="5" stroke="#888" stroke-width="1" opacity="1"/><line transform="translate(350,0)" x2="0" y2="5" stroke="#888" stroke-width="1" opacity="1"/><line transform="translate(400,0)" x2="0" y2="5" stroke="#888" stroke-width="1" opacity="1"/><line transform="translate(450,0)" x2="0" y2="5" stroke="#888" stroke-width="1" opacity="1"/><line transform="translate(500,0)" x2="0" y2="5" stroke="#888" stroke-width="1" opacity="1"/><line transform="translate(550,0)" x2="0" y2="5" stroke="#888" stroke-width="1" opacity="1"/><line transform="translate(600,0)" x2="0" y2="5" stroke="#888" stroke-width="1" opacity="1"/><line transform="translate(650,0)" x2="0" y2="5" stroke="#888" stroke-width="1" opacity="1"/><line transform="translate(700,0)" x2="0" y2="5" stroke="#888" stroke-width="1" opacity="1"/><line transform="translate(750,0)" x2="0" y2="5" stroke="#888" stroke-width="1" opacity="1"/><line transform="translate(800,0)" x2="0" y2="5" stroke="#888" stroke-width="1" opacity="1"/><line transform="translate(850,0)" x2="0" y2="5" stroke="#888" stroke-width="1" opacity="1"/><line transform="translate(900,0)" x2="0" y2="5" stroke="#888" stroke-width="1" opacity="1"/><line transform="translate(950,0)" x2="0" y2="5" stroke="#888" stroke-width="1" opacity="1"/><line transform="translate(1000,0)" x2="0" y2="5" stroke="#888" stroke-width="1" opacity="1"/></g><g class="mark-text role-axis-label" pointer-events="none"><text text-anchor="start" transform="translate(0,15)" font-family="sans-serif" font-size="10px" fill="#000" opacity="1">0</text><text text-anchor="middle" transform="translate(50,15)" font-family="sans-serif" font-size="10px" fill="#000" opacity="1">20</text><text text-anchor="middle" transform="translate(100,15)" font-family="sans-serif" font-size="10px" fill="#000" opacity="1">40</text><text text-anchor="middle" transform="translate(150,15)" font-family="sans-serif" font-size="10px" fill="#000" opacity="1">60</text><text text-anchor="middle" transform="translate(200,15)" font-family="sans-serif" font-size="10px" fill="#000" opacity="1">80</text><text text-anchor="middle" transform="translate(250,15)" font-family="sans-serif" font-size="10px" fill="#000" opacity="1">100</text><text text-anchor="middle" transform="translate(300,15)" font-family="sans-serif" font-size="10px" fill="#000" opacity="1">120</text><text text-anchor="middle" transform="translate(350,15)" font-family="sans-serif" font-size="10px" fill="#000" opacity="1">140</text><text text-anchor="middle" transform="translate(400,15)" font-family="sans-serif" font-size="10px" fill="#000" opacity="1">160</text><text text-anchor="middle" transform="translate(450,15)" font-family="sans-serif" font-size="10px" fill="#000" opacity="1">180</text><text text-anchor="middle" transform="translate(500,15)" font-family="sans-serif" font-size="10px" fill="#000" opacity="1">200</text><text text-anchor="middle" transform="translate(550,15)" font-family="sans-serif" font-size="10px" fill="#000" opacity="1">220</text><text text-anchor="middle" transform="translate(600,15)" font-family="sans-serif" font-size="10px" fill="#000" opacity="1">240</text><text text-anchor="middle" transform="translate(650,15)" font-family="sans-serif" font-size="10px" fill="#000" opacity="1">260</text><text text-anchor="middle" transform="translate(700,15)" font-family="sans-serif" font-size="10px" fill="#000" opacity="1">280</text><text text-anchor="middle" transform="translate(750,15)" font-family="sans-serif" font-size="10px" fill="#000" opacity="1">300</text><text text-anchor="middle" transform="translate(800,15)" font-family="sans-serif" font-size="10px" fill="#000" opacity="1">320</text><text text-anchor="middle" transform="translate(850,15)" font-family="sans-serif" font-size="10px" fill="#000" opacity="1">340</text><text text-anchor="middle" transform="translate(900,15)" font-family="sans-serif" font-size="10px" fill="#000" opacity="1">360</text><text text-anchor="middle" transform="translate(950,15)" font-family="sans-serif" font-size="10px" fill="#000" opacity="1">380</text><text text-anchor="end" transform="translate(1000,15)" font-family="sans-serif" font-size="10px" fill="#000" opacity="1">400</text></g><g class="mark-rule role-axis-domain" pointer-events="none"><line transform="translate(0,0)" x2="1000" y2="0" stroke="#888" stroke-width="1" opacity="1"/></g><g class="mark-text role-axis-title" pointer-events="none"><text text-anchor="middle" transform="translate(500,30)" font-family="sans-serif" font-size="11px" font-weight="bold" fill="#000" opacity="1">Training Steps (Millions)</text></g></g><path class="foreground" aria-hidden="true" d="" pointer-events="none" display="none"/></g></g><g class="mark-group role-axis" role="graphics-symbol" aria-roledescription="axis" aria-label="Y-axis titled 'Charts/Mean Episodic Return' for a linear scale with values from 0 to 8,000"><g transform="translate(0.5,0.5)"><path class="background" aria-hidden="true" d="M0,0h0v0h0Z" pointer-events="none"/><g><g class="mark-rule role-axis-tick" pointer-events="none"><line transform="translate(0,400)" x2="-5" y2="0" stroke="#888" stroke-width="1" opacity="1"/><line transform="translate(0,350)" x2="-5" y2="0" stroke="#888" stroke-width="1" opacity="1"/><line transform="translate(0,300)" x2="-5" y2="0" stroke="#888" stroke-width="1" opacity="1"/><line transform="translate(0,250)" x2="-5" y2="0" stroke="#888" stroke-width="1" opacity="1"/><line transform="translate(0,200)" x2="-5" y2="0" stroke="#888" stroke-width="1" opacity="1"/><line transform="translate(0,150)" x2="-5" y2="0" stroke="#888" stroke-width="1" opacity="1"/><line transform="translate(0,100)" x2="-5" y2="0" stroke="#888" stroke-width="1" opacity="1"/><line transform="translate(0,50)" x2="-5" y2="0" stroke="#888" stroke-width="1" opacity="1"/><line transform="translate(0,0)" x2="-5" y2="0" stroke="#888" stroke-width="1" opacity="1"/></g><g class="mark-text role-axis-label" pointer-events="none"><text text-anchor="end" transform="translate(-7,403)" font-family="sans-serif" font-size="10px" fill="#000" opacity="1">0</text><text text-anchor="end" transform="translate(-7,353)" font-family="sans-serif" font-size="10px" fill="#000" opacity="1">1,000</text><text text-anchor="end" transform="translate(-7,303)" font-family="sans-serif" font-size="10px" fill="#000" opacity="1">2,000</text><text text-anchor="end" transform="translate(-7,253)" font-family="sans-serif" font-size="10px" fill="#000" opacity="1">3,000</text><text text-anchor="end" transform="translate(-7,203)" font-family="sans-serif" font-size="10px" fill="#000" opacity="1">4,000</text><text text-anchor="end" transform="translate(-7,153)" font-family="sans-serif" font-size="10px" fill="#000" opacity="1">5,000</text><text text-anchor="end" transform="translate(-7,103)" font-family="sans-serif" font-size="10px" fill="#000" opacity="1">6,000</text><text text-anchor="end" transform="translate(-7,53)" font-family="sans-serif" font-size="10px" fill="#000" opacity="1">7,000</text><text text-anchor="end" transform="translate(-7,3)" font-family="sans-serif" font-size="10px" fill="#000" opacity="1">8,000</text></g><g class="mark-rule role-axis-domain" pointer-events="none"><line transform="translate(0,400)" x2="0" y2="-400" stroke="#888" stroke-width="1" opacity="1"/></g><g class="mark-text role-axis-title" pointer-events="none"><text text-anchor="middle" transform="translate(-36.0244140625,200) rotate(-90) translate(0,-2)" font-family="sans-serif" font-size="11px" font-weight="bold" fill="#000" opacity="1">Charts/Mean Episodic Return</text></g></g><path class="foreground" aria-hidden="true" d="" pointer-events="none" display="none"/></g></g><g class="mark-group role-scope view_1_pathgroup" role="graphics-object" aria-roledescription="group mark container"><g transform="translate(0,0)"><path class="background" aria-hidden="true" d="M0,0h1000v400h-1000Z"/><g><g class="mark-area role-mark view_1_marks" clip-path="url(#clip1)" role="graphics-object" aria-roledescription="area mark container"><path aria-label="Training Steps (Millions): 1.57; Charts/Mean Episodic Return: 30.8392848535; smooth_q75: 30.8392848535; Algorithm: adam" role="graphics-symbol" aria-roledescription="area mark" d="M3.925,398.458L5.25,396.771L9.175,394.396L10.475,391.48L14.425,387.743L18.35,383.766L24.9,379.698L26.225,375.89L30.15,370.044L34.075,364.37L40.625,358.52L45.875,349.801L51.125,340.19L55.05,328.099L58.975,315.651L61.6,303.22L62.925,290.431L64.225,277.306L74.7,276.635L76.025,274.254L78.65,266.037L81.275,259.1L86.5,251.828L104.85,243.676L106.175,229.794L108.8,222.553L110.1,213.409L121.9,203.949L127.15,193.862L128.45,186.842L132.375,179.74L137.625,171.172L138.925,166.169L140.25,161.677L146.8,158.468L148.1,155.19L152.05,151.815L154.675,148.328L155.975,145.051L163.85,130.151L165.15,117.298L167.775,109.891L169.075,100.877L171.7,93.173L190.05,95.718L199.225,102.434L209.725,101.092L211.025,96.056L218.9,95.046L222.825,94.211L226.75,92.353L239.85,90.456L249.025,90.956L250.35,88.565L255.6,85.851L256.9,84.498L258.2,83.623L271.325,82.446L284.425,81.877L294.9,82.025L297.525,81.274L298.85,80.153L315.875,78.547L318.5,78.368L327.675,93.299L331.6,90.311L339.475,85.679L340.775,82.777L348.65,84.622L356.525,84.007L357.825,83.597L361.75,82.29L363.075,82.496L364.375,82.566L377.475,81.146L387.975,81.72L393.225,81.747L394.525,81.534L395.825,80.058L402.4,80.919L411.575,80.094L415.5,78.254L420.75,77.646L422.05,78.381L427.3,78.346L429.925,63.521L432.55,56.989L433.85,54.171L437.775,52.068L441.725,50.201L445.65,48.791L448.275,61.371L456.125,70.137L461.375,75.398L470.55,78.474L481.025,80.689L482.35,81.313L484.975,82.524L487.6,83.443L499.375,85.848L500.7,84.574L503.325,86.205L505.95,87.848L513.8,88.85L522.975,89.037L529.525,89.038L537.4,88.596L543.95,88.281L559.675,88.294L561,87.554L562.3,88.716L564.925,88.36L567.55,74.572L574.1,64.756L579.35,58.398L585.9,54.114L588.525,53.02L597.7,55.122L600.3,57.146L604.25,59.85L605.55,61.26L610.8,60.278L612.1,61.41L613.425,62.556L621.275,61.988L622.6,62.438L625.225,63.014L634.4,62.88L639.625,63.56L640.95,62.589L651.425,62.613L667.15,62.929L668.475,62.297L671.1,61.874L675.025,62.347L684.2,60.91L689.45,60.413L710.4,59.238L713.025,54.731L718.275,50.713L723.525,44.647L727.45,43.499L728.75,45.841L730.075,43.485L735.325,42.412L737.925,41.528L739.25,38.833L744.5,38.133L748.425,38.344L749.725,36.807L772.025,37.711L777.25,37.289L785.125,36.074L786.425,35.531L787.75,33.534L790.375,32.476L792.975,32.45L794.3,31.828L796.925,32.37L802.15,32.298L807.4,32.22L810.025,33.856L816.575,32.601L819.2,31.352L823.125,30.344L829.675,46.07L834.925,55.655L840.175,62.585L848.025,67.704L849.35,70.526L857.2,72.848L858.525,75.467L865.075,73.842L867.7,74.805L871.625,75.874L876.875,79.046L880.8,79.414L888.675,79.783L889.975,80.35L891.3,79.554L893.9,79.282L897.85,78.691L907.025,77.995L912.25,76.682L914.875,75.622L920.125,74.979L926.675,58.149L934.55,48.47L942.4,41.976L945.025,34.431L951.575,29.608L952.9,26.843L955.525,22.772L956.825,23.541L959.45,22.57L962.075,36.072L969.925,43.882L971.25,48.327L977.8,53.006L979.1,53.701L981.725,53.596L983.05,52.298L984.35,56.473L985.65,58.761L992.225,61.248L1002.7,63.036L1005.325,63.961L1014.5,62.355L1022.35,63.345L1027.6,64.618L1030.225,66.945L1031.525,68.266L1032.85,68.607L1035.475,70.133L1036.775,71.951L1038.1,72.886L1040.7,59.033L1042.025,49.666L1044.65,44.353L1045.95,39.626L1056.45,38.359L1065.625,38.551L1069.55,56.944L1073.475,64.915L1083.975,65.099L1085.275,66.15L1090.525,66.049L1108.875,67.34L1112.8,69.619L1116.725,69.476L1118.05,70.961L1119.35,71.681L1127.225,70.513L1129.85,71.564L1135.075,70.464L1148.2,69.523L1159.975,68.323L1161.3,67.985L1162.6,67.583L1170.475,69.064L1179.65,69.436L1180.95,69.42L1186.2,68.809L1190.125,51.717L1192.75,56.407L1194.075,68.738L1195.375,72.803L1200.625,78.208L1204.55,81.078L1221.6,83.179L1222.9,83.811L1224.2,82.503L1236,81.766L1245.175,82.249L1251.75,80.935L1253.05,80.326L1256.975,80.358L1262.225,79.541L1264.85,79.043L1275.325,77.859L1296.3,77.498L1298.925,76.888L1300.225,76.652L1315.975,76.57L1317.275,76.445L1321.2,59.502L1323.825,44.504L1325.15,36.05L1326.45,29.047L1343.5,39.016L1344.8,47.993L1346.1,48.093L1351.35,53.869L1359.225,59.648L1360.525,63.918L1364.45,62.277L1371.025,64.419L1373.625,65.108L1376.25,65.099L1378.875,64.299L1380.2,65.754L1385.425,66.331L1388.05,65.974L1389.375,64.154L1390.675,64.738L1407.725,66.374L1410.325,66.278L1411.65,65.881L1415.575,66.717L1416.9,65.206L1424.75,49.996L1432.625,52.64L1436.55,62.787L1437.85,57.196L1449.65,52.546L1450.975,49.398L1464.075,54.443L1468,54.577L1471.95,54.404L1479.8,56.017L1486.35,57.273L1503.4,57.457L1504.7,57.024L1520.425,57.27L1527,57.804L1529.6,58.117L1534.85,57.286L1554.525,56.275L1558.45,56.888L1563.7,56.931L1565,57.24L1566.3,57.9L1568.925,42.602L1570.25,47.458L1572.875,50.649L1584.65,52.512L1585.975,49.014L1604.325,49.262L1608.25,50.504L1610.875,51.814L1613.5,52.48L1614.8,53.252L1625.3,53.603L1626.6,53.056L1633.15,53.351L1639.7,54.523L1646.275,51.853L1648.875,51.986L1650.2,53.703L1659.375,53.126L1660.675,52.587L1671.175,53.644L1672.475,51.814L1675.1,51.924L1684.275,34.369L1685.575,29.812L1686.9,25.569L1688.2,26.504L1689.525,29.759L1694.75,28.873L1706.55,35.68L1717.05,34.673L1718.35,31.455L1720.975,30.027L1724.9,31.106L1726.225,30.693L1730.15,29.783L1747.2,32.917L1757.675,32.881L1760.3,32.827L1762.925,34.205L1770.775,34.32L1772.1,34.259L1791.75,34.194L1798.3,34.016L1800.925,33.05L1802.25,33.001L1804.85,47.865L1806.175,55.018L1824.525,49.347L1828.45,49.88L1832.375,41.374L1837.625,38.53L1854.675,41.614L1858.6,41.458L1863.85,39.716L1865.15,39.756L1878.25,40.277L1888.75,39.162L1894,37.608L1899.225,34.854L1904.475,34.098L1907.1,34.793L1913.65,34.915L1916.275,34.958L1925.45,35.502L1934.625,37.148L1935.925,36.797L1945.1,21.085L1946.425,14.795L1947.725,12.804L1950.35,9.617L1963.45,8.491L1973.95,14.569L1979.175,16.176L1980.5,14.603L1981.8,16.779L1984.425,16.815L1987.05,18.043L1989.675,18.047L1990.975,18.493L1993.6,19.604L2000.15,20.684L2008.025,21.491L2015.875,22.528L2021.125,23.708L2026.375,24.623L2029,24.39L2043.4,26.113L2046.025,27.302L2047.35,25.539L2051.275,26.147L2053.9,25.42L2056.525,26.048L2059.15,21.779L2060.45,18.565L2067,20.483L2068.325,19.815L2073.55,19.958L2077.5,19.092L2082.725,33.621L2085.35,39.307L2091.9,43.494L2095.85,44.254L2097.15,43.148L2098.475,40.006L2099.775,43.617L2106.325,44.526L2110.25,45.225L2118.125,44.471L2128.6,43.599L2137.775,44.436L2139.1,43.322L2141.725,44.535L2145.65,43.584L2146.95,43.89L2149.575,44.766L2152.2,43.713L2161.375,41.275L2164,40.326L2171.875,39.958L2174.475,24.583L2177.1,19.585L2179.725,17.267L2186.275,13.64L2188.9,14.353L2190.225,16.487L2195.45,13.104L2196.775,20.555L2215.125,27.091L2222.975,27.948L2226.925,32.079L2230.85,36.372L2232.15,40.831L2238.7,42.647L2240.025,41.622L2242.65,43.155L2243.95,43.65L2255.75,43.329L2263.625,45.012L2268.85,45.551L2274.1,44.407L2283.275,44.678L2284.575,44.223L2285.9,43.416L2292.45,45.631L2304.25,44.786L2313.425,44.791L2322.6,44.881L2326.525,35.294L2337.025,26.649L2343.575,30.284L2347.5,30L2351.425,24.562L2352.75,23.252L2355.375,25.076L2356.675,29.45L2365.85,28.374L2367.15,25.805L2371.1,29.625L2373.725,29.785L2382.9,31.796L2384.2,34.324L2385.5,33.461L2393.375,34.559L2397.3,35.727L2399.925,36.22L2405.175,38.163L2406.475,38.972L2409.1,38.134L2415.65,39.141L2419.6,41.03L2426.15,35.999L2427.45,33.285L2428.775,35.404L2431.375,34.043L2434,30.351L2437.95,27.633L2440.55,26.651L2447.125,27.835L2449.725,25.987L2452.35,25.966L2462.85,24.448L2464.15,23.669L2465.475,25.649L2470.7,24.744L2473.325,23.324L2477.25,22.194L2483.825,19.604L2496.925,18.192L2496.925,18.192L2483.825,19.604L2477.25,22.194L2473.325,23.324L2470.7,24.744L2465.475,25.649L2464.15,23.669L2462.85,24.448L2452.35,25.966L2449.725,25.987L2447.125,27.835L2440.55,26.651L2437.95,27.633L2434,30.351L2431.375,34.043L2428.775,35.404L2427.45,33.285L2426.15,35.999L2419.6,41.03L2415.65,39.141L2409.1,38.134L2406.475,38.972L2405.175,38.163L2399.925,36.22L2397.3,35.727L2393.375,34.559L2385.5,33.461L2384.2,34.324L2382.9,31.796L2373.725,29.785L2371.1,29.625L2367.15,25.805L2365.85,28.374L2356.675,29.45L2355.375,25.076L2352.75,23.252L2351.425,24.562L2347.5,30L2343.575,30.284L2337.025,26.649L2326.525,35.294L2322.6,44.881L2313.425,44.791L2304.25,44.786L2292.45,45.631L2285.9,43.416L2284.575,44.223L2283.275,44.678L2274.1,44.407L2268.85,45.551L2263.625,45.012L2255.75,43.329L2243.95,43.65L2242.65,43.155L2240.025,41.622L2238.7,42.647L2232.15,40.831L2230.85,36.372L2226.925,32.079L2222.975,27.948L2215.125,27.091L2196.775,20.555L2195.45,13.104L2190.225,16.487L2188.9,14.353L2186.275,13.64L2179.725,17.267L2177.1,19.585L2174.475,24.583L2171.875,39.958L2164,40.326L2161.375,41.275L2152.2,43.713L2149.575,44.766L2146.95,43.89L2145.65,43.584L2141.725,44.535L2139.1,43.322L2137.775,44.436L2128.6,43.599L2118.125,44.471L2110.25,45.225L2106.325,44.526L2099.775,43.617L2098.475,40.006L2097.15,43.148L2095.85,44.254L2091.9,43.494L2085.35,39.307L2082.725,33.621L2077.5,19.092L2073.55,19.958L2068.325,19.815L2067,20.483L2060.45,18.565L2059.15,21.779L2056.525,26.048L2053.9,25.42L2051.275,26.147L2047.35,25.539L2046.025,27.302L2043.4,26.113L2029,24.39L2026.375,24.623L2021.125,23.708L2015.875,22.528L2008.025,21.491L2000.15,20.684L1993.6,19.604L1990.975,18.493L1989.675,18.047L1987.05,18.043L1984.425,16.815L1981.8,16.779L1980.5,14.603L1979.175,16.176L1973.95,14.569L1963.45,8.491L1950.35,9.617L1947.725,12.804L1946.425,14.795L1945.1,21.085L1935.925,36.797L1934.625,37.148L1925.45,35.502L1916.275,34.958L1913.65,34.915L1907.1,34.793L1904.475,34.098L1899.225,34.854L1894,37.608L1888.75,39.162L1878.25,40.277L1865.15,39.756L1863.85,39.716L1858.6,41.458L1854.675,41.614L1837.625,38.53L1832.375,41.374L1828.45,49.88L1824.525,49.347L1806.175,55.018L1804.85,47.865L1802.25,33.001L1800.925,33.05L1798.3,34.016L1791.75,34.194L1772.1,34.259L1770.775,34.32L1762.925,34.205L1760.3,32.827L1757.675,32.881L1747.2,32.917L1730.15,29.783L1726.225,30.693L1724.9,31.106L1720.975,30.027L1718.35,31.455L1717.05,34.673L1706.55,35.68L1694.75,28.873L1689.525,29.759L1688.2,26.504L1686.9,25.569L1685.575,29.812L1684.275,34.369L1675.1,51.924L1672.475,51.814L1671.175,53.644L1660.675,52.587L1659.375,53.126L1650.2,53.703L1648.875,51.986L1646.275,51.853L1639.7,54.523L1633.15,53.351L1626.6,53.056L1625.3,53.603L1614.8,53.252L1613.5,52.48L1610.875,51.814L1608.25,50.504L1604.325,49.262L1585.975,49.014L1584.65,52.512L1572.875,50.649L1570.25,47.458L1568.925,42.602L1566.3,57.9L1565,57.24L1563.7,56.931L1558.45,56.888L1554.525,56.275L1534.85,57.286L1529.6,58.117L1527,57.804L1520.425,57.27L1504.7,57.024L1503.4,57.457L1486.35,57.273L1479.8,56.017L1471.95,54.404L1468,54.577L1464.075,54.443L1450.975,49.398L1449.65,52.546L1437.85,57.196L1436.55,62.787L1432.625,52.64L1424.75,49.996L1416.9,65.206L1415.575,66.717L1411.65,65.881L1410.325,66.278L1407.725,66.374L1390.675,64.738L1389.375,64.154L1388.05,65.974L1385.425,66.331L1380.2,65.754L1378.875,64.299L1376.25,65.099L1373.625,65.108L1371.025,64.419L1364.45,62.277L1360.525,63.918L1359.225,59.648L1351.35,53.869L1346.1,48.093L1344.8,47.993L1343.5,39.016L1326.45,29.047L1325.15,36.05L1323.825,44.504L1321.2,59.502L1317.275,76.445L1315.975,76.57L1300.225,76.652L1298.925,76.888L1296.3,77.498L1275.325,77.859L1264.85,79.043L1262.225,79.541L1256.975,80.358L1253.05,80.326L1251.75,80.935L1245.175,82.249L1236,81.766L1224.2,82.503L1222.9,83.811L1221.6,83.179L1204.55,81.078L1200.625,78.208L1195.375,72.803L1194.075,68.738L1192.75,56.407L1190.125,51.717L1186.2,68.809L1180.95,69.42L1179.65,69.436L1170.475,69.064L1162.6,67.583L1161.3,67.985L1159.975,68.323L1148.2,69.523L1135.075,70.464L1129.85,71.564L1127.225,70.513L1119.35,71.681L1118.05,70.961L1116.725,69.476L1112.8,69.619L1108.875,67.34L1090.525,66.049L1085.275,66.15L1083.975,65.099L1073.475,64.915L1069.55,56.944L1065.625,38.551L1056.45,38.359L1045.95,39.626L1044.65,44.353L1042.025,49.666L1040.7,59.033L1038.1,72.886L1036.775,71.951L1035.475,70.133L1032.85,68.607L1031.525,68.266L1030.225,66.945L1027.6,64.618L1022.35,63.345L1014.5,62.355L1005.325,63.961L1002.7,63.036L992.225,61.248L985.65,58.761L984.35,56.473L983.05,52.298L981.725,53.596L979.1,53.701L977.8,53.006L971.25,48.327L969.925,43.882L962.075,36.072L959.45,22.57L956.825,23.541L955.525,22.772L952.9,26.843L951.575,29.608L945.025,34.431L942.4,41.976L934.55,48.47L926.675,58.149L920.125,74.979L914.875,75.622L912.25,76.682L907.025,77.995L897.85,78.691L893.9,79.282L891.3,79.554L889.975,80.35L888.675,79.783L880.8,79.414L876.875,79.046L871.625,75.874L867.7,74.805L865.075,73.842L858.525,75.467L857.2,72.848L849.35,70.526L848.025,67.704L840.175,62.585L834.925,55.655L829.675,46.07L823.125,30.344L819.2,31.352L816.575,32.601L810.025,33.856L807.4,32.22L802.15,32.298L796.925,32.37L794.3,31.828L792.975,32.45L790.375,32.476L787.75,33.534L786.425,35.531L785.125,36.074L777.25,37.289L772.025,37.711L749.725,36.807L748.425,38.344L744.5,38.133L739.25,38.833L737.925,41.528L735.325,42.412L730.075,43.485L728.75,45.841L727.45,43.499L723.525,44.647L718.275,50.713L713.025,54.731L710.4,59.238L689.45,60.413L684.2,60.91L675.025,62.347L671.1,61.874L668.475,62.297L667.15,62.929L651.425,62.613L640.95,62.589L639.625,63.56L634.4,62.88L625.225,63.014L622.6,62.438L621.275,61.988L613.425,62.556L612.1,61.41L610.8,60.278L605.55,61.26L604.25,59.85L600.3,57.146L597.7,55.122L588.525,53.02L585.9,54.114L579.35,58.398L574.1,64.756L567.55,74.572L564.925,88.36L562.3,88.716L561,87.554L559.675,88.294L543.95,88.281L537.4,88.596L529.525,89.038L522.975,89.037L513.8,88.85L505.95,87.848L503.325,86.205L500.7,84.574L499.375,85.848L487.6,83.443L484.975,82.524L482.35,81.313L481.025,80.689L470.55,78.474L461.375,75.398L456.125,70.137L448.275,61.371L445.65,48.791L441.725,50.201L437.775,52.068L433.85,54.171L432.55,56.989L429.925,63.521L427.3,78.346L422.05,78.381L420.75,77.646L415.5,78.254L411.575,80.094L402.4,80.919L395.825,80.058L394.525,81.534L393.225,81.747L387.975,81.72L377.475,81.146L364.375,82.566L363.075,82.496L361.75,82.29L357.825,83.597L356.525,84.007L348.65,84.622L340.775,82.777L339.475,85.679L331.6,90.311L327.675,93.299L318.5,78.368L315.875,78.547L298.85,80.153L297.525,81.274L294.9,82.025L284.425,81.877L271.325,82.446L258.2,83.623L256.9,84.498L255.6,85.851L250.35,88.565L249.025,90.956L239.85,90.456L226.75,92.353L222.825,94.211L218.9,95.046L211.025,96.056L209.725,101.092L199.225,102.434L190.05,95.718L171.7,93.173L169.075,100.877L167.775,109.891L165.15,117.298L163.85,130.151L155.975,145.051L154.675,148.328L152.05,151.815L148.1,155.19L146.8,158.468L140.25,161.677L138.925,166.169L137.625,171.172L132.375,179.74L128.45,186.842L127.15,193.862L121.9,203.949L110.1,213.409L108.8,222.553L106.175,229.794L104.85,243.676L86.5,251.828L81.275,259.1L78.65,266.037L76.025,274.254L74.7,276.635L64.225,277.306L62.925,290.431L61.6,303.22L58.975,315.651L55.05,328.099L51.125,340.19L45.875,349.801L40.625,358.52L34.075,364.37L30.15,370.044L26.225,375.89L24.9,379.698L18.35,383.766L14.425,387.743L10.475,391.48L9.175,394.396L5.25,396.771L3.925,398.458Z" fill="#4c78a8" opacity="0.25"/></g></g><path class="foreground" aria-hidden="true" d="" display="none"/></g></g><g class="mark-group role-scope layer_1_pathgroup" role="graphics-object" aria-roledescription="group mark container"><g transform="translate(0,0)"><path class="background" aria-hidden="true" d="M0,0h1000v400h-1000Z"/><g><g class="mark-line role-mark layer_1_marks" clip-path="url(#clip2)" role="graphics-object" aria-roledescription="line mark container"><path aria-label="Training Steps (Millions): 1.57; smooth_iqm: 30.8392848535; Algorithm: adam; Step (M): 1.57; Smoothed IQM: 30.84; Seeds: 1" role="graphics-symbol" aria-roledescription="line mark" d="M3.925,398.458L5.25,396.771L9.175,394.396L10.475,391.48L14.425,387.743L18.35,383.766L24.9,379.698L26.225,375.89L30.15,370.044L34.075,364.37L40.625,358.52L45.875,349.801L51.125,340.19L55.05,328.099L58.975,315.651L61.6,303.22L62.925,290.431L64.225,277.306L74.7,276.635L76.025,274.254L78.65,266.037L81.275,259.1L86.5,251.828L104.85,243.676L106.175,229.794L108.8,222.553L110.1,213.409L121.9,203.949L127.15,193.862L128.45,186.842L132.375,179.74L137.625,171.172L138.925,166.169L140.25,161.677L146.8,158.468L148.1,155.19L152.05,151.815L154.675,148.328L155.975,145.051L163.85,130.151L165.15,117.298L167.775,109.891L169.075,100.877L171.7,93.173L190.05,95.718L199.225,102.434L209.725,101.092L211.025,96.056L218.9,95.046L222.825,94.211L226.75,92.353L239.85,90.456L249.025,90.956L250.35,88.565L255.6,85.851L256.9,84.498L258.2,83.623L271.325,82.446L284.425,81.877L294.9,82.025L297.525,81.274L298.85,80.153L315.875,78.547L318.5,78.368L327.675,93.299L331.6,90.311L339.475,85.679L340.775,82.777L348.65,84.622L356.525,84.007L357.825,83.597L361.75,82.29L363.075,82.496L364.375,82.566L377.475,81.146L387.975,81.72L393.225,81.747L394.525,81.534L395.825,80.058L402.4,80.919L411.575,80.094L415.5,78.254L420.75,77.646L422.05,78.381L427.3,78.346L429.925,63.521L432.55,56.989L433.85,54.171L437.775,52.068L441.725,50.201L445.65,48.791L448.275,61.371L456.125,70.137L461.375,75.398L470.55,78.474L481.025,80.689L482.35,81.313L484.975,82.524L487.6,83.443L499.375,85.848L500.7,84.574L503.325,86.205L505.95,87.848L513.8,88.85L522.975,89.037L529.525,89.038L537.4,88.596L543.95,88.281L559.675,88.294L561,87.554L562.3,88.716L564.925,88.36L567.55,74.572L574.1,64.756L579.35,58.398L585.9,54.114L588.525,53.02L597.7,55.122L600.3,57.146L604.25,59.85L605.55,61.26L610.8,60.278L612.1,61.41L613.425,62.556L621.275,61.988L622.6,62.438L625.225,63.014L634.4,62.88L639.625,63.56L640.95,62.589L651.425,62.613L667.15,62.929L668.475,62.297L671.1,61.874L675.025,62.347L684.2,60.91L689.45,60.413L710.4,59.238L713.025,54.731L718.275,50.713L723.525,44.647L727.45,43.499L728.75,45.841L730.075,43.485L735.325,42.412L737.925,41.528L739.25,38.833L744.5,38.133L748.425,38.344L749.725,36.807L772.025,37.711L777.25,37.289L785.125,36.074L786.425,35.531L787.75,33.534L790.375,32.476L792.975,32.45L794.3,31.828L796.925,32.37L802.15,32.298L807.4,32.22L810.025,33.856L816.575,32.601L819.2,31.352L823.125,30.344L829.675,46.07L834.925,55.655L840.175,62.585L848.025,67.704L849.35,70.526L857.2,72.848L858.525,75.467L865.075,73.842L867.7,74.805L871.625,75.874L876.875,79.046L880.8,79.414L888.675,79.783L889.975,80.35L891.3,79.554L893.9,79.282L897.85,78.691L907.025,77.995L912.25,76.682L914.875,75.622L920.125,74.979L926.675,58.149L934.55,48.47L942.4,41.976L945.025,34.431L951.575,29.608L952.9,26.843L955.525,22.772L956.825,23.541L959.45,22.57L962.075,36.072L969.925,43.882L971.25,48.327L977.8,53.006L979.1,53.701L981.725,53.596L983.05,52.298L984.35,56.473L985.65,58.761L992.225,61.248L1002.7,63.036L1005.325,63.961L1014.5,62.355L1022.35,63.345L1027.6,64.618L1030.225,66.945L1031.525,68.266L1032.85,68.607L1035.475,70.133L1036.775,71.951L1038.1,72.886L1040.7,59.033L1042.025,49.666L1044.65,44.353L1045.95,39.626L1056.45,38.359L1065.625,38.551L1069.55,56.944L1073.475,64.915L1083.975,65.099L1085.275,66.15L1090.525,66.049L1108.875,67.34L1112.8,69.619L1116.725,69.476L1118.05,70.961L1119.35,71.681L1127.225,70.513L1129.85,71.564L1135.075,70.464L1148.2,69.523L1159.975,68.323L1161.3,67.985L1162.6,67.583L1170.475,69.064L1179.65,69.436L1180.95,69.42L1186.2,68.809L1190.125,51.717L1192.75,56.407L1194.075,68.738L1195.375,72.803L1200.625,78.208L1204.55,81.078L1221.6,83.179L1222.9,83.811L1224.2,82.503L1236,81.766L1245.175,82.249L1251.75,80.935L1253.05,80.326L1256.975,80.358L1262.225,79.541L1264.85,79.043L1275.325,77.859L1296.3,77.498L1298.925,76.888L1300.225,76.652L1315.975,76.57L1317.275,76.445L1321.2,59.502L1323.825,44.504L1325.15,36.05L1326.45,29.047L1343.5,39.016L1344.8,47.993L1346.1,48.093L1351.35,53.869L1359.225,59.648L1360.525,63.918L1364.45,62.277L1371.025,64.419L1373.625,65.108L1376.25,65.099L1378.875,64.299L1380.2,65.754L1385.425,66.331L1388.05,65.974L1389.375,64.154L1390.675,64.738L1407.725,66.374L1410.325,66.278L1411.65,65.881L1415.575,66.717L1416.9,65.206L1424.75,49.996L1432.625,52.64L1436.55,62.787L1437.85,57.196L1449.65,52.546L1450.975,49.398L1464.075,54.443L1468,54.577L1471.95,54.404L1479.8,56.017L1486.35,57.273L1503.4,57.457L1504.7,57.024L1520.425,57.27L1527,57.804L1529.6,58.117L1534.85,57.286L1554.525,56.275L1558.45,56.888L1563.7,56.931L1565,57.24L1566.3,57.9L1568.925,42.602L1570.25,47.458L1572.875,50.649L1584.65,52.512L1585.975,49.014L1604.325,49.262L1608.25,50.504L1610.875,51.814L1613.5,52.48L1614.8,53.252L1625.3,53.603L1626.6,53.056L1633.15,53.351L1639.7,54.523L1646.275,51.853L1648.875,51.986L1650.2,53.703L1659.375,53.126L1660.675,52.587L1671.175,53.644L1672.475,51.814L1675.1,51.924L1684.275,34.369L1685.575,29.812L1686.9,25.569L1688.2,26.504L1689.525,29.759L1694.75,28.873L1706.55,35.68L1717.05,34.673L1718.35,31.455L1720.975,30.027L1724.9,31.106L1726.225,30.693L1730.15,29.783L1747.2,32.917L1757.675,32.881L1760.3,32.827L1762.925,34.205L1770.775,34.32L1772.1,34.259L1791.75,34.194L1798.3,34.016L1800.925,33.05L1802.25,33.001L1804.85,47.865L1806.175,55.018L1824.525,49.347L1828.45,49.88L1832.375,41.374L1837.625,38.53L1854.675,41.614L1858.6,41.458L1863.85,39.716L1865.15,39.756L1878.25,40.277L1888.75,39.162L1894,37.608L1899.225,34.854L1904.475,34.098L1907.1,34.793L1913.65,34.915L1916.275,34.958L1925.45,35.502L1934.625,37.148L1935.925,36.797L1945.1,21.085L1946.425,14.795L1947.725,12.804L1950.35,9.617L1963.45,8.491L1973.95,14.569L1979.175,16.176L1980.5,14.603L1981.8,16.779L1984.425,16.815L1987.05,18.043L1989.675,18.047L1990.975,18.493L1993.6,19.604L2000.15,20.684L2008.025,21.491L2015.875,22.528L2021.125,23.708L2026.375,24.623L2029,24.39L2043.4,26.113L2046.025,27.302L2047.35,25.539L2051.275,26.147L2053.9,25.42L2056.525,26.048L2059.15,21.779L2060.45,18.565L2067,20.483L2068.325,19.815L2073.55,19.958L2077.5,19.092L2082.725,33.621L2085.35,39.307L2091.9,43.494L2095.85,44.254L2097.15,43.148L2098.475,40.006L2099.775,43.617L2106.325,44.526L2110.25,45.225L2118.125,44.471L2128.6,43.599L2137.775,44.436L2139.1,43.322L2141.725,44.535L2145.65,43.584L2146.95,43.89L2149.575,44.766L2152.2,43.713L2161.375,41.275L2164,40.326L2171.875,39.958L2174.475,24.583L2177.1,19.585L2179.725,17.267L2186.275,13.64L2188.9,14.353L2190.225,16.487L2195.45,13.104L2196.775,20.555L2215.125,27.091L2222.975,27.948L2226.925,32.079L2230.85,36.372L2232.15,40.831L2238.7,42.647L2240.025,41.622L2242.65,43.155L2243.95,43.65L2255.75,43.329L2263.625,45.012L2268.85,45.551L2274.1,44.407L2283.275,44.678L2284.575,44.223L2285.9,43.416L2292.45,45.631L2304.25,44.786L2313.425,44.791L2322.6,44.881L2326.525,35.294L2337.025,26.649L2343.575,30.284L2347.5,30L2351.425,24.562L2352.75,23.252L2355.375,25.076L2356.675,29.45L2365.85,28.374L2367.15,25.805L2371.1,29.625L2373.725,29.785L2382.9,31.796L2384.2,34.324L2385.5,33.461L2393.375,34.559L2397.3,35.727L2399.925,36.22L2405.175,38.163L2406.475,38.972L2409.1,38.134L2415.65,39.141L2419.6,41.03L2426.15,35.999L2427.45,33.285L2428.775,35.404L2431.375,34.043L2434,30.351L2437.95,27.633L2440.55,26.651L2447.125,27.835L2449.725,25.987L2452.35,25.966L2462.85,24.448L2464.15,23.669L2465.475,25.649L2470.7,24.744L2473.325,23.324L2477.25,22.194L2483.825,19.604L2496.925,18.192" stroke="#4c78a8" stroke-width="2"/></g></g><path class="foreground" aria-hidden="true" d="" display="none"/></g></g><g class="mark-group role-legend" role="graphics-symbol" aria-roledescription="legend" aria-label="Symbol legend for fill color and stroke color with 1 value: adam"><g transform="translate(18,359)"><path class="background" aria-hidden="true" d="M3.5,0.5L49.5,0.5C51.155745073482,0.5,52.5,1.844254926518,52.5,3.5L52.5,20.5C52.5,22.155745073482,51.155745073482,23.5,49.5,23.5L3.5,23.5C1.844254926518,23.5,0.5,22.155745073482,0.5,20.5L0.5,3.5C0.5,1.844254926518,1.844254926518,0.5,3.5,0.5Z" pointer-events="none" fill="rgba(255,255,255,1)" stroke="gray"/><g><g class="mark-group role-legend-entry"><g transform="translate(5,5)"><path class="background" aria-hidden="true" d="M0,0h0v0h0Z" pointer-events="none"/><g><g class="mark-group role-scope" role="graphics-object" aria-roledescription="group mark container"><g transform="translate(0,0)"><path class="background" aria-hidden="true" d="M0,0h41.0146484375v12.5h-41.0146484375Z" pointer-events="none" opacity="1"/><g><g class="mark-symbol role-legend-symbol" pointer-events="none"><path transform="translate(6,6)" d="M5,0A5,5,0,1,1,-5,0A5,5,0,1,1,5,0" fill="#4c78a8" stroke="#4c78a8" stroke-width="1.5" opacity="1"/></g><g class="mark-text role-legend-label" pointer-events="none"><text text-anchor="start" transform="translate(16,9)" font-family="sans-serif" font-size="10px" fill="#000" opacity="1">adam</text></g></g><path class="foreground" aria-hidden="true" d="" pointer-events="none" display="none"/></g></g></g><path class="foreground" aria-hidden="true" d="" pointer-events="none" display="none"/></g></g></g><path class="foreground" aria-hidden="true" d="" pointer-events="none" display="none"/></g></g><g class="mark-group role-title"><g transform="translate(500,-22)"><path class="background" aria-hidden="true" d="M0,0h0v0h0Z" pointer-events="none"/><g><g class="mark-text role-title-text" role="graphics-symbol" aria-roledescription="title" aria-label="Title text 'Slippery Ant +B: Charts/Mean Episodic Return (IQM)'" pointer-events="none"><text text-anchor="middle" transform="translate(0,10)" font-family="sans-serif" font-size="13px" font-weight="bold" fill="#000" opacity="1">Slippery Ant +B: Charts/Mean Episodic Return (IQM)</text></g></g><path class="foreground" aria-hidden="true" d="" pointer-events="none" display="none"/></g></g></g><path class="foreground" aria-hidden="true" d="" display="none"/></g></g></g><defs><clipPath id="clip1"><rect x="0" y="0" width="1000" height="400"/></clipPath><clipPath id="clip2"><rect x="0" y="0" width="1000" height="400"/></clipPath></defs></svg>